{"glyphs":{"0":{"ha":855,"x_min":0,"x_max":0,"o":"m 427 1003 b 762 493 647 1003 762 818 b 427 -19 762 167 647 -19 b 93 493 207 -19 93 167 b 427 1003 93 818 207 1003 m 427 881 b 251 493 315 881 251 770 b 269 257 251 392 257 315 l 548 823 b 427 881 520 865 481 881 m 427 103 b 603 493 541 103 603 212 b 588 710 603 583 599 655 l 314 150 b 427 103 342 116 379 103 "},"1":{"ha":855,"x_min":0,"x_max":0,"o":"m 755 125 l 755 0 l 160 0 l 160 125 l 400 125 l 400 819 l 184 686 l 115 798 l 417 983 l 558 983 l 558 125 "},"2":{"ha":855,"x_min":0,"x_max":0,"o":"m 387 1003 b 700 725 588 1003 700 880 b 276 128 700 553 590 413 l 723 128 l 704 0 l 93 0 l 93 121 b 535 715 446 460 535 571 b 376 875 535 814 476 875 b 177 772 288 875 235 844 l 73 851 b 387 1003 150 949 245 1003 "},"3":{"ha":855,"x_min":0,"x_max":0,"o":"m 385 1003 b 699 754 580 1003 699 890 b 504 523 699 633 614 548 b 730 281 626 510 730 435 b 374 -19 730 112 590 -19 b 56 118 250 -19 133 26 l 153 204 b 367 108 209 138 288 108 b 565 286 489 108 565 175 b 375 458 565 414 488 458 l 291 458 l 309 575 l 369 575 b 541 731 461 575 541 625 b 372 880 541 826 468 880 b 168 791 289 880 230 849 l 83 882 b 385 1003 170 964 271 1003 "},"4":{"ha":855,"x_min":0,"x_max":0,"o":"m 766 226 l 650 226 l 650 0 l 496 0 l 496 226 l 88 226 l 88 338 l 370 1003 l 505 949 l 254 350 l 496 350 l 516 613 l 650 613 l 650 350 l 766 350 "},"5":{"ha":855,"x_min":0,"x_max":0,"o":"m 688 863 l 311 863 l 311 590 b 472 628 366 619 418 628 b 743 316 629 628 743 513 b 390 -19 743 118 603 -19 b 89 110 262 -19 164 30 l 184 199 b 384 108 239 138 306 108 b 577 316 504 108 577 183 b 417 511 577 461 509 511 b 276 478 367 511 328 500 l 158 478 l 158 983 l 709 983 "},"6":{"ha":855,"x_min":0,"x_max":0,"o":"m 486 647 b 764 332 638 647 764 541 b 439 -19 764 122 626 -19 b 97 457 192 -19 97 179 b 486 1003 97 785 242 1003 b 688 943 566 1003 632 980 l 626 840 b 486 882 584 868 536 882 b 261 532 352 882 268 749 b 486 647 322 613 399 647 m 439 102 b 602 325 548 102 602 192 b 452 528 602 476 543 528 b 261 413 375 528 308 482 b 439 102 266 201 316 102 "},"7":{"ha":855,"x_min":0,"x_max":0,"o":"m 196 29 l 573 858 l 123 858 l 123 983 l 734 983 l 734 868 l 346 -17 "},"8":{"ha":855,"x_min":0,"x_max":0,"o":"m 734 749 b 571 530 734 654 678 590 b 774 265 700 472 774 382 b 424 -19 774 108 645 -19 b 81 261 202 -19 81 107 b 272 514 81 379 156 461 b 120 740 169 568 120 630 b 428 1003 120 915 276 1003 b 734 749 589 1003 734 917 m 275 739 b 463 570 275 642 343 610 b 580 741 544 620 580 665 b 428 887 580 829 526 887 b 275 739 331 887 275 834 m 610 264 b 375 469 610 383 522 418 b 244 266 303 432 244 373 b 426 102 244 166 306 102 b 610 264 548 102 610 173 "},"9":{"ha":855,"x_min":0,"x_max":0,"o":"m 416 1001 b 752 603 640 1001 752 845 b 199 -35 752 214 584 61 l 165 82 b 583 457 422 152 558 254 b 363 353 525 394 455 353 b 83 667 202 353 83 473 b 416 1001 83 878 229 1001 m 402 472 b 587 571 478 472 533 509 b 415 880 586 791 540 880 b 245 667 306 880 245 809 b 402 472 245 528 308 472 "},"A":{"ha":855,"x_min":0,"x_max":0,"o":"m 249 236 l 180 0 l 12 0 l 325 983 l 530 983 l 843 0 l 668 0 l 600 236 m 565 364 l 425 855 l 283 364 "},"Á":{"ha":855,"x_min":0,"x_max":0,"o":"m 608 1189 l 291 1074 l 251 1157 l 543 1316 m 249 236 l 180 0 l 12 0 l 325 983 l 530 983 l 843 0 l 668 0 l 600 236 m 565 364 l 425 855 l 283 364 "},"Ă":{"ha":855,"x_min":0,"x_max":0,"o":"m 426 1077 b 202 1266 298 1077 214 1155 l 301 1285 b 426 1194 320 1227 359 1194 b 553 1285 492 1194 534 1227 l 652 1266 b 426 1077 640 1155 553 1077 m 249 236 l 180 0 l 12 0 l 325 983 l 530 983 l 843 0 l 668 0 l 600 236 m 565 364 l 425 855 l 283 364 "},"Â":{"ha":855,"x_min":0,"x_max":0,"o":"m 674 1149 l 611 1077 l 427 1194 l 245 1077 l 180 1149 l 377 1315 l 479 1315 m 249 236 l 180 0 l 12 0 l 325 983 l 530 983 l 843 0 l 668 0 l 600 236 m 565 364 l 425 855 l 283 364 "},"Ä":{"ha":855,"x_min":0,"x_max":0,"o":"m 274 1091 b 180 1181 221 1091 180 1130 b 274 1272 180 1233 221 1272 b 365 1181 325 1272 365 1233 b 274 1091 365 1130 325 1091 m 580 1091 b 489 1181 530 1091 489 1130 b 580 1272 489 1233 530 1272 b 674 1181 633 1272 674 1233 b 580 1091 674 1130 633 1091 m 249 236 l 180 0 l 12 0 l 325 983 l 530 983 l 843 0 l 668 0 l 600 236 m 565 364 l 425 855 l 283 364 "},"À":{"ha":855,"x_min":0,"x_max":0,"o":"m 604 1157 l 561 1074 l 251 1192 l 324 1319 m 249 236 l 180 0 l 12 0 l 325 983 l 530 983 l 843 0 l 668 0 l 600 236 m 565 364 l 425 855 l 283 364 "},"Ā":{"ha":855,"x_min":0,"x_max":0,"o":"m 226 1126 l 226 1242 l 628 1242 l 628 1126 m 249 236 l 180 0 l 12 0 l 325 983 l 530 983 l 843 0 l 668 0 l 600 236 m 565 364 l 425 855 l 283 364 "},"Ą":{"ha":855,"x_min":0,"x_max":0,"o":"m 764 0 b 593 -161 623 -58 593 -108 b 673 -229 593 -204 618 -229 b 757 -219 703 -229 726 -226 l 743 -329 b 655 -340 716 -335 691 -340 b 466 -186 542 -340 466 -278 b 660 27 466 -88 534 -23 l 600 236 l 249 236 l 180 0 l 12 0 l 325 983 l 530 983 l 843 0 l 764 0 m 565 364 l 425 855 l 283 364 "},"Å":{"ha":855,"x_min":0,"x_max":0,"o":"m 427 1369 b 600 1207 531 1369 600 1296 b 427 1046 600 1119 531 1046 b 254 1207 324 1046 254 1119 b 427 1369 254 1296 324 1369 m 427 1284 b 355 1207 385 1284 355 1256 b 427 1130 355 1157 385 1130 b 499 1207 472 1130 499 1157 b 427 1284 499 1256 472 1284 m 249 236 l 180 0 l 12 0 l 325 983 l 530 983 l 843 0 l 668 0 l 600 236 m 565 364 l 425 855 l 283 364 "},"Ã":{"ha":855,"x_min":0,"x_max":0,"o":"m 509 1098 b 345 1165 432 1098 395 1165 b 269 1100 311 1165 292 1143 l 179 1146 b 344 1283 213 1222 268 1283 b 509 1217 425 1283 457 1217 b 584 1279 538 1217 559 1237 l 674 1234 b 509 1098 637 1149 580 1098 m 249 236 l 180 0 l 12 0 l 325 983 l 530 983 l 843 0 l 668 0 l 600 236 m 565 364 l 425 855 l 283 364 "},"Æ":{"ha":855,"x_min":0,"x_max":0,"o":"m 204 238 l 146 0 l -17 0 l 256 983 l 806 983 l 788 861 l 481 861 l 543 560 l 793 560 l 793 437 l 566 437 l 631 123 l 863 123 l 863 0 l 506 0 l 461 238 m 438 363 l 345 863 l 234 363 "},"Ǽ":{"ha":855,"x_min":0,"x_max":0,"o":"m 689 1189 l 373 1074 l 332 1157 l 624 1316 m 204 238 l 146 0 l -17 0 l 256 983 l 806 983 l 788 861 l 481 861 l 543 560 l 793 560 l 793 437 l 566 437 l 631 123 l 863 123 l 863 0 l 506 0 l 461 238 m 438 363 l 345 863 l 234 363 "},"B":{"ha":855,"x_min":0,"x_max":0,"o":"m 786 283 b 403 0 786 64 596 0 l 115 0 l 115 983 l 384 983 b 743 734 568 983 743 927 b 561 521 743 611 656 543 b 786 283 668 503 786 447 m 575 721 b 399 859 575 820 511 859 l 281 859 l 281 575 l 409 575 b 575 721 519 575 575 618 m 613 284 b 421 452 613 416 529 452 l 281 452 l 281 128 l 414 128 b 613 284 508 128 613 153 "},"C":{"ha":855,"x_min":0,"x_max":0,"o":"m 510 1003 b 806 902 643 1003 727 967 l 720 800 b 518 873 661 849 593 873 b 246 493 370 873 246 771 b 518 115 246 221 363 115 b 741 199 623 115 687 156 l 821 98 b 512 -19 755 33 657 -19 b 74 493 262 -19 74 160 b 510 1003 74 823 270 1003 "},"Ć":{"ha":855,"x_min":0,"x_max":0,"o":"m 699 1189 l 382 1074 l 341 1157 l 633 1316 m 510 1003 b 806 902 643 1003 727 967 l 720 800 b 518 873 661 849 593 873 b 246 493 370 873 246 771 b 518 115 246 221 363 115 b 741 199 623 115 687 156 l 821 98 b 512 -19 755 33 657 -19 b 74 493 262 -19 74 160 b 510 1003 74 823 270 1003 "},"Č":{"ha":855,"x_min":0,"x_max":0,"o":"m 765 1239 l 571 1073 l 468 1073 l 271 1239 l 336 1311 l 519 1194 l 702 1311 m 510 1003 b 806 902 643 1003 727 967 l 720 800 b 518 873 661 849 593 873 b 246 493 370 873 246 771 b 518 115 246 221 363 115 b 741 199 623 115 687 156 l 821 98 b 512 -19 755 33 657 -19 b 74 493 262 -19 74 160 b 510 1003 74 823 270 1003 "},"Ç":{"ha":855,"x_min":0,"x_max":0,"o":"m 533 -76 b 671 -204 629 -85 671 -140 b 482 -353 671 -298 588 -353 b 326 -314 421 -353 364 -336 l 370 -232 b 464 -256 397 -246 433 -256 b 546 -202 513 -256 546 -241 b 420 -147 546 -157 499 -147 l 432 -13 b 74 493 223 22 74 197 b 510 1003 74 823 270 1003 b 806 902 643 1003 727 967 l 720 800 b 518 873 661 849 593 873 b 246 493 370 873 246 771 b 518 115 246 221 363 115 b 741 199 623 115 687 156 l 821 98 b 533 -19 758 36 666 -14 l 533 -76 "},"Ĉ":{"ha":855,"x_min":0,"x_max":0,"o":"m 765 1149 l 702 1077 l 519 1194 l 336 1077 l 271 1149 l 468 1315 l 571 1315 m 510 1003 b 806 902 643 1003 727 967 l 720 800 b 518 873 661 849 593 873 b 246 493 370 873 246 771 b 518 115 246 221 363 115 b 741 199 623 115 687 156 l 821 98 b 512 -19 755 33 657 -19 b 74 493 262 -19 74 160 b 510 1003 74 823 270 1003 "},"Ċ":{"ha":855,"x_min":0,"x_max":0,"o":"m 517 1294 b 622 1194 579 1294 622 1251 b 517 1093 622 1137 579 1093 b 413 1194 455 1093 413 1137 b 517 1294 413 1251 455 1294 m 510 1003 b 806 902 643 1003 727 967 l 720 800 b 518 873 661 849 593 873 b 246 493 370 873 246 771 b 518 115 246 221 363 115 b 741 199 623 115 687 156 l 821 98 b 512 -19 755 33 657 -19 b 74 493 262 -19 74 160 b 510 1003 74 823 270 1003 "},"D":{"ha":855,"x_min":0,"x_max":0,"o":"m 799 496 b 343 0 799 89 562 0 l 102 0 l 102 983 l 326 983 b 799 496 565 983 799 904 m 625 496 b 358 856 625 809 489 856 l 267 856 l 267 125 l 358 125 b 625 496 495 125 625 197 "},"Ð":{"ha":855,"x_min":0,"x_max":0,"o":"m 342 983 b 814 496 580 983 814 904 b 358 0 814 89 578 0 l 118 0 l 118 447 l 23 447 l 23 559 l 118 559 l 118 983 l 342 983 m 374 125 b 641 496 511 125 641 197 b 373 856 641 809 504 856 l 283 856 l 283 559 l 487 559 l 487 447 l 283 447 l 283 125 l 374 125 "},"Ď":{"ha":855,"x_min":0,"x_max":0,"o":"m 652 1239 l 458 1073 l 355 1073 l 159 1239 l 224 1311 l 406 1194 l 590 1311 m 799 496 b 343 0 799 89 562 0 l 102 0 l 102 983 l 326 983 b 799 496 565 983 799 904 m 625 496 b 358 856 625 809 489 856 l 267 856 l 267 125 l 358 125 b 625 496 495 125 625 197 "},"Đ":{"ha":855,"x_min":0,"x_max":0,"o":"m 342 983 b 814 496 580 983 814 904 b 358 0 814 89 578 0 l 118 0 l 118 447 l 23 447 l 23 559 l 118 559 l 118 983 l 342 983 m 374 125 b 641 496 511 125 641 197 b 373 856 641 809 504 856 l 283 856 l 283 559 l 487 559 l 487 447 l 283 447 l 283 125 l 374 125 "},"E":{"ha":855,"x_min":0,"x_max":0,"o":"m 326 562 l 682 562 l 682 437 l 326 437 l 326 125 l 760 125 l 760 0 l 161 0 l 161 983 l 752 983 l 734 858 l 326 858 "},"É":{"ha":855,"x_min":0,"x_max":0,"o":"m 637 1189 l 321 1074 l 280 1157 l 572 1316 m 326 562 l 682 562 l 682 437 l 326 437 l 326 125 l 760 125 l 760 0 l 161 0 l 161 983 l 752 983 l 734 858 l 326 858 "},"Ĕ":{"ha":855,"x_min":0,"x_max":0,"o":"m 455 1077 b 231 1266 328 1077 244 1155 l 330 1285 b 455 1194 349 1227 388 1194 b 583 1285 521 1194 563 1227 l 681 1266 b 455 1077 670 1155 583 1077 m 326 562 l 682 562 l 682 437 l 326 437 l 326 125 l 760 125 l 760 0 l 161 0 l 161 983 l 752 983 l 734 858 l 326 858 "},"Ě":{"ha":855,"x_min":0,"x_max":0,"o":"m 703 1239 l 509 1073 l 406 1073 l 209 1239 l 274 1311 l 457 1194 l 640 1311 m 326 562 l 682 562 l 682 437 l 326 437 l 326 125 l 760 125 l 760 0 l 161 0 l 161 983 l 752 983 l 734 858 l 326 858 "},"Ê":{"ha":855,"x_min":0,"x_max":0,"o":"m 703 1149 l 640 1077 l 457 1194 l 274 1077 l 209 1149 l 406 1315 l 509 1315 m 326 562 l 682 562 l 682 437 l 326 437 l 326 125 l 760 125 l 760 0 l 161 0 l 161 983 l 752 983 l 734 858 l 326 858 "},"Ë":{"ha":855,"x_min":0,"x_max":0,"o":"m 303 1091 b 209 1181 250 1091 209 1130 b 303 1272 209 1233 250 1272 b 395 1181 355 1272 395 1233 b 303 1091 395 1130 355 1091 m 610 1091 b 518 1181 559 1091 518 1130 b 610 1272 518 1233 559 1272 b 703 1181 662 1272 703 1233 b 610 1091 703 1130 662 1091 m 326 562 l 682 562 l 682 437 l 326 437 l 326 125 l 760 125 l 760 0 l 161 0 l 161 983 l 752 983 l 734 858 l 326 858 "},"Ė":{"ha":855,"x_min":0,"x_max":0,"o":"m 456 1294 b 561 1194 518 1294 561 1251 b 456 1093 561 1137 518 1093 b 352 1194 394 1093 352 1137 b 456 1294 352 1251 394 1294 m 326 562 l 682 562 l 682 437 l 326 437 l 326 125 l 760 125 l 760 0 l 161 0 l 161 983 l 752 983 l 734 858 l 326 858 "},"È":{"ha":855,"x_min":0,"x_max":0,"o":"m 633 1157 l 590 1074 l 280 1192 l 353 1319 m 326 562 l 682 562 l 682 437 l 326 437 l 326 125 l 760 125 l 760 0 l 161 0 l 161 983 l 752 983 l 734 858 l 326 858 "},"Ē":{"ha":855,"x_min":0,"x_max":0,"o":"m 255 1126 l 255 1242 l 657 1242 l 657 1126 m 326 562 l 682 562 l 682 437 l 326 437 l 326 125 l 760 125 l 760 0 l 161 0 l 161 983 l 752 983 l 734 858 l 326 858 "},"Ę":{"ha":855,"x_min":0,"x_max":0,"o":"m 760 125 l 760 0 l 666 0 b 494 -161 525 -58 494 -108 b 575 -229 494 -204 519 -229 b 659 -219 605 -229 627 -226 l 645 -329 b 557 -340 618 -335 593 -340 b 368 -186 444 -340 368 -278 b 502 0 368 -104 415 -46 l 161 0 l 161 983 l 752 983 l 734 858 l 326 858 l 326 562 l 682 562 l 682 437 l 326 437 l 326 125 "},"F":{"ha":855,"x_min":0,"x_max":0,"o":"m 346 545 l 716 545 l 716 420 l 346 420 l 346 0 l 181 0 l 181 983 l 786 983 l 767 858 l 346 858 "},"G":{"ha":855,"x_min":0,"x_max":0,"o":"m 453 -19 b 53 493 202 -19 53 154 b 481 1003 53 830 253 1003 b 774 890 615 1003 697 961 l 682 793 b 486 874 622 848 563 874 b 226 492 348 874 226 774 b 461 110 226 217 305 110 b 623 151 521 110 575 125 l 623 422 l 457 422 l 439 548 l 783 548 l 783 71 b 453 -19 691 19 590 -19 "},"Ğ":{"ha":855,"x_min":0,"x_max":0,"o":"m 469 1077 b 245 1266 341 1077 257 1155 l 343 1285 b 469 1194 363 1227 402 1194 b 596 1285 535 1194 577 1227 l 694 1266 b 469 1077 683 1155 596 1077 m 453 -19 b 53 493 202 -19 53 154 b 481 1003 53 830 253 1003 b 774 890 615 1003 697 961 l 682 793 b 486 874 622 848 563 874 b 226 492 348 874 226 774 b 461 110 226 217 305 110 b 623 151 521 110 575 125 l 623 422 l 457 422 l 439 548 l 783 548 l 783 71 b 453 -19 691 19 590 -19 "},"Ĝ":{"ha":855,"x_min":0,"x_max":0,"o":"m 717 1149 l 654 1077 l 470 1194 l 288 1077 l 223 1149 l 420 1315 l 522 1315 m 453 -19 b 53 493 202 -19 53 154 b 481 1003 53 830 253 1003 b 774 890 615 1003 697 961 l 682 793 b 486 874 622 848 563 874 b 226 492 348 874 226 774 b 461 110 226 217 305 110 b 623 151 521 110 575 125 l 623 422 l 457 422 l 439 548 l 783 548 l 783 71 b 453 -19 691 19 590 -19 "},"Ģ":{"ha":855,"x_min":0,"x_max":0,"o":"m 453 -19 b 53 493 202 -19 53 154 b 481 1003 53 830 253 1003 b 774 890 615 1003 697 961 l 682 793 b 486 874 622 848 563 874 b 226 492 348 874 226 774 b 461 110 226 217 305 110 b 623 151 521 110 575 125 l 623 422 l 457 422 l 439 548 l 783 548 l 783 71 b 453 -19 691 19 590 -19 m 472 -98 b 563 -187 523 -98 563 -135 b 536 -280 563 -215 553 -243 l 466 -427 l 377 -427 l 418 -261 b 381 -187 396 -244 381 -218 b 472 -98 381 -137 421 -98 "},"Ġ":{"ha":855,"x_min":0,"x_max":0,"o":"m 469 1294 b 574 1194 531 1294 574 1251 b 469 1093 574 1137 531 1093 b 365 1194 407 1093 365 1137 b 469 1294 365 1251 407 1294 m 453 -19 b 53 493 202 -19 53 154 b 481 1003 53 830 253 1003 b 774 890 615 1003 697 961 l 682 793 b 486 874 622 848 563 874 b 226 492 348 874 226 774 b 461 110 226 217 305 110 b 623 151 521 110 575 125 l 623 422 l 457 422 l 439 548 l 783 548 l 783 71 b 453 -19 691 19 590 -19 "},"H":{"ha":855,"x_min":0,"x_max":0,"o":"m 588 447 l 267 447 l 267 0 l 102 0 l 102 983 l 267 983 l 267 583 l 588 583 l 588 983 l 753 983 l 753 0 l 588 0 "},"Ħ":{"ha":855,"x_min":0,"x_max":0,"o":"m 852 720 l 751 720 l 751 0 l 585 0 l 585 449 l 269 449 l 269 0 l 104 0 l 104 720 l 3 720 l 3 828 l 104 828 l 104 983 l 269 983 l 269 828 l 585 828 l 585 983 l 751 983 l 751 828 l 852 828 m 585 720 l 269 720 l 269 581 l 585 581 "},"Ĥ":{"ha":855,"x_min":0,"x_max":0,"o":"m 674 1149 l 611 1077 l 427 1194 l 245 1077 l 180 1149 l 377 1315 l 479 1315 m 588 447 l 267 447 l 267 0 l 102 0 l 102 983 l 267 983 l 267 583 l 588 583 l 588 983 l 753 983 l 753 0 l 588 0 "},"I":{"ha":855,"x_min":0,"x_max":0,"o":"m 723 857 l 511 857 l 511 127 l 723 127 l 723 0 l 132 0 l 132 127 l 344 127 l 344 857 l 132 857 l 132 983 l 723 983 "},"Ĳ":{"ha":855,"x_min":0,"x_max":0,"o":"m 270 -102 b 609 259 548 -67 609 56 l 609 865 l 303 865 l 303 118 l 402 118 l 402 0 l 14 0 l 14 118 l 142 118 l 142 865 l 14 865 l 14 983 l 771 983 l 771 259 b 289 -219 771 19 667 -175 l 270 -102 "},"Í":{"ha":855,"x_min":0,"x_max":0,"o":"m 608 1189 l 291 1074 l 251 1157 l 543 1316 m 723 857 l 511 857 l 511 127 l 723 127 l 723 0 l 132 0 l 132 127 l 344 127 l 344 857 l 132 857 l 132 983 l 723 983 "},"Ĭ":{"ha":855,"x_min":0,"x_max":0,"o":"m 426 1077 b 202 1266 298 1077 214 1155 l 301 1285 b 426 1194 320 1227 359 1194 b 553 1285 492 1194 534 1227 l 652 1266 b 426 1077 640 1155 553 1077 m 723 857 l 511 857 l 511 127 l 723 127 l 723 0 l 132 0 l 132 127 l 344 127 l 344 857 l 132 857 l 132 983 l 723 983 "},"Î":{"ha":855,"x_min":0,"x_max":0,"o":"m 674 1149 l 611 1077 l 427 1194 l 245 1077 l 180 1149 l 377 1315 l 479 1315 m 723 857 l 511 857 l 511 127 l 723 127 l 723 0 l 132 0 l 132 127 l 344 127 l 344 857 l 132 857 l 132 983 l 723 983 "},"Ï":{"ha":855,"x_min":0,"x_max":0,"o":"m 274 1091 b 180 1181 221 1091 180 1130 b 274 1272 180 1233 221 1272 b 365 1181 325 1272 365 1233 b 274 1091 365 1130 325 1091 m 580 1091 b 489 1181 530 1091 489 1130 b 580 1272 489 1233 530 1272 b 674 1181 633 1272 674 1233 b 580 1091 674 1130 633 1091 m 723 857 l 511 857 l 511 127 l 723 127 l 723 0 l 132 0 l 132 127 l 344 127 l 344 857 l 132 857 l 132 983 l 723 983 "},"İ":{"ha":855,"x_min":0,"x_max":0,"o":"m 427 1294 b 531 1194 489 1294 531 1251 b 427 1093 531 1137 489 1093 b 323 1194 365 1093 323 1137 b 427 1294 323 1251 365 1294 m 723 857 l 511 857 l 511 127 l 723 127 l 723 0 l 132 0 l 132 127 l 344 127 l 344 857 l 132 857 l 132 983 l 723 983 "},"Ì":{"ha":855,"x_min":0,"x_max":0,"o":"m 604 1157 l 561 1074 l 251 1192 l 324 1319 m 723 857 l 511 857 l 511 127 l 723 127 l 723 0 l 132 0 l 132 127 l 344 127 l 344 857 l 132 857 l 132 983 l 723 983 "},"Ī":{"ha":855,"x_min":0,"x_max":0,"o":"m 226 1126 l 226 1242 l 628 1242 l 628 1126 m 723 857 l 511 857 l 511 127 l 723 127 l 723 0 l 132 0 l 132 127 l 344 127 l 344 857 l 132 857 l 132 983 l 723 983 "},"Į":{"ha":855,"x_min":0,"x_max":0,"o":"m 511 857 l 511 127 l 723 127 l 723 0 l 510 0 b 338 -161 369 -58 338 -108 b 419 -229 338 -204 363 -229 b 503 -219 449 -229 472 -226 l 489 -329 b 401 -340 462 -335 437 -340 b 212 -186 288 -340 212 -278 b 346 0 212 -104 259 -46 l 132 0 l 132 127 l 344 127 l 344 857 l 132 857 l 132 983 l 723 983 l 723 857 "},"Ĩ":{"ha":855,"x_min":0,"x_max":0,"o":"m 509 1098 b 345 1165 432 1098 395 1165 b 269 1100 311 1165 292 1143 l 179 1146 b 344 1283 213 1222 268 1283 b 509 1217 425 1283 457 1217 b 584 1279 538 1217 559 1237 l 674 1234 b 509 1098 637 1149 580 1098 m 723 857 l 511 857 l 511 127 l 723 127 l 723 0 l 132 0 l 132 127 l 344 127 l 344 857 l 132 857 l 132 983 l 723 983 "},"J":{"ha":855,"x_min":0,"x_max":0,"o":"m 724 337 b 365 -19 724 148 622 -19 b 85 72 257 -19 166 14 l 153 177 b 359 112 231 127 295 112 b 559 340 482 112 559 194 l 559 856 l 264 856 l 264 983 l 724 983 "},"Ĵ":{"ha":855,"x_min":0,"x_max":0,"o":"m 746 1149 l 683 1077 l 499 1194 l 317 1077 l 252 1149 l 449 1315 l 551 1315 m 724 337 b 365 -19 724 148 622 -19 b 85 72 257 -19 166 14 l 153 177 b 359 112 231 127 295 112 b 559 340 482 112 559 194 l 559 856 l 264 856 l 264 983 l 724 983 "},"K":{"ha":855,"x_min":0,"x_max":0,"o":"m 125 0 l 125 983 l 290 983 l 290 0 m 639 983 l 821 983 l 476 536 l 848 0 l 650 0 l 297 525 "},"Ķ":{"ha":855,"x_min":0,"x_max":0,"o":"m 125 0 l 125 983 l 290 983 l 290 0 m 639 983 l 821 983 l 476 536 l 848 0 l 650 0 l 297 525 m 451 -98 b 541 -187 501 -98 541 -135 b 515 -280 541 -215 532 -243 l 444 -427 l 356 -427 l 397 -261 b 360 -187 375 -244 360 -218 b 451 -98 360 -137 400 -98 "},"L":{"ha":855,"x_min":0,"x_max":0,"o":"m 170 983 l 335 983 l 335 138 l 776 138 l 758 0 l 170 0 "},"Ĺ":{"ha":855,"x_min":0,"x_max":0,"o":"m 434 1189 l 117 1074 l 76 1157 l 368 1316 m 170 983 l 335 983 l 335 138 l 776 138 l 758 0 l 170 0 "},"Ľ":{"ha":855,"x_min":0,"x_max":0,"o":"m 603 985 l 514 702 l 419 717 l 461 1002 m 170 983 l 335 983 l 335 138 l 776 138 l 758 0 l 170 0 "},"Ļ":{"ha":855,"x_min":0,"x_max":0,"o":"m 170 983 l 335 983 l 335 138 l 776 138 l 758 0 l 170 0 m 468 -98 b 558 -187 519 -98 558 -135 b 532 -280 558 -215 549 -243 l 462 -427 l 373 -427 l 414 -261 b 377 -187 392 -244 377 -218 b 468 -98 377 -137 417 -98 "},"Ŀ":{"ha":855,"x_min":0,"x_max":0,"o":"m 170 983 l 335 983 l 335 138 l 776 138 l 758 0 l 170 0 m 669 642 b 774 543 731 642 774 599 b 669 442 774 485 731 442 b 564 543 607 442 564 485 b 669 642 564 599 607 642 "},"Ł":{"ha":855,"x_min":0,"x_max":0,"o":"m 782 138 l 764 0 l 177 0 l 177 361 l 101 314 l 41 411 l 177 495 l 177 983 l 342 983 l 342 598 l 554 729 l 616 634 l 342 464 l 342 138 "},"M":{"ha":855,"x_min":0,"x_max":0,"o":"m 818 0 l 667 0 l 644 479 b 643 838 637 623 639 753 l 499 173 l 355 173 l 199 838 b 204 477 205 756 208 614 l 184 0 l 36 0 l 92 983 l 290 983 l 430 324 l 564 983 l 763 983 "},"N":{"ha":855,"x_min":0,"x_max":0,"o":"m 225 836 b 249 447 231 778 249 606 l 249 0 l 102 0 l 102 983 l 316 983 l 630 146 b 606 535 623 205 606 358 l 606 983 l 753 983 l 753 0 l 538 0 "},"Ń":{"ha":855,"x_min":0,"x_max":0,"o":"m 612 1189 l 295 1074 l 254 1157 l 546 1316 m 225 836 b 249 447 231 778 249 606 l 249 0 l 102 0 l 102 983 l 316 983 l 630 146 b 606 535 623 205 606 358 l 606 983 l 753 983 l 753 0 l 538 0 "},"Ň":{"ha":855,"x_min":0,"x_max":0,"o":"m 678 1239 l 484 1073 l 381 1073 l 184 1239 l 249 1311 l 432 1194 l 615 1311 m 225 836 b 249 447 231 778 249 606 l 249 0 l 102 0 l 102 983 l 316 983 l 630 146 b 606 535 623 205 606 358 l 606 983 l 753 983 l 753 0 l 538 0 "},"Ņ":{"ha":855,"x_min":0,"x_max":0,"o":"m 225 836 b 249 447 231 778 249 606 l 249 0 l 102 0 l 102 983 l 316 983 l 630 146 b 606 535 623 205 606 358 l 606 983 l 753 983 l 753 0 l 538 0 m 431 -98 b 521 -187 481 -98 521 -135 b 495 -280 521 -215 512 -243 l 425 -427 l 336 -427 l 377 -261 b 340 -187 355 -244 340 -218 b 431 -98 340 -137 380 -98 "},"Ŋ":{"ha":855,"x_min":0,"x_max":0,"o":"m 753 983 l 753 -69 b 516 -311 753 -229 662 -311 b 343 -254 437 -311 384 -283 l 405 -153 b 505 -184 436 -171 460 -184 b 588 -81 558 -184 588 -153 l 588 0 l 538 0 l 225 836 b 249 447 231 778 249 606 l 249 0 l 102 0 l 102 983 l 316 983 l 630 146 b 606 535 623 205 606 358 l 606 983 "},"Ñ":{"ha":855,"x_min":0,"x_max":0,"o":"m 513 1098 b 348 1165 435 1098 399 1165 b 273 1100 315 1165 296 1143 l 183 1146 b 348 1283 217 1222 271 1283 b 513 1217 429 1283 461 1217 b 588 1279 542 1217 563 1237 l 677 1234 b 513 1098 640 1149 583 1098 m 225 836 b 249 447 231 778 249 606 l 249 0 l 102 0 l 102 983 l 316 983 l 630 146 b 606 535 623 205 606 358 l 606 983 l 753 983 l 753 0 l 538 0 "},"O":{"ha":855,"x_min":0,"x_max":0,"o":"m 801 491 b 427 -19 801 188 674 -19 b 53 490 181 -19 53 181 b 427 1003 53 793 181 1003 b 801 491 674 1003 801 801 m 630 491 b 427 874 630 746 572 874 b 224 490 283 874 224 744 b 427 110 224 236 286 110 b 630 491 573 110 630 238 "},"Ó":{"ha":855,"x_min":0,"x_max":0,"o":"m 608 1189 l 291 1074 l 251 1157 l 543 1316 m 801 491 b 427 -19 801 188 674 -19 b 53 490 181 -19 53 181 b 427 1003 53 793 181 1003 b 801 491 674 1003 801 801 m 630 491 b 427 874 630 746 572 874 b 224 490 283 874 224 744 b 427 110 224 236 286 110 b 630 491 573 110 630 238 "},"Ŏ":{"ha":855,"x_min":0,"x_max":0,"o":"m 426 1077 b 202 1266 298 1077 214 1155 l 301 1285 b 426 1194 320 1227 359 1194 b 553 1285 492 1194 534 1227 l 652 1266 b 426 1077 640 1155 553 1077 m 801 491 b 427 -19 801 188 674 -19 b 53 490 181 -19 53 181 b 427 1003 53 793 181 1003 b 801 491 674 1003 801 801 m 630 491 b 427 874 630 746 572 874 b 224 490 283 874 224 744 b 427 110 224 236 286 110 b 630 491 573 110 630 238 "},"Ô":{"ha":855,"x_min":0,"x_max":0,"o":"m 674 1149 l 611 1077 l 427 1194 l 245 1077 l 180 1149 l 377 1315 l 479 1315 m 801 491 b 427 -19 801 188 674 -19 b 53 490 181 -19 53 181 b 427 1003 53 793 181 1003 b 801 491 674 1003 801 801 m 630 491 b 427 874 630 746 572 874 b 224 490 283 874 224 744 b 427 110 224 236 286 110 b 630 491 573 110 630 238 "},"Ö":{"ha":855,"x_min":0,"x_max":0,"o":"m 274 1091 b 180 1181 221 1091 180 1130 b 274 1272 180 1233 221 1272 b 365 1181 325 1272 365 1233 b 274 1091 365 1130 325 1091 m 580 1091 b 489 1181 530 1091 489 1130 b 580 1272 489 1233 530 1272 b 674 1181 633 1272 674 1233 b 580 1091 674 1130 633 1091 m 801 491 b 427 -19 801 188 674 -19 b 53 490 181 -19 53 181 b 427 1003 53 793 181 1003 b 801 491 674 1003 801 801 m 630 491 b 427 874 630 746 572 874 b 224 490 283 874 224 744 b 427 110 224 236 286 110 b 630 491 573 110 630 238 "},"Ò":{"ha":855,"x_min":0,"x_max":0,"o":"m 604 1157 l 561 1074 l 251 1192 l 324 1319 m 801 491 b 427 -19 801 188 674 -19 b 53 490 181 -19 53 181 b 427 1003 53 793 181 1003 b 801 491 674 1003 801 801 m 630 491 b 427 874 630 746 572 874 b 224 490 283 874 224 744 b 427 110 224 236 286 110 b 630 491 573 110 630 238 "},"Ő":{"ha":855,"x_min":0,"x_max":0,"o":"m 370 1375 l 493 1318 l 340 1074 l 247 1116 m 613 1375 l 734 1313 l 571 1071 l 480 1117 m 801 491 b 427 -19 801 188 674 -19 b 53 490 181 -19 53 181 b 427 1003 53 793 181 1003 b 801 491 674 1003 801 801 m 630 491 b 427 874 630 746 572 874 b 224 490 283 874 224 744 b 427 110 224 236 286 110 b 630 491 573 110 630 238 "},"Ō":{"ha":855,"x_min":0,"x_max":0,"o":"m 226 1126 l 226 1242 l 628 1242 l 628 1126 m 801 491 b 427 -19 801 188 674 -19 b 53 490 181 -19 53 181 b 427 1003 53 793 181 1003 b 801 491 674 1003 801 801 m 630 491 b 427 874 630 746 572 874 b 224 490 283 874 224 744 b 427 110 224 236 286 110 b 630 491 573 110 630 238 "},"Ø":{"ha":855,"x_min":0,"x_max":0,"o":"m 630 939 b 801 491 741 857 801 698 b 427 -19 801 188 674 -19 b 343 -10 397 -19 370 -16 l 299 -156 l 173 -121 l 225 43 b 53 490 113 125 53 283 b 427 1003 53 793 181 1003 b 512 994 457 1003 486 1000 l 556 1144 l 683 1109 l 630 939 m 427 875 b 222 490 281 875 222 746 b 286 172 222 333 241 231 l 488 867 b 427 875 469 873 449 875 m 427 109 b 633 491 575 109 633 236 b 570 812 633 650 614 753 l 368 116 b 427 109 386 111 406 109 "},"Ǿ":{"ha":855,"x_min":0,"x_max":0,"o":"m 291 1074 l 251 1157 l 543 1316 l 608 1189 m 630 939 b 801 491 741 857 801 698 b 427 -19 801 188 674 -19 b 343 -10 397 -19 370 -16 l 299 -156 l 173 -121 l 225 43 b 53 490 113 125 53 283 b 427 1003 53 793 181 1003 b 512 994 457 1003 486 1000 l 556 1144 l 683 1109 l 630 939 m 427 875 b 222 490 281 875 222 746 b 286 172 222 333 241 231 l 488 867 b 427 875 469 873 449 875 m 427 109 b 633 491 575 109 633 236 b 570 812 633 650 614 753 l 368 116 b 427 109 386 111 406 109 "},"Õ":{"ha":855,"x_min":0,"x_max":0,"o":"m 509 1098 b 345 1165 432 1098 395 1165 b 269 1100 311 1165 292 1143 l 179 1146 b 344 1283 213 1222 268 1283 b 509 1217 425 1283 457 1217 b 584 1279 538 1217 559 1237 l 674 1234 b 509 1098 637 1149 580 1098 m 801 491 b 427 -19 801 188 674 -19 b 53 490 181 -19 53 181 b 427 1003 53 793 181 1003 b 801 491 674 1003 801 801 m 630 491 b 427 874 630 746 572 874 b 224 490 283 874 224 744 b 427 110 224 236 286 110 b 630 491 573 110 630 238 "},"Œ":{"ha":855,"x_min":0,"x_max":0,"o":"m 308 1003 b 423 983 350 1003 384 996 l 860 983 l 842 861 l 528 861 b 606 560 572 799 600 702 l 808 560 l 808 437 l 607 437 b 522 123 602 291 571 189 l 868 123 l 868 0 l 418 0 b 308 -19 383 -11 350 -19 b 4 490 100 -19 4 158 b 308 1003 4 817 100 1003 m 309 879 b 162 490 204 879 162 770 b 309 103 162 211 209 103 b 459 491 415 103 459 212 b 309 879 459 773 417 879 "},"P":{"ha":855,"x_min":0,"x_max":0,"o":"m 804 675 b 420 350 804 445 646 350 l 301 350 l 301 0 l 136 0 l 136 983 l 409 983 b 804 675 656 983 804 884 m 630 673 b 420 859 630 808 547 859 l 301 859 l 301 476 l 422 476 b 630 673 546 476 630 525 "},"Þ":{"ha":855,"x_min":0,"x_max":0,"o":"m 292 820 l 410 820 b 803 505 657 820 803 719 b 421 177 803 275 650 177 l 292 177 l 292 0 l 127 0 l 127 983 l 292 983 m 292 696 l 292 302 l 425 302 b 630 503 548 302 630 349 b 421 696 630 640 549 696 "},"Q":{"ha":855,"x_min":0,"x_max":0,"o":"m 800 491 b 595 45 800 288 748 127 b 866 -190 739 19 816 -41 l 713 -246 b 413 -16 652 -96 583 -16 b 58 490 179 -16 58 181 b 429 1003 58 793 182 1003 b 800 491 675 1003 800 801 m 628 491 b 429 873 628 745 574 873 b 229 490 283 873 229 744 b 429 110 229 236 287 110 b 628 491 574 110 628 238 "},"R":{"ha":855,"x_min":0,"x_max":0,"o":"m 778 699 b 555 428 778 553 680 465 l 833 0 l 641 0 l 394 405 l 286 405 l 286 0 l 121 0 l 121 983 l 395 983 b 778 699 647 983 778 889 m 605 699 b 405 860 605 813 540 860 l 286 860 l 286 526 l 408 526 b 605 699 534 526 605 575 "},"Ŕ":{"ha":855,"x_min":0,"x_max":0,"o":"m 608 1189 l 291 1074 l 251 1157 l 543 1316 m 778 699 b 555 428 778 553 680 465 l 833 0 l 641 0 l 394 405 l 286 405 l 286 0 l 121 0 l 121 983 l 395 983 b 778 699 647 983 778 889 m 605 699 b 405 860 605 813 540 860 l 286 860 l 286 526 l 408 526 b 605 699 534 526 605 575 "},"Ř":{"ha":855,"x_min":0,"x_max":0,"o":"m 674 1239 l 479 1073 l 377 1073 l 180 1239 l 245 1311 l 427 1194 l 611 1311 m 778 699 b 555 428 778 553 680 465 l 833 0 l 641 0 l 394 405 l 286 405 l 286 0 l 121 0 l 121 983 l 395 983 b 778 699 647 983 778 889 m 605 699 b 405 860 605 813 540 860 l 286 860 l 286 526 l 408 526 b 605 699 534 526 605 575 "},"Ŗ":{"ha":855,"x_min":0,"x_max":0,"o":"m 778 699 b 555 428 778 553 680 465 l 833 0 l 641 0 l 394 405 l 286 405 l 286 0 l 121 0 l 121 983 l 395 983 b 778 699 647 983 778 889 m 605 699 b 405 860 605 813 540 860 l 286 860 l 286 526 l 408 526 b 605 699 534 526 605 575 m 435 -98 b 526 -187 486 -98 526 -135 b 499 -280 526 -215 516 -243 l 429 -427 l 340 -427 l 381 -261 b 344 -187 359 -244 344 -218 b 435 -98 344 -137 384 -98 "},"S":{"ha":855,"x_min":0,"x_max":0,"o":"m 781 278 b 407 -19 781 103 643 -19 b 45 113 246 -19 127 32 l 135 214 b 406 111 205 150 291 111 b 610 270 516 111 610 164 b 408 444 610 356 565 397 b 91 737 200 506 91 583 b 429 1003 91 897 235 1003 b 758 885 571 1003 675 960 l 671 786 b 439 873 602 846 521 873 b 261 746 338 873 261 831 b 491 582 261 670 315 635 b 781 278 657 533 781 463 "},"Ś":{"ha":855,"x_min":0,"x_max":0,"o":"m 618 1189 l 301 1074 l 261 1157 l 553 1316 m 781 278 b 407 -19 781 103 643 -19 b 45 113 246 -19 127 32 l 135 214 b 406 111 205 150 291 111 b 610 270 516 111 610 164 b 408 444 610 356 565 397 b 91 737 200 506 91 583 b 429 1003 91 897 235 1003 b 758 885 571 1003 675 960 l 671 786 b 439 873 602 846 521 873 b 261 746 338 873 261 831 b 491 582 261 670 315 635 b 781 278 657 533 781 463 "},"Š":{"ha":855,"x_min":0,"x_max":0,"o":"m 684 1239 l 489 1073 l 387 1073 l 190 1239 l 255 1311 l 437 1194 l 621 1311 m 781 278 b 407 -19 781 103 643 -19 b 45 113 246 -19 127 32 l 135 214 b 406 111 205 150 291 111 b 610 270 516 111 610 164 b 408 444 610 356 565 397 b 91 737 200 506 91 583 b 429 1003 91 897 235 1003 b 758 885 571 1003 675 960 l 671 786 b 439 873 602 846 521 873 b 261 746 338 873 261 831 b 491 582 261 670 315 635 b 781 278 657 533 781 463 "},"Ş":{"ha":855,"x_min":0,"x_max":0,"o":"m 781 278 b 458 -17 781 116 663 -1 l 458 -76 b 596 -204 554 -85 596 -140 b 407 -353 596 -298 514 -353 b 251 -314 346 -353 289 -336 l 296 -232 b 390 -256 323 -246 358 -256 b 471 -202 438 -256 471 -241 b 345 -147 471 -157 425 -147 l 356 -18 b 45 113 221 -8 118 41 l 135 214 b 406 111 205 150 291 111 b 610 270 516 111 610 164 b 408 444 610 356 565 397 b 91 737 200 506 91 583 b 429 1003 91 897 235 1003 b 758 885 571 1003 675 960 l 671 786 b 439 873 602 846 521 873 b 261 746 338 873 261 831 b 491 582 261 670 315 635 b 781 278 657 533 781 463 "},"Ŝ":{"ha":855,"x_min":0,"x_max":0,"o":"m 684 1149 l 621 1077 l 437 1194 l 255 1077 l 190 1149 l 387 1315 l 489 1315 m 781 278 b 407 -19 781 103 643 -19 b 45 113 246 -19 127 32 l 135 214 b 406 111 205 150 291 111 b 610 270 516 111 610 164 b 408 444 610 356 565 397 b 91 737 200 506 91 583 b 429 1003 91 897 235 1003 b 758 885 571 1003 675 960 l 671 786 b 439 873 602 846 521 873 b 261 746 338 873 261 831 b 491 582 261 670 315 635 b 781 278 657 533 781 463 "},"Ș":{"ha":855,"x_min":0,"x_max":0,"o":"m 781 278 b 407 -19 781 103 643 -19 b 45 113 246 -19 127 32 l 135 214 b 406 111 205 150 291 111 b 610 270 516 111 610 164 b 408 444 610 356 565 397 b 91 737 200 506 91 583 b 429 1003 91 897 235 1003 b 758 885 571 1003 675 960 l 671 786 b 439 873 602 846 521 873 b 261 746 338 873 261 831 b 491 582 261 670 315 635 b 781 278 657 533 781 463 m 428 -98 b 519 -187 479 -98 519 -135 b 492 -280 519 -215 509 -243 l 422 -427 l 333 -427 l 374 -261 b 337 -187 352 -244 337 -218 b 428 -98 337 -137 377 -98 "},"ẞ":{"ha":854,"x_min":0,"x_max":0,"o":"m 406 1012 b 778 913 554 1012 670 969 l 778 829 l 540 564 b 843 283 730 540 843 454 b 521 -10 843 94 706 -10 b 346 26 447 -10 387 4 l 395 136 b 504 116 423 125 456 116 b 672 285 605 116 672 170 b 395 477 672 408 583 466 l 395 575 l 628 842 b 415 888 563 868 495 888 b 245 707 304 888 245 833 l 245 10 l 83 10 l 83 706 b 406 1012 83 898 197 1012 "},"T":{"ha":855,"x_min":0,"x_max":0,"o":"m 508 0 l 343 0 l 343 850 l 48 850 l 48 983 l 810 983 l 793 850 l 508 850 "},"Ŧ":{"ha":855,"x_min":0,"x_max":0,"o":"m 508 850 l 508 588 l 688 588 l 688 479 l 508 479 l 508 0 l 343 0 l 343 479 l 165 479 l 165 588 l 343 588 l 343 850 l 48 850 l 48 983 l 810 983 l 793 850 "},"Ť":{"ha":855,"x_min":0,"x_max":0,"o":"m 672 1239 l 478 1073 l 375 1073 l 179 1239 l 244 1311 l 426 1194 l 610 1311 m 508 0 l 343 0 l 343 850 l 48 850 l 48 983 l 810 983 l 793 850 l 508 850 "},"Ţ":{"ha":855,"x_min":0,"x_max":0,"o":"m 477 0 l 477 -76 b 615 -204 573 -85 615 -140 b 427 -353 615 -298 533 -353 b 271 -314 365 -353 308 -336 l 315 -232 b 409 -256 342 -246 377 -256 b 490 -202 457 -256 490 -241 b 364 -147 490 -157 444 -147 l 377 0 l 343 0 l 343 850 l 48 850 l 48 983 l 810 983 l 793 850 l 508 850 l 508 0 "},"Ț":{"ha":855,"x_min":0,"x_max":0,"o":"m 508 0 l 343 0 l 343 850 l 48 850 l 48 983 l 810 983 l 793 850 l 508 850 m 429 -98 b 520 -187 480 -98 520 -135 b 494 -280 520 -215 511 -243 l 423 -427 l 335 -427 l 375 -261 b 338 -187 353 -244 338 -218 b 429 -98 338 -137 378 -98 "},"U":{"ha":855,"x_min":0,"x_max":0,"o":"m 768 323 b 427 -19 768 123 642 -19 b 87 323 208 -19 87 120 l 87 983 l 252 983 l 252 353 b 427 113 252 193 305 113 b 602 353 549 113 602 193 l 602 983 l 768 983 "},"Ú":{"ha":855,"x_min":0,"x_max":0,"o":"m 608 1189 l 291 1074 l 251 1157 l 543 1316 m 768 323 b 427 -19 768 123 642 -19 b 87 323 208 -19 87 120 l 87 983 l 252 983 l 252 353 b 427 113 252 193 305 113 b 602 353 549 113 602 193 l 602 983 l 768 983 "},"Ŭ":{"ha":855,"x_min":0,"x_max":0,"o":"m 426 1077 b 202 1266 298 1077 214 1155 l 301 1285 b 426 1194 320 1227 359 1194 b 553 1285 492 1194 534 1227 l 652 1266 b 426 1077 640 1155 553 1077 m 768 323 b 427 -19 768 123 642 -19 b 87 323 208 -19 87 120 l 87 983 l 252 983 l 252 353 b 427 113 252 193 305 113 b 602 353 549 113 602 193 l 602 983 l 768 983 "},"Û":{"ha":855,"x_min":0,"x_max":0,"o":"m 674 1149 l 611 1077 l 427 1194 l 245 1077 l 180 1149 l 377 1315 l 479 1315 m 768 323 b 427 -19 768 123 642 -19 b 87 323 208 -19 87 120 l 87 983 l 252 983 l 252 353 b 427 113 252 193 305 113 b 602 353 549 113 602 193 l 602 983 l 768 983 "},"Ü":{"ha":855,"x_min":0,"x_max":0,"o":"m 274 1091 b 180 1181 221 1091 180 1130 b 274 1272 180 1233 221 1272 b 365 1181 325 1272 365 1233 b 274 1091 365 1130 325 1091 m 580 1091 b 489 1181 530 1091 489 1130 b 580 1272 489 1233 530 1272 b 674 1181 633 1272 674 1233 b 580 1091 674 1130 633 1091 m 768 323 b 427 -19 768 123 642 -19 b 87 323 208 -19 87 120 l 87 983 l 252 983 l 252 353 b 427 113 252 193 305 113 b 602 353 549 113 602 193 l 602 983 l 768 983 "},"Ù":{"ha":855,"x_min":0,"x_max":0,"o":"m 604 1157 l 561 1074 l 251 1192 l 324 1319 m 768 323 b 427 -19 768 123 642 -19 b 87 323 208 -19 87 120 l 87 983 l 252 983 l 252 353 b 427 113 252 193 305 113 b 602 353 549 113 602 193 l 602 983 l 768 983 "},"Ű":{"ha":855,"x_min":0,"x_max":0,"o":"m 370 1375 l 493 1318 l 340 1074 l 247 1116 m 613 1375 l 734 1313 l 571 1071 l 480 1117 m 768 323 b 427 -19 768 123 642 -19 b 87 323 208 -19 87 120 l 87 983 l 252 983 l 252 353 b 427 113 252 193 305 113 b 602 353 549 113 602 193 l 602 983 l 768 983 "},"Ū":{"ha":855,"x_min":0,"x_max":0,"o":"m 226 1126 l 226 1242 l 628 1242 l 628 1126 m 768 323 b 427 -19 768 123 642 -19 b 87 323 208 -19 87 120 l 87 983 l 252 983 l 252 353 b 427 113 252 193 305 113 b 602 353 549 113 602 193 l 602 983 l 768 983 "},"Ų":{"ha":855,"x_min":0,"x_max":0,"o":"m 768 983 l 768 323 b 541 -4 768 161 686 37 b 379 -161 408 -60 379 -109 b 459 -229 379 -204 404 -229 b 543 -219 489 -229 512 -226 l 529 -329 b 442 -340 502 -335 477 -340 b 252 -186 328 -340 252 -278 b 361 -15 252 -113 290 -58 b 87 323 184 11 87 141 l 87 983 l 252 983 l 252 353 b 427 113 252 193 305 113 b 602 353 549 113 602 193 l 602 983 "},"Ů":{"ha":855,"x_min":0,"x_max":0,"o":"m 427 1369 b 600 1207 531 1369 600 1296 b 427 1046 600 1119 531 1046 b 254 1207 324 1046 254 1119 b 427 1369 254 1296 324 1369 m 427 1284 b 355 1207 385 1284 355 1256 b 427 1130 355 1157 385 1130 b 499 1207 472 1130 499 1157 b 427 1284 499 1256 472 1284 m 768 323 b 427 -19 768 123 642 -19 b 87 323 208 -19 87 120 l 87 983 l 252 983 l 252 353 b 427 113 252 193 305 113 b 602 353 549 113 602 193 l 602 983 l 768 983 "},"Ũ":{"ha":855,"x_min":0,"x_max":0,"o":"m 509 1098 b 345 1165 432 1098 395 1165 b 269 1100 311 1165 292 1143 l 179 1146 b 344 1283 213 1222 268 1283 b 509 1217 425 1283 457 1217 b 584 1279 538 1217 559 1237 l 674 1234 b 509 1098 637 1149 580 1098 m 768 323 b 427 -19 768 123 642 -19 b 87 323 208 -19 87 120 l 87 983 l 252 983 l 252 353 b 427 113 252 193 305 113 b 602 353 549 113 602 193 l 602 983 l 768 983 "},"V":{"ha":855,"x_min":0,"x_max":0,"o":"m 666 983 l 833 983 l 522 0 l 333 0 l 21 983 l 198 983 l 431 157 "},"W":{"ha":855,"x_min":0,"x_max":0,"o":"m 716 0 l 523 0 l 426 727 l 325 0 l 128 0 l 3 983 l 162 983 l 240 160 l 344 869 l 514 869 l 613 160 l 704 983 l 852 983 "},"Ẃ":{"ha":855,"x_min":0,"x_max":0,"o":"m 608 1189 l 291 1074 l 251 1157 l 543 1316 m 716 0 l 523 0 l 426 727 l 325 0 l 128 0 l 3 983 l 162 983 l 240 160 l 344 869 l 514 869 l 613 160 l 704 983 l 852 983 "},"Ŵ":{"ha":855,"x_min":0,"x_max":0,"o":"m 674 1149 l 611 1077 l 427 1194 l 245 1077 l 180 1149 l 377 1315 l 479 1315 m 716 0 l 523 0 l 426 727 l 325 0 l 128 0 l 3 983 l 162 983 l 240 160 l 344 869 l 514 869 l 613 160 l 704 983 l 852 983 "},"Ẅ":{"ha":855,"x_min":0,"x_max":0,"o":"m 274 1091 b 180 1181 221 1091 180 1130 b 274 1272 180 1233 221 1272 b 365 1181 325 1272 365 1233 b 274 1091 365 1130 325 1091 m 580 1091 b 489 1181 530 1091 489 1130 b 580 1272 489 1233 530 1272 b 674 1181 633 1272 674 1233 b 580 1091 674 1130 633 1091 m 716 0 l 523 0 l 426 727 l 325 0 l 128 0 l 3 983 l 162 983 l 240 160 l 344 869 l 514 869 l 613 160 l 704 983 l 852 983 "},"Ẁ":{"ha":855,"x_min":0,"x_max":0,"o":"m 604 1157 l 561 1074 l 251 1192 l 324 1319 m 716 0 l 523 0 l 426 727 l 325 0 l 128 0 l 3 983 l 162 983 l 240 160 l 344 869 l 514 869 l 613 160 l 704 983 l 852 983 "},"X":{"ha":855,"x_min":0,"x_max":0,"o":"m 237 983 l 427 629 l 620 983 l 796 983 l 524 531 l 825 0 l 642 0 l 425 418 l 206 0 l 29 0 l 327 524 l 54 983 "},"Y":{"ha":855,"x_min":0,"x_max":0,"o":"m 511 0 l 344 0 l 344 374 l 16 983 l 198 983 l 431 517 l 665 983 l 838 983 l 511 375 "},"Ý":{"ha":855,"x_min":0,"x_max":0,"o":"m 611 1189 l 294 1074 l 254 1157 l 546 1316 m 511 0 l 344 0 l 344 374 l 16 983 l 198 983 l 431 517 l 665 983 l 838 983 l 511 375 "},"Ŷ":{"ha":855,"x_min":0,"x_max":0,"o":"m 677 1149 l 614 1077 l 430 1194 l 248 1077 l 183 1149 l 380 1315 l 482 1315 m 511 0 l 344 0 l 344 374 l 16 983 l 198 983 l 431 517 l 665 983 l 838 983 l 511 375 "},"Ÿ":{"ha":855,"x_min":0,"x_max":0,"o":"m 276 1091 b 183 1181 224 1091 183 1130 b 276 1272 183 1233 224 1272 b 368 1181 328 1272 368 1233 b 276 1091 368 1130 328 1091 m 583 1091 b 491 1181 533 1091 491 1130 b 583 1272 491 1233 533 1272 b 677 1181 636 1272 677 1233 b 583 1091 677 1130 636 1091 m 511 0 l 344 0 l 344 374 l 16 983 l 198 983 l 431 517 l 665 983 l 838 983 l 511 375 "},"Ỳ":{"ha":855,"x_min":0,"x_max":0,"o":"m 607 1157 l 563 1074 l 254 1192 l 327 1319 m 511 0 l 344 0 l 344 374 l 16 983 l 198 983 l 431 517 l 665 983 l 838 983 l 511 375 "},"Z":{"ha":855,"x_min":0,"x_max":0,"o":"m 770 137 l 751 0 l 84 0 l 84 128 l 584 849 l 135 849 l 135 983 l 766 983 l 766 853 l 273 137 "},"Ź":{"ha":855,"x_min":0,"x_max":0,"o":"m 631 1189 l 314 1074 l 274 1157 l 566 1316 m 770 137 l 751 0 l 84 0 l 84 128 l 584 849 l 135 849 l 135 983 l 766 983 l 766 853 l 273 137 "},"Ž":{"ha":855,"x_min":0,"x_max":0,"o":"m 697 1239 l 503 1073 l 400 1073 l 204 1239 l 269 1311 l 451 1194 l 635 1311 m 770 137 l 751 0 l 84 0 l 84 128 l 584 849 l 135 849 l 135 983 l 766 983 l 766 853 l 273 137 "},"Ż":{"ha":855,"x_min":0,"x_max":0,"o":"m 449 1294 b 554 1194 511 1294 554 1251 b 449 1093 554 1137 511 1093 b 345 1194 387 1093 345 1137 b 449 1294 345 1251 387 1294 m 770 137 l 751 0 l 84 0 l 84 128 l 584 849 l 135 849 l 135 983 l 766 983 l 766 853 l 273 137 "},"a":{"ha":855,"x_min":0,"x_max":0,"o":"m 702 184 b 759 90 702 125 719 103 l 723 -19 b 567 85 649 -10 594 20 b 327 -19 512 16 423 -19 b 80 214 175 -19 80 75 b 437 462 80 373 208 462 l 545 462 l 545 511 b 377 647 545 608 484 647 b 177 608 328 647 254 635 l 138 721 b 402 772 232 756 325 772 b 702 520 603 772 702 678 l 702 184 m 375 98 b 545 196 439 98 506 134 l 545 362 l 457 362 b 247 222 306 362 247 309 b 375 98 247 141 291 98 "},"á":{"ha":855,"x_min":0,"x_max":0,"o":"m 599 1028 l 287 902 l 240 985 l 532 1156 m 702 184 b 759 90 702 125 719 103 l 723 -19 b 567 85 649 -10 594 20 b 327 -19 512 16 423 -19 b 80 214 175 -19 80 75 b 437 462 80 373 208 462 l 545 462 l 545 511 b 377 647 545 608 484 647 b 177 608 328 647 254 635 l 138 721 b 402 772 232 756 325 772 b 702 520 603 772 702 678 l 702 184 m 375 98 b 545 196 439 98 506 134 l 545 362 l 457 362 b 247 222 306 362 247 309 b 375 98 247 141 291 98 "},"ă":{"ha":855,"x_min":0,"x_max":0,"o":"m 415 887 b 192 1102 275 887 203 1000 l 290 1121 b 415 1003 308 1051 348 1003 b 543 1121 482 1003 524 1051 l 641 1102 b 415 887 630 1000 556 887 m 702 184 b 759 90 702 125 719 103 l 723 -19 b 567 85 649 -10 594 20 b 327 -19 512 16 423 -19 b 80 214 175 -19 80 75 b 437 462 80 373 208 462 l 545 462 l 545 511 b 377 647 545 608 484 647 b 177 608 328 647 254 635 l 138 721 b 402 772 232 756 325 772 b 702 520 603 772 702 678 l 702 184 m 375 98 b 545 196 439 98 506 134 l 545 362 l 457 362 b 247 222 306 362 247 309 b 375 98 247 141 291 98 "},"â":{"ha":855,"x_min":0,"x_max":0,"o":"m 170 958 l 366 1138 l 469 1138 l 663 958 l 599 887 l 417 1017 l 236 887 m 702 184 b 759 90 702 125 719 103 l 723 -19 b 567 85 649 -10 594 20 b 327 -19 512 16 423 -19 b 80 214 175 -19 80 75 b 437 462 80 373 208 462 l 545 462 l 545 511 b 377 647 545 608 484 647 b 177 608 328 647 254 635 l 138 721 b 402 772 232 756 325 772 b 702 520 603 772 702 678 l 702 184 m 375 98 b 545 196 439 98 506 134 l 545 362 l 457 362 b 247 222 306 362 247 309 b 375 98 247 141 291 98 "},"ä":{"ha":855,"x_min":0,"x_max":0,"o":"m 263 917 b 170 1008 210 917 170 957 b 263 1098 170 1060 210 1098 b 355 1008 314 1098 355 1060 b 263 917 355 957 314 917 m 570 917 b 478 1008 519 917 478 957 b 570 1098 478 1060 519 1098 b 663 1008 623 1098 663 1060 b 570 917 663 957 623 917 m 702 184 b 759 90 702 125 719 103 l 723 -19 b 567 85 649 -10 594 20 b 327 -19 512 16 423 -19 b 80 214 175 -19 80 75 b 437 462 80 373 208 462 l 545 462 l 545 511 b 377 647 545 608 484 647 b 177 608 328 647 254 635 l 138 721 b 402 772 232 756 325 772 b 702 520 603 772 702 678 l 702 184 m 375 98 b 545 196 439 98 506 134 l 545 362 l 457 362 b 247 222 306 362 247 309 b 375 98 247 141 291 98 "},"à":{"ha":855,"x_min":0,"x_max":0,"o":"m 240 1019 l 313 1147 l 594 970 l 546 886 m 702 184 b 759 90 702 125 719 103 l 723 -19 b 567 85 649 -10 594 20 b 327 -19 512 16 423 -19 b 80 214 175 -19 80 75 b 437 462 80 373 208 462 l 545 462 l 545 511 b 377 647 545 608 484 647 b 177 608 328 647 254 635 l 138 721 b 402 772 232 756 325 772 b 702 520 603 772 702 678 l 702 184 m 375 98 b 545 196 439 98 506 134 l 545 362 l 457 362 b 247 222 306 362 247 309 b 375 98 247 141 291 98 "},"ā":{"ha":855,"x_min":0,"x_max":0,"o":"m 215 953 l 215 1069 l 618 1069 l 618 953 m 702 184 b 759 90 702 125 719 103 l 723 -19 b 567 85 649 -10 594 20 b 327 -19 512 16 423 -19 b 80 214 175 -19 80 75 b 437 462 80 373 208 462 l 545 462 l 545 511 b 377 647 545 608 484 647 b 177 608 328 647 254 635 l 138 721 b 402 772 232 756 325 772 b 702 520 603 772 702 678 l 702 184 m 375 98 b 545 196 439 98 506 134 l 545 362 l 457 362 b 247 222 306 362 247 309 b 375 98 247 141 291 98 "},"ą":{"ha":855,"x_min":0,"x_max":0,"o":"m 723 -19 l 722 -19 l 722 -19 b 551 -179 581 -76 551 -126 b 631 -248 551 -223 575 -248 b 715 -238 661 -248 684 -245 l 701 -348 b 613 -358 674 -354 649 -358 b 424 -204 500 -358 424 -296 b 627 12 424 -103 496 -38 b 567 85 601 28 580 53 b 327 -19 512 16 423 -19 b 80 214 175 -19 80 75 b 437 462 80 373 208 462 l 545 462 l 545 511 b 377 647 545 608 484 647 b 177 608 328 647 254 635 l 138 721 b 402 772 232 756 325 772 b 702 520 603 772 702 678 l 702 184 b 759 90 702 125 719 103 m 545 362 l 457 362 b 247 222 306 362 247 309 b 375 98 247 141 291 98 b 545 196 439 98 506 134 "},"å":{"ha":855,"x_min":0,"x_max":0,"o":"m 416 1195 b 590 1033 520 1195 590 1123 b 416 873 590 945 520 873 b 244 1033 313 873 244 945 b 416 1195 244 1123 313 1195 m 416 1110 b 345 1033 373 1110 345 1083 b 416 957 345 984 373 957 b 489 1033 461 957 489 984 b 416 1110 489 1083 461 1110 m 702 184 b 759 90 702 125 719 103 l 723 -19 b 567 85 649 -10 594 20 b 327 -19 512 16 423 -19 b 80 214 175 -19 80 75 b 437 462 80 373 208 462 l 545 462 l 545 511 b 377 647 545 608 484 647 b 177 608 328 647 254 635 l 138 721 b 402 772 232 756 325 772 b 702 520 603 772 702 678 l 702 184 m 375 98 b 545 196 439 98 506 134 l 545 362 l 457 362 b 247 222 306 362 247 309 b 375 98 247 141 291 98 "},"ã":{"ha":855,"x_min":0,"x_max":0,"o":"m 499 925 b 334 992 421 925 384 992 b 259 927 301 992 281 970 l 169 972 b 333 1110 202 1048 257 1110 b 498 1043 415 1110 447 1043 b 573 1105 527 1043 548 1063 l 663 1061 b 499 925 626 976 569 925 m 702 184 b 759 90 702 125 719 103 l 723 -19 b 567 85 649 -10 594 20 b 327 -19 512 16 423 -19 b 80 214 175 -19 80 75 b 437 462 80 373 208 462 l 545 462 l 545 511 b 377 647 545 608 484 647 b 177 608 328 647 254 635 l 138 721 b 402 772 232 756 325 772 b 702 520 603 772 702 678 l 702 184 m 375 98 b 545 196 439 98 506 134 l 545 362 l 457 362 b 247 222 306 362 247 309 b 375 98 247 141 291 98 "},"æ":{"ha":855,"x_min":0,"x_max":0,"o":"m 615 772 b 860 396 788 772 860 632 b 858 328 860 370 860 348 l 489 328 b 641 99 502 171 548 99 b 776 152 693 99 731 118 l 843 58 b 635 -19 786 12 722 -19 b 413 111 533 -19 464 25 b 207 -19 355 19 303 -19 b -9 216 74 -19 -9 75 b 291 460 -9 373 92 460 l 353 460 l 353 511 b 224 657 353 613 306 657 b 81 620 175 657 141 647 l 42 723 b 239 772 109 754 173 772 b 432 656 347 772 401 726 b 615 772 463 727 525 772 m 610 657 b 489 432 535 657 499 600 l 724 432 b 610 657 722 581 696 657 m 303 363 b 142 224 183 363 142 308 b 233 94 142 140 177 94 b 365 210 288 94 326 134 b 353 363 357 258 353 310 "},"ǽ":{"ha":855,"x_min":0,"x_max":0,"o":"m 618 1028 l 306 902 l 259 985 l 551 1156 m 615 772 b 860 396 788 772 860 632 b 858 328 860 370 860 348 l 489 328 b 641 99 502 171 548 99 b 776 152 693 99 731 118 l 843 58 b 635 -19 786 12 722 -19 b 413 111 533 -19 464 25 b 207 -19 355 19 303 -19 b -9 216 74 -19 -9 75 b 291 460 -9 373 92 460 l 353 460 l 353 511 b 224 657 353 613 306 657 b 81 620 175 657 141 647 l 42 723 b 239 772 109 754 173 772 b 432 656 347 772 401 726 b 615 772 463 727 525 772 m 610 657 b 489 432 535 657 499 600 l 724 432 b 610 657 722 581 696 657 m 303 363 b 142 224 183 363 142 308 b 233 94 142 140 177 94 b 365 210 288 94 326 134 b 353 363 357 258 353 310 "},"b":{"ha":855,"x_min":0,"x_max":0,"o":"m 286 662 b 493 772 338 731 410 772 b 773 377 691 772 773 617 b 474 -19 773 147 668 -19 b 276 74 391 -19 324 11 l 267 0 l 127 0 l 127 1054 l 286 1072 l 286 662 m 434 103 b 604 377 541 103 604 188 b 449 649 604 570 548 649 b 286 541 378 649 324 599 l 286 189 b 434 103 321 135 373 103 "},"c":{"ha":855,"x_min":0,"x_max":0,"o":"m 489 112 b 675 177 560 112 620 139 l 749 75 b 484 -19 682 19 584 -19 b 118 373 253 -19 118 137 b 487 772 118 602 255 772 b 748 682 590 772 675 741 l 675 581 b 490 644 615 622 554 644 b 288 373 370 644 288 560 b 489 112 288 184 373 112 "},"ć":{"ha":855,"x_min":0,"x_max":0,"o":"m 672 1014 l 360 888 l 313 971 l 605 1142 m 489 112 b 675 177 560 112 620 139 l 749 75 b 484 -19 682 19 584 -19 b 118 373 253 -19 118 137 b 487 772 118 602 255 772 b 748 682 590 772 675 741 l 675 581 b 490 644 615 622 554 644 b 288 373 370 644 288 560 b 489 112 288 184 373 112 "},"č":{"ha":855,"x_min":0,"x_max":0,"o":"m 736 1053 l 542 873 l 439 873 l 243 1053 l 310 1124 l 491 993 l 672 1124 m 489 112 b 675 177 560 112 620 139 l 749 75 b 484 -19 682 19 584 -19 b 118 373 253 -19 118 137 b 487 772 118 602 255 772 b 748 682 590 772 675 741 l 675 581 b 490 644 615 622 554 644 b 288 373 370 644 288 560 b 489 112 288 184 373 112 "},"ç":{"ha":855,"x_min":0,"x_max":0,"o":"m 516 -76 b 655 -204 613 -85 655 -140 b 466 -353 655 -298 572 -353 b 310 -314 405 -353 348 -336 l 354 -232 b 448 -256 381 -246 417 -256 b 529 -202 496 -256 529 -241 b 403 -147 529 -157 483 -147 l 415 -14 b 118 373 226 14 118 162 b 487 772 118 602 255 772 b 748 682 590 772 675 741 l 675 581 b 490 644 615 622 554 644 b 288 373 370 644 288 560 b 489 112 288 184 373 112 b 675 177 560 112 620 139 l 749 75 b 516 -18 689 24 605 -11 l 516 -76 "},"ĉ":{"ha":855,"x_min":0,"x_max":0,"o":"m 243 944 l 439 1124 l 542 1124 l 736 944 l 672 873 l 491 1003 l 310 873 m 489 112 b 675 177 560 112 620 139 l 749 75 b 484 -19 682 19 584 -19 b 118 373 253 -19 118 137 b 487 772 118 602 255 772 b 748 682 590 772 675 741 l 675 581 b 490 644 615 622 554 644 b 288 373 370 644 288 560 b 489 112 288 184 373 112 "},"ċ":{"ha":855,"x_min":0,"x_max":0,"o":"m 489 1106 b 594 1006 551 1106 594 1063 b 489 905 594 949 551 905 b 385 1006 427 905 385 949 b 489 1106 385 1063 427 1106 m 489 112 b 675 177 560 112 620 139 l 749 75 b 484 -19 682 19 584 -19 b 118 373 253 -19 118 137 b 487 772 118 602 255 772 b 748 682 590 772 675 741 l 675 581 b 490 644 615 622 554 644 b 288 373 370 644 288 560 b 489 112 288 184 373 112 "},"d":{"ha":855,"x_min":0,"x_max":0,"o":"m 728 1054 l 728 0 l 588 0 l 576 93 b 365 -19 526 21 453 -19 b 82 376 172 -19 82 140 b 379 772 82 605 193 772 b 568 690 458 772 520 744 l 568 1072 m 421 650 b 251 376 313 650 251 563 b 407 103 251 184 308 103 b 568 210 479 103 531 151 l 568 566 b 421 650 531 619 481 650 "},"ð":{"ha":855,"x_min":0,"x_max":0,"o":"m 321 913 b 168 958 277 932 227 946 l 202 1072 b 412 1009 283 1056 353 1036 l 514 1115 l 602 1038 l 519 952 b 771 382 694 835 771 649 b 420 -19 771 145 638 -19 b 80 334 231 -19 80 109 b 385 686 80 545 222 686 b 597 598 477 686 543 655 b 425 856 568 709 506 796 l 325 754 l 218 806 m 610 375 b 607 472 610 410 609 440 b 417 566 563 533 495 566 b 244 339 321 566 244 496 b 420 103 244 181 316 103 b 610 375 540 103 610 194 "},"ď":{"ha":855,"x_min":0,"x_max":0,"o":"m 917 1056 l 828 774 l 733 788 l 774 1073 m 682 1054 l 682 0 l 541 0 l 530 93 b 318 -19 479 21 407 -19 b 36 376 125 -19 36 140 b 333 772 36 605 147 772 b 522 690 412 772 474 744 l 522 1072 m 375 650 b 204 376 267 650 204 563 b 360 103 204 184 261 103 b 522 210 432 103 484 151 l 522 566 b 375 650 485 619 435 650 "},"đ":{"ha":855,"x_min":0,"x_max":0,"o":"m 833 849 l 720 849 l 720 0 l 579 0 l 568 93 b 357 -19 517 21 445 -19 b 74 376 164 -19 74 140 b 371 772 74 605 185 772 b 561 690 449 772 512 744 l 561 849 l 343 849 l 343 958 l 561 958 l 561 1072 l 720 1054 l 720 958 l 833 958 m 561 566 b 413 650 524 619 474 650 b 243 376 306 650 243 563 b 399 103 243 184 300 103 b 561 210 471 103 523 151 "},"e":{"ha":855,"x_min":0,"x_max":0,"o":"m 259 325 b 464 105 269 170 355 105 b 662 170 538 105 598 128 l 731 75 b 457 -19 661 18 563 -19 b 94 375 222 -19 94 142 b 437 772 94 601 224 772 b 761 396 637 772 761 630 b 758 325 761 370 760 344 l 259 325 m 439 654 b 259 434 338 654 269 584 l 607 434 b 439 654 604 575 545 654 "},"é":{"ha":855,"x_min":0,"x_max":0,"o":"m 623 1028 l 311 902 l 264 985 l 556 1156 m 259 325 b 464 105 269 170 355 105 b 662 170 538 105 598 128 l 731 75 b 457 -19 661 18 563 -19 b 94 375 222 -19 94 142 b 437 772 94 601 224 772 b 761 396 637 772 761 630 b 758 325 761 370 760 344 l 259 325 m 439 654 b 259 434 338 654 269 584 l 607 434 b 439 654 604 575 545 654 "},"ĕ":{"ha":855,"x_min":0,"x_max":0,"o":"m 438 887 b 215 1102 298 887 226 1000 l 313 1121 b 438 1003 332 1051 372 1003 b 566 1121 506 1003 547 1051 l 665 1102 b 438 887 653 1000 579 887 m 259 325 b 464 105 269 170 355 105 b 662 170 538 105 598 128 l 731 75 b 457 -19 661 18 563 -19 b 94 375 222 -19 94 142 b 437 772 94 601 224 772 b 761 396 637 772 761 630 b 758 325 761 370 760 344 l 259 325 m 439 654 b 259 434 338 654 269 584 l 607 434 b 439 654 604 575 545 654 "},"ě":{"ha":855,"x_min":0,"x_max":0,"o":"m 687 1067 l 492 887 l 390 887 l 193 1067 l 260 1138 l 441 1007 l 623 1138 m 259 325 b 464 105 269 170 355 105 b 662 170 538 105 598 128 l 731 75 b 457 -19 661 18 563 -19 b 94 375 222 -19 94 142 b 437 772 94 601 224 772 b 761 396 637 772 761 630 b 758 325 761 370 760 344 l 259 325 m 439 654 b 259 434 338 654 269 584 l 607 434 b 439 654 604 575 545 654 "},"ê":{"ha":855,"x_min":0,"x_max":0,"o":"m 193 958 l 390 1138 l 492 1138 l 687 958 l 623 887 l 441 1017 l 260 887 m 259 325 b 464 105 269 170 355 105 b 662 170 538 105 598 128 l 731 75 b 457 -19 661 18 563 -19 b 94 375 222 -19 94 142 b 437 772 94 601 224 772 b 761 396 637 772 761 630 b 758 325 761 370 760 344 l 259 325 m 439 654 b 259 434 338 654 269 584 l 607 434 b 439 654 604 575 545 654 "},"ë":{"ha":855,"x_min":0,"x_max":0,"o":"m 286 917 b 193 1008 234 917 193 957 b 286 1098 193 1060 234 1098 b 378 1008 338 1098 378 1060 b 286 917 378 957 338 917 m 593 917 b 501 1008 542 917 501 957 b 593 1098 501 1060 542 1098 b 687 1008 646 1098 687 1060 b 593 917 687 957 646 917 m 259 325 b 464 105 269 170 355 105 b 662 170 538 105 598 128 l 731 75 b 457 -19 661 18 563 -19 b 94 375 222 -19 94 142 b 437 772 94 601 224 772 b 761 396 637 772 761 630 b 758 325 761 370 760 344 l 259 325 m 439 654 b 259 434 338 654 269 584 l 607 434 b 439 654 604 575 545 654 "},"ė":{"ha":855,"x_min":0,"x_max":0,"o":"m 439 1120 b 544 1021 501 1120 544 1077 b 439 920 544 963 501 920 b 335 1021 377 920 335 963 b 439 1120 335 1077 377 1120 m 259 325 b 464 105 269 170 355 105 b 662 170 538 105 598 128 l 731 75 b 457 -19 661 18 563 -19 b 94 375 222 -19 94 142 b 437 772 94 601 224 772 b 761 396 637 772 761 630 b 758 325 761 370 760 344 l 259 325 m 439 654 b 259 434 338 654 269 584 l 607 434 b 439 654 604 575 545 654 "},"è":{"ha":855,"x_min":0,"x_max":0,"o":"m 264 1019 l 337 1147 l 618 970 l 570 886 m 259 325 b 464 105 269 170 355 105 b 662 170 538 105 598 128 l 731 75 b 457 -19 661 18 563 -19 b 94 375 222 -19 94 142 b 437 772 94 601 224 772 b 761 396 637 772 761 630 b 758 325 761 370 760 344 l 259 325 m 439 654 b 259 434 338 654 269 584 l 607 434 b 439 654 604 575 545 654 "},"ē":{"ha":855,"x_min":0,"x_max":0,"o":"m 239 953 l 239 1069 l 641 1069 l 641 953 m 259 325 b 464 105 269 170 355 105 b 662 170 538 105 598 128 l 731 75 b 457 -19 661 18 563 -19 b 94 375 222 -19 94 142 b 437 772 94 601 224 772 b 761 396 637 772 761 630 b 758 325 761 370 760 344 l 259 325 m 439 654 b 259 434 338 654 269 584 l 607 434 b 439 654 604 575 545 654 "},"ę":{"ha":855,"x_min":0,"x_max":0,"o":"m 761 396 b 758 325 761 370 760 344 l 259 325 b 464 105 269 170 355 105 b 662 170 538 105 598 128 l 731 75 b 587 0 691 42 642 16 b 416 -161 447 -58 416 -108 b 496 -229 416 -204 441 -229 b 580 -219 526 -229 549 -226 l 566 -329 b 479 -340 539 -335 514 -340 b 289 -186 365 -340 289 -278 b 412 -17 289 -113 333 -57 b 94 375 206 2 94 157 b 437 772 94 601 224 772 b 761 396 637 772 761 630 m 607 434 b 439 654 604 575 545 654 b 259 434 338 654 269 584 "},"f":{"ha":855,"x_min":0,"x_max":0,"o":"m 584 1072 b 808 1028 676 1072 746 1056 l 761 918 b 600 948 712 939 656 948 b 454 831 501 948 454 912 l 454 698 l 706 698 l 689 580 l 454 580 l 454 0 l 296 0 l 296 580 l 125 580 l 125 698 l 296 698 l 296 833 b 584 1072 296 975 410 1072 "},"g":{"ha":855,"x_min":0,"x_max":0,"o":"m 803 715 b 584 690 743 695 672 690 b 720 499 674 650 720 590 b 424 245 720 352 608 245 b 321 257 380 245 350 249 b 287 195 301 244 287 219 b 381 139 287 165 306 139 l 512 139 b 786 -71 672 139 786 49 b 410 -307 786 -221 653 -307 b 75 -75 152 -307 75 -226 l 218 -75 b 412 -191 218 -155 254 -191 b 626 -81 568 -191 626 -151 b 479 14 626 -20 568 14 l 350 14 b 145 159 208 14 145 82 b 229 295 145 209 175 259 b 99 505 138 342 99 408 b 413 771 99 664 228 771 b 760 848 594 771 671 803 m 415 662 b 261 506 313 662 261 598 b 417 349 261 412 314 349 b 562 508 511 349 562 406 b 415 662 562 610 512 662 "},"ğ":{"ha":855,"x_min":0,"x_max":0,"o":"m 420 887 b 197 1102 280 887 208 1000 l 295 1121 b 420 1003 313 1051 353 1003 b 548 1121 487 1003 528 1051 l 646 1102 b 420 887 635 1000 561 887 m 803 715 b 584 690 743 695 672 690 b 720 499 674 650 720 590 b 424 245 720 352 608 245 b 321 257 380 245 350 249 b 287 195 301 244 287 219 b 381 139 287 165 306 139 l 512 139 b 786 -71 672 139 786 49 b 410 -307 786 -221 653 -307 b 75 -75 152 -307 75 -226 l 218 -75 b 412 -191 218 -155 254 -191 b 626 -81 568 -191 626 -151 b 479 14 626 -20 568 14 l 350 14 b 145 159 208 14 145 82 b 229 295 145 209 175 259 b 99 505 138 342 99 408 b 413 771 99 664 228 771 b 760 848 594 771 671 803 m 415 662 b 261 506 313 662 261 598 b 417 349 261 412 314 349 b 562 508 511 349 562 406 b 415 662 562 610 512 662 "},"ĝ":{"ha":855,"x_min":0,"x_max":0,"o":"m 175 958 l 371 1138 l 474 1138 l 668 958 l 604 887 l 422 1017 l 241 887 m 803 715 b 584 690 743 695 672 690 b 720 499 674 650 720 590 b 424 245 720 352 608 245 b 321 257 380 245 350 249 b 287 195 301 244 287 219 b 381 139 287 165 306 139 l 512 139 b 786 -71 672 139 786 49 b 410 -307 786 -221 653 -307 b 75 -75 152 -307 75 -226 l 218 -75 b 412 -191 218 -155 254 -191 b 626 -81 568 -191 626 -151 b 479 14 626 -20 568 14 l 350 14 b 145 159 208 14 145 82 b 229 295 145 209 175 259 b 99 505 138 342 99 408 b 413 771 99 664 228 771 b 760 848 594 771 671 803 m 415 662 b 261 506 313 662 261 598 b 417 349 261 412 314 349 b 562 508 511 349 562 406 b 415 662 562 610 512 662 "},"ģ":{"ha":855,"x_min":0,"x_max":0,"o":"m 419 850 b 328 939 368 850 328 887 b 355 1032 328 967 338 995 l 425 1179 l 514 1179 l 473 1014 b 510 939 495 996 510 970 b 419 850 510 889 470 850 m 803 715 b 584 690 743 695 672 690 b 720 499 674 650 720 590 b 424 245 720 352 608 245 b 321 257 380 245 350 249 b 287 195 301 244 287 219 b 381 139 287 165 306 139 l 512 139 b 786 -71 672 139 786 49 b 410 -307 786 -221 653 -307 b 75 -75 152 -307 75 -226 l 218 -75 b 412 -191 218 -155 254 -191 b 626 -81 568 -191 626 -151 b 479 14 626 -20 568 14 l 350 14 b 145 159 208 14 145 82 b 229 295 145 209 175 259 b 99 505 138 342 99 408 b 413 771 99 664 228 771 b 760 848 594 771 671 803 m 415 662 b 261 506 313 662 261 598 b 417 349 261 412 314 349 b 562 508 511 349 562 406 b 415 662 562 610 512 662 "},"ġ":{"ha":855,"x_min":0,"x_max":0,"o":"m 421 1120 b 526 1021 483 1120 526 1077 b 421 920 526 963 483 920 b 316 1021 359 920 316 963 b 421 1120 316 1077 359 1120 m 803 715 b 584 690 743 695 672 690 b 720 499 674 650 720 590 b 424 245 720 352 608 245 b 321 257 380 245 350 249 b 287 195 301 244 287 219 b 381 139 287 165 306 139 l 512 139 b 786 -71 672 139 786 49 b 410 -307 786 -221 653 -307 b 75 -75 152 -307 75 -226 l 218 -75 b 412 -191 218 -155 254 -191 b 626 -81 568 -191 626 -151 b 479 14 626 -20 568 14 l 350 14 b 145 159 208 14 145 82 b 229 295 145 209 175 259 b 99 505 138 342 99 408 b 413 771 99 664 228 771 b 760 848 594 771 671 803 m 415 662 b 261 506 313 662 261 598 b 417 349 261 412 314 349 b 562 508 511 349 562 406 b 415 662 562 610 512 662 "},"h":{"ha":855,"x_min":0,"x_max":0,"o":"m 286 660 b 519 772 347 734 432 772 b 729 548 661 772 729 689 l 729 0 l 570 0 l 570 524 b 462 650 570 614 538 650 b 286 538 390 650 327 596 l 286 0 l 127 0 l 127 1053 l 286 1070 "},"ħ":{"ha":855,"x_min":0,"x_max":0,"o":"m 519 772 b 729 548 661 772 729 689 l 729 0 l 570 0 l 570 524 b 462 650 570 614 538 650 b 286 538 390 650 327 596 l 286 0 l 127 0 l 127 849 l 21 849 l 21 958 l 127 958 l 127 1053 l 286 1070 l 286 958 l 511 958 l 511 849 l 286 849 l 286 660 b 519 772 347 734 432 772 "},"ĥ":{"ha":855,"x_min":0,"x_max":0,"o":"m 674 1219 l 611 1147 l 427 1264 l 245 1147 l 180 1219 l 377 1385 l 479 1385 m 286 660 b 519 772 347 734 432 772 b 729 548 661 772 729 689 l 729 0 l 570 0 l 570 524 b 462 650 570 614 538 650 b 286 538 390 650 327 596 l 286 0 l 127 0 l 127 1053 l 286 1070 "},"i":{"ha":855,"x_min":0,"x_max":0,"o":"m 427 1120 b 531 1021 489 1120 531 1077 b 427 920 531 963 489 920 b 323 1021 365 920 323 963 b 427 1120 323 1077 365 1120 m 538 117 l 742 117 l 742 0 l 153 0 l 153 117 l 378 117 l 378 635 l 160 635 l 160 752 l 538 752 "},"ı":{"ha":855,"x_min":0,"x_max":0,"o":"m 538 117 l 742 117 l 742 0 l 153 0 l 153 117 l 378 117 l 378 635 l 160 635 l 160 752 l 538 752 "},"í":{"ha":855,"x_min":0,"x_max":0,"o":"m 610 1028 l 298 902 l 251 985 l 543 1156 m 538 117 l 742 117 l 742 0 l 153 0 l 153 117 l 378 117 l 378 635 l 160 635 l 160 752 l 538 752 "},"ĭ":{"ha":855,"x_min":0,"x_max":0,"o":"m 426 887 b 203 1102 286 887 214 1000 l 301 1121 b 426 1003 320 1051 360 1003 b 554 1121 494 1003 535 1051 l 652 1102 b 426 887 641 1000 567 887 m 538 117 l 742 117 l 742 0 l 153 0 l 153 117 l 378 117 l 378 635 l 160 635 l 160 752 l 538 752 "},"î":{"ha":855,"x_min":0,"x_max":0,"o":"m 181 958 l 377 1138 l 480 1138 l 675 958 l 610 887 l 429 1017 l 248 887 m 538 117 l 742 117 l 742 0 l 153 0 l 153 117 l 378 117 l 378 635 l 160 635 l 160 752 l 538 752 "},"ï":{"ha":855,"x_min":0,"x_max":0,"o":"m 274 917 b 181 1008 222 917 181 957 b 274 1098 181 1060 222 1098 b 366 1008 325 1098 366 1060 b 274 917 366 957 325 917 m 581 917 b 489 1008 530 917 489 957 b 581 1098 489 1060 530 1098 b 675 1008 634 1098 675 1060 b 581 917 675 957 634 917 m 538 117 l 742 117 l 742 0 l 153 0 l 153 117 l 378 117 l 378 635 l 160 635 l 160 752 l 538 752 "},"ì":{"ha":855,"x_min":0,"x_max":0,"o":"m 251 1019 l 325 1147 l 605 970 l 558 886 m 538 117 l 742 117 l 742 0 l 153 0 l 153 117 l 378 117 l 378 635 l 160 635 l 160 752 l 538 752 "},"ĳ":{"ha":855,"x_min":0,"x_max":0,"o":"m 261 1120 b 367 1021 323 1120 367 1077 b 261 920 367 963 323 920 b 157 1021 200 920 157 963 b 261 1120 157 1077 200 1120 m 642 1120 b 748 1021 704 1120 748 1077 b 642 920 748 963 704 920 b 538 1021 581 920 538 963 b 642 1120 538 1077 581 1120 m 736 114 b 349 -307 736 -127 576 -236 l 298 -187 b 580 103 453 -132 580 -67 l 580 637 l 338 637 l 338 117 l 450 117 l 450 0 l 62 0 l 62 117 l 182 117 l 182 637 l 69 637 l 69 752 l 736 752 "},"ī":{"ha":855,"x_min":0,"x_max":0,"o":"m 226 953 l 226 1069 l 629 1069 l 629 953 m 538 117 l 742 117 l 742 0 l 153 0 l 153 117 l 378 117 l 378 635 l 160 635 l 160 752 l 538 752 "},"į":{"ha":855,"x_min":0,"x_max":0,"o":"m 427 920 b 323 1021 365 920 323 963 b 427 1120 323 1077 365 1120 b 532 1021 489 1120 532 1077 b 427 920 532 963 489 920 m 742 117 l 742 0 l 538 0 b 366 -161 397 -58 366 -108 b 447 -229 366 -204 391 -229 b 531 -219 476 -229 499 -226 l 516 -329 b 429 -340 489 -335 464 -340 b 239 -186 316 -340 239 -278 b 374 0 239 -104 286 -46 l 153 0 l 153 117 l 378 117 l 378 635 l 160 635 l 160 752 l 538 752 l 538 117 "},"ĩ":{"ha":855,"x_min":0,"x_max":0,"o":"m 510 925 b 345 992 432 925 395 992 b 270 927 312 992 293 970 l 180 972 b 344 1110 214 1048 269 1110 b 509 1043 426 1110 458 1043 b 585 1105 538 1043 559 1063 l 675 1061 b 510 925 637 976 580 925 m 538 117 l 742 117 l 742 0 l 153 0 l 153 117 l 378 117 l 378 635 l 160 635 l 160 752 l 538 752 "},"j":{"ha":855,"x_min":0,"x_max":0,"o":"m 524 1120 b 629 1021 586 1120 629 1077 b 524 920 629 963 586 920 b 420 1021 462 920 420 963 b 524 1120 420 1077 462 1120 m 649 158 b 148 -307 649 -123 469 -249 l 123 -184 b 489 147 347 -142 489 -61 l 489 635 l 192 635 l 192 752 l 649 752 "},"ȷ":{"ha":855,"x_min":0,"x_max":0,"o":"m 649 158 b 148 -307 649 -123 469 -249 l 123 -184 b 489 147 347 -142 489 -61 l 489 635 l 192 635 l 192 752 l 649 752 "},"ĵ":{"ha":855,"x_min":0,"x_max":0,"o":"m 278 958 l 474 1138 l 577 1138 l 771 958 l 707 887 l 526 1017 l 345 887 m 649 158 b 148 -307 649 -123 469 -249 l 123 -184 b 489 147 347 -142 489 -61 l 489 635 l 192 635 l 192 752 l 649 752 "},"k":{"ha":855,"x_min":0,"x_max":0,"o":"m 291 0 l 132 0 l 132 1054 l 291 1072 m 485 416 l 821 0 l 626 0 l 303 412 l 603 752 l 789 752 "},"ķ":{"ha":855,"x_min":0,"x_max":0,"o":"m 291 0 l 132 0 l 132 1054 l 291 1072 m 485 416 l 821 0 l 626 0 l 303 412 l 603 752 l 789 752 m 435 -98 b 526 -187 486 -98 526 -135 b 499 -280 526 -215 516 -243 l 429 -427 l 340 -427 l 381 -261 b 344 -187 359 -244 344 -218 b 435 -98 344 -137 384 -98 "},"ĸ":{"ha":855,"x_min":0,"x_max":0,"o":"m 286 0 l 127 0 l 127 752 l 286 752 m 478 410 l 816 0 l 621 0 l 298 399 l 598 752 l 784 752 "},"l":{"ha":855,"x_min":0,"x_max":0,"o":"m 457 205 b 571 110 457 136 504 110 b 690 135 614 110 653 120 l 731 24 b 537 -19 686 1 621 -19 b 298 219 385 -19 298 72 l 298 937 l 71 937 l 71 1054 l 457 1054 "},"ĺ":{"ha":855,"x_min":0,"x_max":0,"o":"m 555 1329 l 243 1204 l 196 1286 l 488 1457 m 457 205 b 571 110 457 136 504 110 b 690 135 614 110 653 120 l 731 24 b 537 -19 686 1 621 -19 b 298 219 385 -19 298 72 l 298 937 l 71 937 l 71 1054 l 457 1054 "},"ľ":{"ha":855,"x_min":0,"x_max":0,"o":"m 706 1056 l 617 774 l 522 788 l 564 1073 m 457 205 b 571 110 457 136 504 110 b 690 135 614 110 653 120 l 731 24 b 537 -19 686 1 621 -19 b 298 219 385 -19 298 72 l 298 937 l 71 937 l 71 1054 l 457 1054 "},"ļ":{"ha":855,"x_min":0,"x_max":0,"o":"m 457 205 b 571 110 457 136 504 110 b 690 135 614 110 653 120 l 731 24 b 537 -19 686 1 621 -19 b 298 219 385 -19 298 72 l 298 937 l 71 937 l 71 1054 l 457 1054 m 514 -98 b 604 -187 564 -98 604 -135 b 578 -280 604 -215 595 -243 l 507 -427 l 419 -427 l 459 -261 b 422 -187 437 -244 422 -218 b 514 -98 422 -137 462 -98 "},"ŀ":{"ha":855,"x_min":0,"x_max":0,"o":"m 457 205 b 571 110 457 136 504 110 b 690 135 614 110 653 120 l 731 24 b 537 -19 686 1 621 -19 b 298 219 385 -19 298 72 l 298 937 l 71 937 l 71 1054 l 457 1054 m 803 645 b 907 545 865 645 907 601 b 803 444 907 487 865 444 b 698 545 741 444 698 487 b 803 645 698 601 741 645 "},"ł":{"ha":855,"x_min":0,"x_max":0,"o":"m 731 24 b 537 -19 686 1 621 -19 b 298 219 385 -19 298 72 l 298 410 l 214 359 l 152 454 l 298 542 l 298 937 l 71 937 l 71 1054 l 457 1054 l 457 640 l 572 712 l 634 615 l 457 507 l 457 205 b 571 110 457 136 504 110 b 690 135 614 110 653 120 "},"m":{"ha":855,"x_min":0,"x_max":0,"o":"m 645 772 b 796 559 731 772 796 725 l 796 0 l 654 0 l 654 537 b 603 647 654 615 649 647 b 492 573 567 647 529 627 l 492 0 l 363 0 l 363 537 b 313 647 363 615 358 647 b 202 573 275 647 239 627 l 202 0 l 59 0 l 59 752 l 179 752 l 190 671 b 351 772 233 731 279 772 b 480 676 408 772 459 748 b 645 772 522 733 573 772 "},"n":{"ha":855,"x_min":0,"x_max":0,"o":"m 127 752 l 264 752 l 276 655 b 519 772 339 731 429 772 b 729 548 660 772 729 689 l 729 0 l 570 0 l 570 469 b 462 650 570 600 553 650 b 286 540 389 650 327 597 l 286 0 l 127 0 "},"ń":{"ha":855,"x_min":0,"x_max":0,"o":"m 610 1028 l 298 902 l 251 985 l 543 1156 m 127 752 l 264 752 l 276 655 b 519 772 339 731 429 772 b 729 548 660 772 729 689 l 729 0 l 570 0 l 570 469 b 462 650 570 600 553 650 b 286 540 389 650 327 597 l 286 0 l 127 0 "},"ŉ":{"ha":855,"x_min":0,"x_max":0,"o":"m 88 1077 b 177 989 139 1077 177 1040 b 142 881 177 962 170 937 l 83 761 l -3 761 l 35 916 b -3 989 14 934 -3 958 b 88 1077 -3 1038 38 1077 m 145 752 l 283 752 l 294 655 b 537 772 358 731 447 772 b 747 548 678 772 747 689 l 747 0 l 588 0 l 588 469 b 480 650 588 600 572 650 b 304 540 407 650 345 597 l 304 0 l 145 0 "},"ň":{"ha":855,"x_min":0,"x_max":0,"o":"m 675 1067 l 480 887 l 377 887 l 181 1067 l 248 1138 l 429 1007 l 610 1138 m 127 752 l 264 752 l 276 655 b 519 772 339 731 429 772 b 729 548 660 772 729 689 l 729 0 l 570 0 l 570 469 b 462 650 570 600 553 650 b 286 540 389 650 327 597 l 286 0 l 127 0 "},"ņ":{"ha":855,"x_min":0,"x_max":0,"o":"m 127 752 l 264 752 l 276 655 b 519 772 339 731 429 772 b 729 548 660 772 729 689 l 729 0 l 570 0 l 570 469 b 462 650 570 600 553 650 b 286 540 389 650 327 597 l 286 0 l 127 0 m 432 -98 b 522 -187 482 -98 522 -135 b 496 -280 522 -215 513 -243 l 425 -427 l 337 -427 l 377 -261 b 340 -187 355 -244 340 -218 b 432 -98 340 -137 380 -98 "},"ŋ":{"ha":855,"x_min":0,"x_max":0,"o":"m 729 58 b 478 -306 729 -168 638 -237 l 420 -189 b 570 48 519 -145 570 -106 l 570 469 b 462 650 570 600 555 650 b 286 538 390 650 327 596 l 286 0 l 127 0 l 127 752 l 264 752 l 276 655 b 519 772 339 731 430 772 b 729 548 661 772 729 689 l 729 58 "},"ñ":{"ha":855,"x_min":0,"x_max":0,"o":"m 510 925 b 345 992 432 925 395 992 b 270 927 312 992 293 970 l 180 972 b 344 1110 214 1048 269 1110 b 509 1043 426 1110 458 1043 b 585 1105 538 1043 559 1063 l 675 1061 b 510 925 637 976 580 925 m 127 752 l 264 752 l 276 655 b 519 772 339 731 429 772 b 729 548 660 772 729 689 l 729 0 l 570 0 l 570 469 b 462 650 570 600 553 650 b 286 540 389 650 327 597 l 286 0 l 127 0 "},"o":{"ha":855,"x_min":0,"x_max":0,"o":"m 428 772 b 767 377 648 772 767 617 b 427 -19 767 139 645 -19 b 88 376 208 -19 88 133 b 428 772 88 610 209 772 m 428 648 b 255 376 313 648 255 563 b 427 104 255 189 312 104 b 600 377 543 104 600 189 b 428 648 600 563 543 648 "},"ó":{"ha":855,"x_min":0,"x_max":0,"o":"m 610 1028 l 298 902 l 251 985 l 543 1156 m 428 772 b 767 377 648 772 767 617 b 427 -19 767 139 645 -19 b 88 376 208 -19 88 133 b 428 772 88 610 209 772 m 428 648 b 255 376 313 648 255 563 b 427 104 255 189 312 104 b 600 377 543 104 600 189 b 428 648 600 563 543 648 "},"ŏ":{"ha":855,"x_min":0,"x_max":0,"o":"m 425 887 b 202 1102 286 887 214 1000 l 301 1121 b 425 1003 319 1051 359 1003 b 553 1121 493 1003 534 1051 l 652 1102 b 425 887 640 1000 566 887 m 428 772 b 767 377 648 772 767 617 b 427 -19 767 139 645 -19 b 88 376 208 -19 88 133 b 428 772 88 610 209 772 m 428 648 b 255 376 313 648 255 563 b 427 104 255 189 312 104 b 600 377 543 104 600 189 b 428 648 600 563 543 648 "},"ô":{"ha":855,"x_min":0,"x_max":0,"o":"m 180 958 l 377 1138 l 479 1138 l 674 958 l 610 887 l 428 1017 l 247 887 m 428 772 b 767 377 648 772 767 617 b 427 -19 767 139 645 -19 b 88 376 208 -19 88 133 b 428 772 88 610 209 772 m 428 648 b 255 376 313 648 255 563 b 427 104 255 189 312 104 b 600 377 543 104 600 189 b 428 648 600 563 543 648 "},"ö":{"ha":855,"x_min":0,"x_max":0,"o":"m 274 917 b 180 1008 221 917 180 957 b 274 1098 180 1060 221 1098 b 365 1008 325 1098 365 1060 b 274 917 365 957 325 917 m 580 917 b 489 1008 529 917 489 957 b 580 1098 489 1060 529 1098 b 674 1008 633 1098 674 1060 b 580 917 674 957 633 917 m 428 772 b 767 377 648 772 767 617 b 427 -19 767 139 645 -19 b 88 376 208 -19 88 133 b 428 772 88 610 209 772 m 428 648 b 255 376 313 648 255 563 b 427 104 255 189 312 104 b 600 377 543 104 600 189 b 428 648 600 563 543 648 "},"ò":{"ha":855,"x_min":0,"x_max":0,"o":"m 251 1019 l 324 1147 l 605 970 l 557 886 m 428 772 b 767 377 648 772 767 617 b 427 -19 767 139 645 -19 b 88 376 208 -19 88 133 b 428 772 88 610 209 772 m 428 648 b 255 376 313 648 255 563 b 427 104 255 189 312 104 b 600 377 543 104 600 189 b 428 648 600 563 543 648 "},"ő":{"ha":855,"x_min":0,"x_max":0,"o":"m 365 1202 l 489 1144 l 335 900 l 243 942 m 608 1202 l 730 1140 l 566 898 l 476 944 m 428 772 b 767 377 648 772 767 617 b 427 -19 767 139 645 -19 b 88 376 208 -19 88 133 b 428 772 88 610 209 772 m 428 648 b 255 376 313 648 255 563 b 427 104 255 189 312 104 b 600 377 543 104 600 189 b 428 648 600 563 543 648 "},"ō":{"ha":855,"x_min":0,"x_max":0,"o":"m 226 953 l 226 1069 l 628 1069 l 628 953 m 428 772 b 767 377 648 772 767 617 b 427 -19 767 139 645 -19 b 88 376 208 -19 88 133 b 428 772 88 610 209 772 m 428 648 b 255 376 313 648 255 563 b 427 104 255 189 312 104 b 600 377 543 104 600 189 b 428 648 600 563 543 648 "},"ø":{"ha":855,"x_min":0,"x_max":0,"o":"m 609 724 b 767 377 711 661 767 538 b 427 -19 767 139 645 -19 b 366 -15 406 -19 385 -18 l 313 -189 l 189 -152 l 249 26 b 88 376 145 89 88 212 b 428 772 88 610 209 772 b 488 768 449 772 469 771 l 543 937 l 667 900 l 609 724 m 428 650 b 254 376 312 650 254 564 b 309 146 254 259 271 187 l 466 647 b 428 650 454 649 442 650 m 427 103 b 600 377 544 103 600 188 b 547 605 600 491 583 564 l 390 106 b 427 103 402 104 415 103 "},"ǿ":{"ha":855,"x_min":0,"x_max":0,"o":"m 298 902 l 251 985 l 543 1156 l 610 1028 m 609 724 b 767 377 711 661 767 538 b 427 -19 767 139 645 -19 b 366 -15 406 -19 385 -18 l 313 -189 l 189 -152 l 249 26 b 88 376 145 89 88 212 b 428 772 88 610 209 772 b 488 768 449 772 469 771 l 543 937 l 667 900 l 609 724 m 428 650 b 254 376 312 650 254 564 b 309 146 254 259 271 187 l 466 647 b 428 650 454 649 442 650 m 427 103 b 600 377 544 103 600 188 b 547 605 600 491 583 564 l 390 106 b 427 103 402 104 415 103 "},"õ":{"ha":855,"x_min":0,"x_max":0,"o":"m 509 925 b 345 992 432 925 395 992 b 269 927 311 992 292 970 l 179 972 b 343 1110 213 1048 268 1110 b 509 1043 425 1110 457 1043 b 584 1105 538 1043 558 1063 l 674 1061 b 509 925 637 976 580 925 m 428 772 b 767 377 648 772 767 617 b 427 -19 767 139 645 -19 b 88 376 208 -19 88 133 b 428 772 88 610 209 772 m 428 648 b 255 376 313 648 255 563 b 427 104 255 189 312 104 b 600 377 543 104 600 189 b 428 648 600 563 543 648 "},"œ":{"ha":855,"x_min":0,"x_max":0,"o":"m 634 772 b 871 396 803 772 871 632 b 868 328 871 370 870 348 l 509 328 b 656 99 521 170 565 99 b 787 152 707 99 741 118 l 853 58 b 651 -19 796 12 735 -19 b 436 113 548 -19 476 29 b 243 -19 401 33 348 -19 b -6 376 71 -19 -6 133 b 243 772 -6 610 68 772 b 439 635 353 772 405 719 b 634 772 474 714 532 772 m 628 657 b 508 432 554 657 519 600 l 734 432 b 628 657 732 581 710 657 m 255 649 b 143 376 174 649 143 566 b 255 104 143 181 174 104 b 365 377 336 104 365 175 b 255 649 365 566 335 649 "},"p":{"ha":855,"x_min":0,"x_max":0,"o":"m 494 772 b 767 377 692 772 767 617 b 477 -19 767 147 668 -19 b 286 64 398 -19 335 9 l 286 -289 l 127 -307 l 127 752 l 266 752 l 276 655 b 494 772 333 733 410 772 m 449 649 b 286 541 378 649 324 599 l 286 189 b 435 105 323 135 373 105 b 600 377 543 105 600 188 b 449 649 600 570 550 649 "},"þ":{"ha":855,"x_min":0,"x_max":0,"o":"m 286 666 b 494 772 338 734 411 772 b 767 377 692 772 767 617 b 477 -19 767 147 668 -19 b 286 64 398 -19 335 9 l 286 -289 l 127 -307 l 127 1054 l 286 1072 m 449 649 b 286 541 378 649 324 599 l 286 189 b 435 105 323 135 373 105 b 600 377 543 105 600 188 b 449 649 600 570 550 649 "},"q":{"ha":855,"x_min":0,"x_max":0,"o":"m 380 772 b 580 679 464 772 531 739 l 590 752 l 728 752 l 728 -307 l 568 -289 l 568 83 b 364 -19 518 16 449 -19 b 88 376 165 -19 88 137 b 380 772 88 605 191 772 m 421 650 b 255 376 312 650 255 563 b 407 105 255 184 308 105 b 568 210 478 105 531 151 l 568 566 b 421 650 533 619 482 650 "},"r":{"ha":855,"x_min":0,"x_max":0,"o":"m 660 771 b 774 752 705 771 739 764 l 746 475 l 632 475 l 632 628 b 404 393 526 625 449 541 l 404 114 l 556 114 l 556 0 l 134 0 l 134 114 l 244 114 l 244 639 l 134 639 l 134 752 l 366 752 l 395 578 b 660 771 452 704 530 771 "},"ŕ":{"ha":855,"x_min":0,"x_max":0,"o":"m 338 902 l 291 985 l 583 1156 l 650 1028 m 660 771 b 774 752 705 771 739 764 l 746 475 l 632 475 l 632 628 b 404 393 526 625 449 541 l 404 114 l 556 114 l 556 0 l 134 0 l 134 114 l 244 114 l 244 639 l 134 639 l 134 752 l 366 752 l 395 578 b 660 771 452 704 530 771 "},"ř":{"ha":855,"x_min":0,"x_max":0,"o":"m 417 887 l 221 1067 l 288 1138 l 469 1007 l 650 1138 l 714 1067 l 520 887 m 660 771 b 774 752 705 771 739 764 l 746 475 l 632 475 l 632 628 b 404 393 526 625 449 541 l 404 114 l 556 114 l 556 0 l 134 0 l 134 114 l 244 114 l 244 639 l 134 639 l 134 752 l 366 752 l 395 578 b 660 771 452 704 530 771 "},"ŗ":{"ha":855,"x_min":0,"x_max":0,"o":"m 660 771 b 774 752 705 771 739 764 l 746 475 l 632 475 l 632 628 b 404 393 526 625 449 541 l 404 114 l 556 114 l 556 0 l 134 0 l 134 114 l 244 114 l 244 639 l 134 639 l 134 752 l 366 752 l 395 578 b 660 771 452 704 530 771 m 327 -98 b 417 -187 377 -98 417 -135 b 391 -280 417 -215 408 -243 l 321 -427 l 232 -427 l 273 -261 b 236 -187 251 -244 236 -218 b 327 -98 236 -137 276 -98 "},"s":{"ha":855,"x_min":0,"x_max":0,"o":"m 400 103 b 563 204 500 103 563 141 b 382 334 563 264 538 293 b 135 556 234 372 135 425 b 436 772 135 685 251 772 b 722 685 562 772 655 734 l 655 585 b 440 651 596 623 528 651 b 298 568 338 651 298 618 b 489 449 298 511 339 491 b 732 214 636 408 732 358 b 400 -19 732 52 573 -19 b 91 87 261 -19 160 26 l 176 184 b 400 103 234 136 312 103 "},"ś":{"ha":855,"x_min":0,"x_max":0,"o":"m 623 1028 l 311 902 l 264 985 l 556 1156 m 400 103 b 563 204 500 103 563 141 b 382 334 563 264 538 293 b 135 556 234 372 135 425 b 436 772 135 685 251 772 b 722 685 562 772 655 734 l 655 585 b 440 651 596 623 528 651 b 298 568 338 651 298 618 b 489 449 298 511 339 491 b 732 214 636 408 732 358 b 400 -19 732 52 573 -19 b 91 87 261 -19 160 26 l 176 184 b 400 103 234 136 312 103 "},"š":{"ha":855,"x_min":0,"x_max":0,"o":"m 687 1067 l 493 887 l 390 887 l 194 1067 l 261 1138 l 442 1007 l 623 1138 m 400 103 b 563 204 500 103 563 141 b 382 334 563 264 538 293 b 135 556 234 372 135 425 b 436 772 135 685 251 772 b 722 685 562 772 655 734 l 655 585 b 440 651 596 623 528 651 b 298 568 338 651 298 618 b 489 449 298 511 339 491 b 732 214 636 408 732 358 b 400 -19 732 52 573 -19 b 91 87 261 -19 160 26 l 176 184 b 400 103 234 136 312 103 "},"ş":{"ha":855,"x_min":0,"x_max":0,"o":"m 732 214 b 458 -16 732 71 607 -2 l 458 -76 b 596 -204 554 -85 596 -140 b 407 -353 596 -298 514 -353 b 251 -314 346 -353 289 -336 l 296 -232 b 390 -256 323 -246 358 -256 b 471 -202 438 -256 471 -241 b 345 -147 471 -157 425 -147 l 356 -18 b 91 87 239 -9 152 33 l 176 184 b 400 103 234 136 312 103 b 563 204 500 103 563 141 b 382 334 563 264 538 293 b 135 556 234 372 135 425 b 436 772 135 685 251 772 b 722 685 562 772 655 734 l 655 585 b 440 651 596 623 528 651 b 298 568 338 651 298 618 b 489 449 298 511 339 491 b 732 214 636 408 732 358 "},"ŝ":{"ha":855,"x_min":0,"x_max":0,"o":"m 194 958 l 390 1138 l 493 1138 l 687 958 l 623 887 l 442 1017 l 261 887 m 400 103 b 563 204 500 103 563 141 b 382 334 563 264 538 293 b 135 556 234 372 135 425 b 436 772 135 685 251 772 b 722 685 562 772 655 734 l 655 585 b 440 651 596 623 528 651 b 298 568 338 651 298 618 b 489 449 298 511 339 491 b 732 214 636 408 732 358 b 400 -19 732 52 573 -19 b 91 87 261 -19 160 26 l 176 184 b 400 103 234 136 312 103 "},"ș":{"ha":855,"x_min":0,"x_max":0,"o":"m 400 103 b 563 204 500 103 563 141 b 382 334 563 264 538 293 b 135 556 234 372 135 425 b 436 772 135 685 251 772 b 722 685 562 772 655 734 l 655 585 b 440 651 596 623 528 651 b 298 568 338 651 298 618 b 489 449 298 511 339 491 b 732 214 636 408 732 358 b 400 -19 732 52 573 -19 b 91 87 261 -19 160 26 l 176 184 b 400 103 234 136 312 103 m 428 -98 b 519 -187 479 -98 519 -135 b 492 -280 519 -215 509 -243 l 422 -427 l 333 -427 l 374 -261 b 337 -187 352 -244 337 -218 b 428 -98 337 -137 377 -98 "},"ß":{"ha":855,"x_min":0,"x_max":0,"o":"m 420 1072 b 682 861 580 1072 682 983 b 533 613 682 725 533 700 b 806 239 533 494 806 481 b 531 -19 806 72 683 -19 b 349 28 457 -19 399 -2 l 406 136 b 514 107 439 118 479 107 b 642 234 595 107 642 149 b 385 588 642 406 385 402 b 529 850 385 722 529 746 b 417 953 529 900 499 953 b 277 767 324 953 277 899 l 277 0 l 118 0 l 118 759 b 420 1072 118 961 226 1072 "},"t":{"ha":855,"x_min":0,"x_max":0,"o":"m 755 40 b 536 -19 700 5 619 -19 b 269 228 360 -19 269 80 l 269 636 l 101 636 l 101 752 l 269 752 l 269 920 l 428 939 l 428 752 l 682 752 l 664 636 l 428 636 l 428 229 b 558 110 428 149 466 110 b 697 145 613 110 659 124 l 755 40 "},"ŧ":{"ha":855,"x_min":0,"x_max":0,"o":"m 755 40 b 536 -19 700 5 619 -19 b 269 228 360 -19 269 80 l 269 396 l 118 396 l 118 506 l 269 506 l 269 636 l 101 636 l 101 752 l 269 752 l 269 920 l 428 939 l 428 752 l 682 752 l 664 636 l 428 636 l 428 506 l 665 506 l 665 396 l 428 396 l 428 229 b 558 110 428 149 466 110 b 697 145 613 110 659 124 "},"ť":{"ha":855,"x_min":0,"x_max":0,"o":"m 678 1105 l 589 823 l 494 838 l 536 1123 m 755 40 b 536 -19 700 5 619 -19 b 269 228 360 -19 269 80 l 269 636 l 101 636 l 101 752 l 269 752 l 269 920 l 428 939 l 428 752 l 682 752 l 664 636 l 428 636 l 428 229 b 558 110 428 149 466 110 b 697 145 613 110 659 124 l 755 40 "},"ţ":{"ha":855,"x_min":0,"x_max":0,"o":"m 556 -76 b 694 -204 652 -85 694 -140 b 506 -353 694 -298 612 -353 b 350 -314 444 -353 387 -336 l 394 -232 b 488 -256 421 -246 457 -256 b 569 -202 536 -256 569 -241 b 443 -147 569 -157 523 -147 l 455 -11 b 269 228 333 15 269 105 l 269 636 l 101 636 l 101 752 l 269 752 l 269 920 l 428 939 l 428 752 l 682 752 l 664 636 l 428 636 l 428 229 b 558 110 428 149 466 110 b 697 145 613 110 659 124 l 755 40 b 556 -19 704 8 632 -15 l 556 -76 "},"ț":{"ha":855,"x_min":0,"x_max":0,"o":"m 755 40 b 536 -19 700 5 619 -19 b 269 228 360 -19 269 80 l 269 636 l 101 636 l 101 752 l 269 752 l 269 920 l 428 939 l 428 752 l 682 752 l 664 636 l 428 636 l 428 229 b 558 110 428 149 466 110 b 697 145 613 110 659 124 l 755 40 m 526 -98 b 617 -187 577 -98 617 -135 b 590 -280 617 -215 608 -243 l 520 -427 l 432 -427 l 472 -261 b 435 -187 450 -244 435 -218 b 526 -98 435 -137 475 -98 "},"u":{"ha":855,"x_min":0,"x_max":0,"o":"m 286 226 b 394 103 286 137 321 103 b 568 208 462 103 531 149 l 568 752 l 728 752 l 728 0 l 590 0 l 580 96 b 343 -19 524 21 432 -19 b 127 207 197 -19 127 66 l 127 752 l 286 752 "},"ú":{"ha":855,"x_min":0,"x_max":0,"o":"m 610 1028 l 298 902 l 251 985 l 543 1156 m 286 226 b 394 103 286 137 321 103 b 568 208 462 103 531 149 l 568 752 l 728 752 l 728 0 l 590 0 l 580 96 b 343 -19 524 21 432 -19 b 127 207 197 -19 127 66 l 127 752 l 286 752 "},"ŭ":{"ha":855,"x_min":0,"x_max":0,"o":"m 425 887 b 202 1102 286 887 214 1000 l 301 1121 b 425 1003 319 1051 359 1003 b 553 1121 493 1003 534 1051 l 652 1102 b 425 887 640 1000 566 887 m 286 226 b 394 103 286 137 321 103 b 568 208 462 103 531 149 l 568 752 l 728 752 l 728 0 l 590 0 l 580 96 b 343 -19 524 21 432 -19 b 127 207 197 -19 127 66 l 127 752 l 286 752 "},"û":{"ha":855,"x_min":0,"x_max":0,"o":"m 180 958 l 377 1138 l 479 1138 l 674 958 l 610 887 l 428 1017 l 247 887 m 286 226 b 394 103 286 137 321 103 b 568 208 462 103 531 149 l 568 752 l 728 752 l 728 0 l 590 0 l 580 96 b 343 -19 524 21 432 -19 b 127 207 197 -19 127 66 l 127 752 l 286 752 "},"ü":{"ha":855,"x_min":0,"x_max":0,"o":"m 274 917 b 180 1008 221 917 180 957 b 274 1098 180 1060 221 1098 b 365 1008 325 1098 365 1060 b 274 917 365 957 325 917 m 580 917 b 489 1008 529 917 489 957 b 580 1098 489 1060 529 1098 b 674 1008 633 1098 674 1060 b 580 917 674 957 633 917 m 286 226 b 394 103 286 137 321 103 b 568 208 462 103 531 149 l 568 752 l 728 752 l 728 0 l 590 0 l 580 96 b 343 -19 524 21 432 -19 b 127 207 197 -19 127 66 l 127 752 l 286 752 "},"ù":{"ha":855,"x_min":0,"x_max":0,"o":"m 251 1019 l 324 1147 l 605 970 l 557 886 m 286 226 b 394 103 286 137 321 103 b 568 208 462 103 531 149 l 568 752 l 728 752 l 728 0 l 590 0 l 580 96 b 343 -19 524 21 432 -19 b 127 207 197 -19 127 66 l 127 752 l 286 752 "},"ű":{"ha":855,"x_min":0,"x_max":0,"o":"m 365 1202 l 489 1144 l 335 900 l 243 942 m 608 1202 l 730 1140 l 566 898 l 476 944 m 286 226 b 394 103 286 137 321 103 b 568 208 462 103 531 149 l 568 752 l 728 752 l 728 0 l 590 0 l 580 96 b 343 -19 524 21 432 -19 b 127 207 197 -19 127 66 l 127 752 l 286 752 "},"ū":{"ha":855,"x_min":0,"x_max":0,"o":"m 226 953 l 226 1069 l 628 1069 l 628 953 m 286 226 b 394 103 286 137 321 103 b 568 208 462 103 531 149 l 568 752 l 728 752 l 728 0 l 590 0 l 580 96 b 343 -19 524 21 432 -19 b 127 207 197 -19 127 66 l 127 752 l 286 752 "},"ų":{"ha":855,"x_min":0,"x_max":0,"o":"m 728 0 b 556 -161 587 -58 556 -108 b 637 -229 556 -204 581 -229 b 721 -219 667 -229 689 -226 l 707 -329 b 619 -340 679 -335 655 -340 b 429 -186 506 -340 429 -278 b 589 12 429 -97 486 -36 l 580 96 b 343 -19 524 21 432 -19 b 127 207 197 -19 127 66 l 127 752 l 286 752 l 286 226 b 394 103 286 137 321 103 b 568 208 462 103 531 149 l 568 752 l 728 752 l 728 0 "},"ů":{"ha":855,"x_min":0,"x_max":0,"o":"m 427 1195 b 600 1033 531 1195 600 1123 b 427 873 600 945 531 873 b 254 1033 323 873 254 945 b 427 1195 254 1123 323 1195 m 427 1110 b 355 1033 384 1110 355 1083 b 427 957 355 984 384 957 b 499 1033 472 957 499 984 b 427 1110 499 1083 472 1110 m 286 226 b 394 103 286 137 321 103 b 568 208 462 103 531 149 l 568 752 l 728 752 l 728 0 l 590 0 l 580 96 b 343 -19 524 21 432 -19 b 127 207 197 -19 127 66 l 127 752 l 286 752 "},"ũ":{"ha":855,"x_min":0,"x_max":0,"o":"m 509 925 b 345 992 432 925 395 992 b 269 927 311 992 292 970 l 179 972 b 343 1110 213 1048 268 1110 b 509 1043 425 1110 457 1043 b 584 1105 538 1043 558 1063 l 674 1061 b 509 925 637 976 580 925 m 286 226 b 394 103 286 137 321 103 b 568 208 462 103 531 149 l 568 752 l 728 752 l 728 0 l 590 0 l 580 96 b 343 -19 524 21 432 -19 b 127 207 197 -19 127 66 l 127 752 l 286 752 "},"v":{"ha":855,"x_min":0,"x_max":0,"o":"m 521 0 l 334 0 l 69 752 l 240 752 l 431 132 l 623 752 l 786 752 "},"w":{"ha":855,"x_min":0,"x_max":0,"o":"m 516 0 l 431 534 l 340 0 l 145 0 l 17 752 l 171 752 l 249 99 l 354 657 l 514 657 l 611 99 l 689 752 l 838 752 l 715 0 "},"ẃ":{"ha":855,"x_min":0,"x_max":0,"o":"m 610 1028 l 298 902 l 251 985 l 543 1156 m 516 0 l 431 534 l 340 0 l 145 0 l 17 752 l 171 752 l 249 99 l 354 657 l 514 657 l 611 99 l 689 752 l 838 752 l 715 0 "},"ŵ":{"ha":855,"x_min":0,"x_max":0,"o":"m 180 958 l 377 1138 l 479 1138 l 674 958 l 610 887 l 428 1017 l 247 887 m 516 0 l 431 534 l 340 0 l 145 0 l 17 752 l 171 752 l 249 99 l 354 657 l 514 657 l 611 99 l 689 752 l 838 752 l 715 0 "},"ẅ":{"ha":855,"x_min":0,"x_max":0,"o":"m 274 917 b 180 1008 221 917 180 957 b 274 1098 180 1060 221 1098 b 365 1008 325 1098 365 1060 b 274 917 365 957 325 917 m 580 917 b 489 1008 529 917 489 957 b 580 1098 489 1060 529 1098 b 674 1008 633 1098 674 1060 b 580 917 674 957 633 917 m 516 0 l 431 534 l 340 0 l 145 0 l 17 752 l 171 752 l 249 99 l 354 657 l 514 657 l 611 99 l 689 752 l 838 752 l 715 0 "},"ẁ":{"ha":855,"x_min":0,"x_max":0,"o":"m 251 1019 l 324 1147 l 605 970 l 557 886 m 516 0 l 431 534 l 340 0 l 145 0 l 17 752 l 171 752 l 249 99 l 354 657 l 514 657 l 611 99 l 689 752 l 838 752 l 715 0 "},"x":{"ha":855,"x_min":0,"x_max":0,"o":"m 61 0 l 331 397 l 91 752 l 275 752 l 429 487 l 583 752 l 758 752 l 523 403 l 793 0 l 606 0 l 422 307 l 238 0 "},"y":{"ha":855,"x_min":0,"x_max":0,"o":"m 526 -3 b 157 -308 468 -174 368 -290 l 137 -188 b 377 0 289 -165 337 -109 l 323 0 l 70 752 l 239 752 l 429 111 l 621 752 l 785 752 "},"ý":{"ha":855,"x_min":0,"x_max":0,"o":"m 610 1028 l 298 902 l 251 985 l 543 1156 m 526 -3 b 157 -308 468 -174 368 -290 l 137 -188 b 377 0 289 -165 337 -109 l 323 0 l 70 752 l 239 752 l 429 111 l 621 752 l 785 752 "},"ŷ":{"ha":855,"x_min":0,"x_max":0,"o":"m 180 958 l 377 1138 l 479 1138 l 674 958 l 610 887 l 428 1017 l 247 887 m 526 -3 b 157 -308 468 -174 368 -290 l 137 -188 b 377 0 289 -165 337 -109 l 323 0 l 70 752 l 239 752 l 429 111 l 621 752 l 785 752 "},"ÿ":{"ha":855,"x_min":0,"x_max":0,"o":"m 274 917 b 180 1008 221 917 180 957 b 274 1098 180 1060 221 1098 b 365 1008 325 1098 365 1060 b 274 917 365 957 325 917 m 580 917 b 489 1008 529 917 489 957 b 580 1098 489 1060 529 1098 b 674 1008 633 1098 674 1060 b 580 917 674 957 633 917 m 526 -3 b 157 -308 468 -174 368 -290 l 137 -188 b 377 0 289 -165 337 -109 l 323 0 l 70 752 l 239 752 l 429 111 l 621 752 l 785 752 "},"ỳ":{"ha":855,"x_min":0,"x_max":0,"o":"m 251 1019 l 324 1147 l 605 970 l 557 886 m 526 -3 b 157 -308 468 -174 368 -290 l 137 -188 b 377 0 289 -165 337 -109 l 323 0 l 70 752 l 239 752 l 429 111 l 621 752 l 785 752 "},"z":{"ha":855,"x_min":0,"x_max":0,"o":"m 724 128 l 707 0 l 130 0 l 130 117 l 530 624 l 162 624 l 162 752 l 719 752 l 719 635 l 321 128 "},"ź":{"ha":855,"x_min":0,"x_max":0,"o":"m 623 1028 l 311 902 l 264 985 l 556 1156 m 724 128 l 707 0 l 130 0 l 130 117 l 530 624 l 162 624 l 162 752 l 719 752 l 719 635 l 321 128 "},"ž":{"ha":855,"x_min":0,"x_max":0,"o":"m 687 1067 l 492 887 l 390 887 l 193 1067 l 260 1138 l 441 1007 l 623 1138 m 724 128 l 707 0 l 130 0 l 130 117 l 530 624 l 162 624 l 162 752 l 719 752 l 719 635 l 321 128 "},"ż":{"ha":855,"x_min":0,"x_max":0,"o":"m 439 1120 b 544 1021 501 1120 544 1077 b 439 920 544 963 501 920 b 335 1021 377 920 335 963 b 439 1120 335 1077 377 1120 m 724 128 l 707 0 l 130 0 l 130 117 l 530 624 l 162 624 l 162 752 l 719 752 l 719 635 l 321 128 "},"ª":{"ha":855,"x_min":0,"x_max":0,"o":"m 414 1072 b 664 866 588 1072 664 996 l 664 603 b 709 533 664 561 679 543 l 677 437 b 543 521 609 444 567 468 b 353 436 496 466 426 436 b 135 628 222 436 135 514 b 444 828 135 756 249 828 l 525 828 l 525 862 b 393 962 525 937 480 962 b 222 929 355 962 291 952 l 184 1029 b 414 1072 269 1060 349 1072 m 457 734 b 287 634 336 734 287 699 b 390 538 287 571 325 538 b 525 614 442 538 492 568 l 525 734 m 718 0 l 147 0 l 147 125 l 718 125 "},"º":{"ha":855,"x_min":0,"x_max":0,"o":"m 427 1072 b 726 755 612 1072 726 944 b 427 436 726 566 611 436 b 127 755 242 436 127 563 b 427 1072 127 939 244 1072 m 427 962 b 276 755 335 962 276 899 b 427 546 276 609 335 546 b 578 755 520 546 578 609 b 427 962 578 899 520 962 m 713 0 l 142 0 l 142 125 l 713 125 "},"ⁿ":{"ha":855,"x_min":0,"x_max":0,"o":"m 483 1030 b 625 883 579 1030 625 976 l 625 538 l 501 538 l 501 835 b 448 934 501 905 492 934 b 355 873 413 934 379 905 l 355 538 l 230 538 l 230 1019 l 342 1019 l 347 964 b 483 1030 385 1011 436 1030 "},"А":{"ha":855,"x_min":0,"x_max":0,"o":"m 249 236 l 180 0 l 12 0 l 325 983 l 530 983 l 843 0 l 668 0 l 600 236 m 565 364 l 425 855 l 283 364 "},"Б":{"ha":855,"x_min":0,"x_max":0,"o":"m 679 852 l 285 852 l 285 611 l 400 611 b 786 313 641 611 786 520 b 405 0 786 92 627 0 l 120 0 l 120 983 l 695 983 m 285 487 l 285 128 l 406 128 b 615 311 531 128 615 167 b 405 487 615 437 533 487 "},"В":{"ha":855,"x_min":0,"x_max":0,"o":"m 786 283 b 403 0 786 64 596 0 l 115 0 l 115 983 l 384 983 b 743 734 568 983 743 927 b 561 521 743 611 656 543 b 786 283 668 503 786 447 m 575 721 b 399 859 575 820 511 859 l 281 859 l 281 575 l 409 575 b 575 721 519 575 575 618 m 613 284 b 421 452 613 416 529 452 l 281 452 l 281 128 l 414 128 b 613 284 508 128 613 153 "},"Г":{"ha":855,"x_min":0,"x_max":0,"o":"m 766 846 l 334 846 l 334 0 l 169 0 l 169 983 l 783 983 "},"Ѓ":{"ha":855,"x_min":0,"x_max":0,"o":"m 669 1189 l 352 1074 l 311 1157 l 603 1316 m 766 846 l 334 846 l 334 0 l 169 0 l 169 983 l 783 983 "},"Ґ":{"ha":855,"x_min":0,"x_max":0,"o":"m 783 1196 l 783 983 l 766 846 l 334 846 l 334 0 l 169 0 l 169 983 l 627 983 l 627 1196 "},"Д":{"ha":855,"x_min":0,"x_max":0,"o":"m 811 130 l 811 -224 l 682 -224 l 658 -1 l 147 0 l 124 -224 l -5 -224 l -5 130 l 53 130 b 190 691 126 203 144 303 l 224 983 l 738 983 l 738 130 m 578 855 l 365 855 l 348 692 b 197 130 309 323 286 208 l 578 130 "},"Е":{"ha":855,"x_min":0,"x_max":0,"o":"m 326 562 l 682 562 l 682 437 l 326 437 l 326 125 l 760 125 l 760 0 l 161 0 l 161 983 l 752 983 l 734 858 l 326 858 "},"Ѐ":{"ha":855,"x_min":0,"x_max":0,"o":"m 633 1157 l 590 1074 l 280 1192 l 353 1319 m 326 562 l 682 562 l 682 437 l 326 437 l 326 125 l 760 125 l 760 0 l 161 0 l 161 983 l 752 983 l 734 858 l 326 858 "},"Ё":{"ha":855,"x_min":0,"x_max":0,"o":"m 303 1091 b 209 1181 250 1091 209 1130 b 303 1272 209 1233 250 1272 b 395 1181 355 1272 395 1233 b 303 1091 395 1130 355 1091 m 610 1091 b 518 1181 559 1091 518 1130 b 610 1272 518 1233 559 1272 b 703 1181 662 1272 703 1233 b 610 1091 703 1130 662 1091 m 326 562 l 682 562 l 682 437 l 326 437 l 326 125 l 760 125 l 760 0 l 161 0 l 161 983 l 752 983 l 734 858 l 326 858 "},"Ж":{"ha":855,"x_min":0,"x_max":0,"o":"m 296 462 l 162 0 l 12 0 l 178 527 l 30 983 l 177 983 l 298 568 l 366 568 l 366 983 l 489 983 l 489 568 l 557 568 l 679 983 l 825 983 l 677 527 l 843 0 l 690 0 l 557 462 l 489 462 l 489 0 l 366 0 l 366 462 "},"З":{"ha":855,"x_min":0,"x_max":0,"o":"m 401 1003 b 750 744 615 1003 750 897 b 539 531 750 623 662 551 b 782 288 673 518 782 437 b 392 -19 782 110 636 -19 b 35 121 244 -19 120 31 l 127 209 b 390 110 202 145 288 110 b 611 289 529 110 611 178 b 397 461 611 409 523 461 l 226 461 l 246 589 l 390 589 b 584 734 496 589 584 634 b 391 876 584 827 504 876 b 142 788 290 876 212 843 l 56 879 b 401 1003 152 961 266 1003 "},"И":{"ha":855,"x_min":0,"x_max":0,"o":"m 102 983 l 259 983 l 259 548 b 231 145 259 363 248 258 l 556 983 l 753 983 l 753 0 l 595 0 l 595 433 b 623 833 595 598 609 731 l 301 0 l 102 0 "},"Й":{"ha":855,"x_min":0,"x_max":0,"o":"m 425 1082 b 202 1265 298 1082 213 1157 l 301 1284 b 425 1199 318 1225 359 1199 b 553 1284 492 1199 536 1225 l 652 1265 b 425 1082 640 1157 553 1082 m 102 983 l 259 983 l 259 548 b 231 145 259 363 248 258 l 556 983 l 753 983 l 753 0 l 595 0 l 595 433 b 623 833 595 598 609 731 l 301 0 l 102 0 "},"Ѝ":{"ha":855,"x_min":0,"x_max":0,"o":"m 604 1157 l 561 1074 l 251 1192 l 324 1319 m 102 983 l 259 983 l 259 548 b 231 145 259 363 248 258 l 556 983 l 753 983 l 753 0 l 595 0 l 595 433 b 623 833 595 598 609 731 l 301 0 l 102 0 "},"Ҋ":{"ha":855,"x_min":0,"x_max":0,"o":"m 425 1082 b 202 1265 298 1082 213 1157 l 301 1284 b 425 1199 318 1225 359 1199 b 553 1284 492 1199 536 1225 l 652 1265 b 425 1082 640 1157 553 1082 m 881 143 l 759 -224 l 626 -224 l 678 0 l 595 0 l 595 433 b 623 833 595 598 609 731 l 301 0 l 102 0 l 102 983 l 259 983 l 259 548 b 231 145 259 363 248 258 l 556 983 l 753 983 l 753 143 "},"К":{"ha":855,"x_min":0,"x_max":0,"o":"m 277 451 l 277 0 l 112 0 l 112 983 l 277 983 l 277 580 l 382 580 l 651 983 l 821 983 l 520 527 l 848 0 l 658 0 l 381 451 "},"Ќ":{"ha":855,"x_min":0,"x_max":0,"o":"m 638 1189 l 321 1074 l 281 1157 l 573 1316 m 277 451 l 277 0 l 112 0 l 112 983 l 277 983 l 277 580 l 382 580 l 651 983 l 821 983 l 520 527 l 848 0 l 658 0 l 381 451 "},"Л":{"ha":855,"x_min":0,"x_max":0,"o":"m 753 0 l 588 0 l 588 850 l 365 850 l 338 609 b 75 -21 286 148 229 70 l 6 95 b 175 596 82 155 130 202 l 221 983 l 753 983 "},"М":{"ha":855,"x_min":0,"x_max":0,"o":"m 818 0 l 667 0 l 644 479 b 643 838 637 623 639 753 l 499 173 l 355 173 l 199 838 b 204 477 205 756 208 614 l 184 0 l 36 0 l 92 983 l 290 983 l 430 324 l 564 983 l 763 983 "},"Н":{"ha":855,"x_min":0,"x_max":0,"o":"m 588 447 l 267 447 l 267 0 l 102 0 l 102 983 l 267 983 l 267 583 l 588 583 l 588 983 l 753 983 l 753 0 l 588 0 "},"О":{"ha":855,"x_min":0,"x_max":0,"o":"m 801 491 b 427 -19 801 188 674 -19 b 53 490 181 -19 53 181 b 427 1003 53 793 181 1003 b 801 491 674 1003 801 801 m 630 491 b 427 874 630 746 572 874 b 224 490 283 874 224 744 b 427 110 224 236 286 110 b 630 491 573 110 630 238 "},"П":{"ha":855,"x_min":0,"x_max":0,"o":"m 588 848 l 267 848 l 267 0 l 102 0 l 102 983 l 753 983 l 753 0 l 588 0 "},"Р":{"ha":855,"x_min":0,"x_max":0,"o":"m 804 675 b 420 350 804 445 646 350 l 301 350 l 301 0 l 136 0 l 136 983 l 409 983 b 804 675 656 983 804 884 m 630 673 b 420 859 630 808 547 859 l 301 859 l 301 476 l 422 476 b 630 673 546 476 630 525 "},"С":{"ha":855,"x_min":0,"x_max":0,"o":"m 510 1003 b 806 902 643 1003 727 967 l 720 800 b 518 873 661 849 593 873 b 246 493 370 873 246 771 b 518 115 246 221 363 115 b 741 199 623 115 687 156 l 821 98 b 512 -19 755 33 657 -19 b 74 493 262 -19 74 160 b 510 1003 74 823 270 1003 "},"Т":{"ha":855,"x_min":0,"x_max":0,"o":"m 508 0 l 343 0 l 343 850 l 48 850 l 48 983 l 810 983 l 793 850 l 508 850 "},"У":{"ha":855,"x_min":0,"x_max":0,"o":"m 560 286 b 165 -19 480 90 395 5 l 142 103 b 397 266 291 121 345 160 l 338 266 l 21 983 l 192 983 l 445 367 l 674 983 l 841 983 "},"Ў":{"ha":855,"x_min":0,"x_max":0,"o":"m 440 1077 b 217 1266 313 1077 229 1155 l 315 1285 b 440 1194 334 1227 373 1194 b 568 1285 506 1194 548 1227 l 666 1266 b 440 1077 655 1155 568 1077 m 560 286 b 165 -19 480 90 395 5 l 142 103 b 397 266 291 121 345 160 l 338 266 l 21 983 l 192 983 l 445 367 l 674 983 l 841 983 "},"Ф":{"ha":855,"x_min":0,"x_max":0,"o":"m 496 937 b 841 496 730 921 841 776 b 496 48 841 211 721 61 l 496 -46 l 359 -46 l 359 48 b 14 496 132 59 14 209 b 359 937 14 776 124 921 l 359 1028 l 496 1028 m 365 833 b 175 496 232 825 175 735 b 365 154 175 266 226 166 l 365 833 m 489 154 b 680 496 628 166 680 266 b 489 833 680 735 623 825 "},"Х":{"ha":855,"x_min":0,"x_max":0,"o":"m 237 983 l 427 629 l 620 983 l 796 983 l 524 531 l 825 0 l 642 0 l 425 418 l 206 0 l 29 0 l 327 524 l 54 983 "},"Ч":{"ha":855,"x_min":0,"x_max":0,"o":"m 753 983 l 753 0 l 588 0 l 588 380 b 352 301 514 327 447 301 b 58 608 172 301 58 415 l 58 983 l 224 983 l 224 618 b 395 434 224 489 282 434 b 588 506 486 434 546 467 l 588 983 "},"Ц":{"ha":855,"x_min":0,"x_max":0,"o":"m 833 130 l 833 -224 l 705 -224 l 682 0 l 102 0 l 102 983 l 267 983 l 267 132 l 588 132 l 588 983 l 753 983 l 753 130 "},"Ш":{"ha":855,"x_min":0,"x_max":0,"o":"m 795 0 l 60 0 l 60 983 l 202 983 l 202 125 l 362 125 l 362 983 l 493 983 l 493 125 l 652 125 l 652 983 l 795 983 "},"Щ":{"ha":855,"x_min":0,"x_max":0,"o":"m 875 130 l 875 -224 l 746 -224 l 723 0 l 60 0 l 60 983 l 202 983 l 202 125 l 362 125 l 362 983 l 493 983 l 493 125 l 652 125 l 652 983 l 795 983 l 795 130 "},"Џ":{"ha":855,"x_min":0,"x_max":0,"o":"m 753 0 l 503 0 l 503 -224 l 375 -224 l 351 0 l 102 0 l 102 983 l 267 983 l 267 132 l 588 132 l 588 983 l 753 983 "},"Ь":{"ha":855,"x_min":0,"x_max":0,"o":"m 278 631 l 407 631 b 799 323 650 631 799 537 b 413 0 799 95 641 0 l 113 0 l 113 983 l 278 983 m 278 507 l 278 127 l 417 127 b 625 322 541 127 625 170 b 415 507 625 457 543 507 "},"Ъ":{"ha":855,"x_min":0,"x_max":0,"o":"m 317 631 l 439 631 b 831 323 683 631 831 537 b 446 0 831 93 672 0 l 157 0 l 157 851 l -1 851 l -1 983 l 317 983 m 317 509 l 317 126 l 443 126 b 661 322 572 126 661 165 b 449 509 661 457 578 509 "},"Ы":{"ha":855,"x_min":0,"x_max":0,"o":"m 189 632 l 250 632 b 607 323 484 632 607 526 b 253 0 607 103 473 0 l 39 0 l 39 983 l 189 983 m 816 0 l 666 0 l 666 983 l 816 983 m 189 514 l 189 123 l 261 123 b 450 322 382 123 450 174 b 266 514 450 450 387 514 "},"Љ":{"ha":855,"x_min":0,"x_max":0,"o":"m 511 631 b 855 323 736 631 855 535 b 518 0 855 95 724 0 l 368 0 l 368 864 l 254 864 l 226 439 b 65 -21 203 95 159 48 l -6 80 b 83 451 36 124 64 176 l 120 983 l 511 983 m 511 516 l 511 119 l 532 119 b 702 322 644 119 702 170 b 530 516 702 459 645 516 "},"Њ":{"ha":855,"x_min":0,"x_max":0,"o":"m 513 600 b 855 311 735 600 855 511 b 516 0 855 90 729 0 l 368 0 l 368 482 l 197 482 l 197 0 l 52 0 l 52 983 l 197 983 l 197 600 l 368 600 l 368 983 l 513 983 m 513 484 l 513 121 l 530 121 b 704 309 645 122 704 161 b 530 484 704 439 645 483 "},"Ѕ":{"ha":855,"x_min":0,"x_max":0,"o":"m 781 278 b 407 -19 781 103 643 -19 b 45 113 246 -19 127 32 l 135 214 b 406 111 205 150 291 111 b 610 270 516 111 610 164 b 408 444 610 356 565 397 b 91 737 200 506 91 583 b 429 1003 91 897 235 1003 b 758 885 571 1003 675 960 l 671 786 b 439 873 602 846 521 873 b 261 746 338 873 261 831 b 491 582 261 670 315 635 b 781 278 657 533 781 463 "},"Є":{"ha":855,"x_min":0,"x_max":0,"o":"m 505 1003 b 801 902 637 1003 722 965 l 721 807 b 516 876 657 852 591 876 b 241 571 375 876 258 791 l 648 571 l 648 439 l 239 439 b 513 112 250 209 365 112 b 736 194 618 112 684 151 l 816 96 b 504 -19 751 35 651 -19 b 69 493 249 -19 69 160 b 505 1003 69 823 264 1003 "},"Э":{"ha":855,"x_min":0,"x_max":0,"o":"m 378 1003 b 779 502 627 1003 779 835 b 362 -19 779 156 615 -19 b 45 106 231 -19 121 29 l 132 198 b 356 112 198 142 266 112 b 610 441 511 112 600 211 l 203 441 l 203 568 l 610 568 b 368 876 598 793 512 876 b 140 789 264 876 197 833 l 56 881 b 378 1003 136 949 237 1003 "},"І":{"ha":855,"x_min":0,"x_max":0,"o":"m 723 857 l 511 857 l 511 127 l 723 127 l 723 0 l 132 0 l 132 127 l 344 127 l 344 857 l 132 857 l 132 983 l 723 983 "},"Ї":{"ha":855,"x_min":0,"x_max":0,"o":"m 274 1091 b 180 1181 221 1091 180 1130 b 274 1272 180 1233 221 1272 b 365 1181 325 1272 365 1233 b 274 1091 365 1130 325 1091 m 580 1091 b 489 1181 530 1091 489 1130 b 580 1272 489 1233 530 1272 b 674 1181 633 1272 674 1233 b 580 1091 674 1130 633 1091 m 723 857 l 511 857 l 511 127 l 723 127 l 723 0 l 132 0 l 132 127 l 344 127 l 344 857 l 132 857 l 132 983 l 723 983 "},"Ј":{"ha":855,"x_min":0,"x_max":0,"o":"m 724 337 b 365 -19 724 148 622 -19 b 85 72 257 -19 166 14 l 153 177 b 359 112 231 127 295 112 b 559 340 482 112 559 194 l 559 856 l 264 856 l 264 983 l 724 983 "},"Ћ":{"ha":855,"x_min":0,"x_max":0,"o":"m 586 856 l 369 856 l 369 575 b 561 652 418 620 479 652 b 815 354 731 652 815 550 l 815 0 l 655 0 l 655 356 b 521 521 655 474 618 521 b 369 457 448 521 402 487 l 369 0 l 209 0 l 209 856 l -9 856 l -9 983 l 603 983 "},"Ю":{"ha":855,"x_min":0,"x_max":0,"o":"m 556 1003 b 830 491 763 1003 830 829 b 556 -19 830 160 755 -19 b 283 447 354 -19 289 159 l 199 447 l 199 0 l 58 0 l 58 983 l 199 983 l 199 571 l 285 571 b 556 1003 296 848 370 1003 m 556 882 b 434 493 467 882 434 791 b 556 102 434 194 466 102 b 677 491 642 102 677 193 b 556 882 677 791 643 882 "},"Я":{"ha":855,"x_min":0,"x_max":0,"o":"m 753 0 l 588 0 l 588 380 l 406 380 l 212 0 l 31 0 l 256 415 b 86 684 144 465 86 557 b 470 983 86 877 219 983 l 753 983 m 462 860 b 260 682 327 860 260 803 b 448 503 260 556 327 503 l 588 503 l 588 860 "},"Ђ":{"ha":855,"x_min":0,"x_max":0,"o":"m 369 575 b 561 652 418 618 481 652 b 815 354 731 652 815 550 l 815 138 b 549 -212 815 -74 709 -158 l 507 -90 b 655 140 629 -40 655 14 l 655 356 b 521 521 655 474 618 521 b 369 457 448 521 402 487 l 369 0 l 209 0 l 209 856 l -9 856 l -9 983 l 603 983 l 586 856 l 369 856 "},"Ѡ":{"ha":855,"x_min":0,"x_max":0,"o":"m 731 983 b 835 428 774 868 835 702 b 597 -21 835 107 734 -21 b 428 123 501 -21 454 32 b 262 -21 399 32 351 -21 b 21 428 136 -21 21 102 b 124 983 21 702 83 868 l 269 983 b 176 432 218 825 176 674 b 285 110 176 191 220 110 b 357 236 324 110 357 143 l 357 568 l 498 568 l 498 237 b 577 110 498 147 532 110 b 679 430 635 110 679 171 b 586 983 679 673 635 826 l 731 983 "},"Ѣ":{"ha":855,"x_min":0,"x_max":0,"o":"m 448 618 b 820 320 671 618 820 520 b 442 0 820 98 662 0 l 204 0 l 204 749 l 14 749 l 14 858 l 204 858 l 204 983 l 369 983 l 369 858 l 571 858 l 571 749 l 369 749 l 369 618 l 448 618 m 446 127 b 646 317 561 127 646 174 b 447 494 646 444 569 494 l 369 494 l 369 127 l 446 127 "},"Ѥ":{"ha":855,"x_min":0,"x_max":0,"o":"m 854 43 b 650 -19 802 6 741 -19 b 296 439 436 -19 309 140 l 208 439 l 208 0 l 47 0 l 47 984 l 208 984 l 208 571 l 297 571 b 661 1003 318 851 452 1003 b 848 949 744 1003 795 984 l 783 847 b 664 879 744 869 711 879 b 459 568 548 879 474 792 l 746 568 l 746 441 l 457 441 b 659 108 466 207 537 108 b 794 146 719 108 758 125 "},"Ѧ":{"ha":855,"x_min":0,"x_max":0,"o":"m 564 388 l 494 388 l 494 -1 l 357 -1 l 357 388 l 286 388 l 173 0 l 12 0 l 325 983 l 530 983 l 843 0 l 677 0 m 527 514 l 425 868 l 322 514 "},"Ѩ":{"ha":855,"x_min":0,"x_max":0,"o":"m 640 400 l 598 400 l 598 -1 l 479 -1 l 479 400 l 438 400 l 355 0 l 216 0 l 307 400 l 177 400 l 177 -1 l 33 -1 l 33 983 l 177 983 l 177 511 l 332 511 l 439 983 l 644 983 l 868 0 l 724 0 m 617 511 l 538 884 l 461 511 "},"Ѫ":{"ha":855,"x_min":0,"x_max":0,"o":"m 820 0 l 677 0 l 565 442 l 499 442 l 499 0 l 357 0 l 357 442 l 291 442 l 177 0 l 35 0 l 194 551 l 296 551 l 118 884 l 118 983 l 737 983 l 737 884 l 557 551 l 665 551 m 430 551 l 590 877 l 269 877 "},"Ѭ":{"ha":855,"x_min":0,"x_max":0,"o":"m 886 0 l 749 0 l 667 442 l 612 442 l 612 0 l 475 0 l 475 442 l 420 442 l 338 0 l 201 0 l 301 442 l 163 442 l 163 -1 l 19 -1 l 19 983 l 163 983 l 163 551 l 419 551 l 270 885 l 270 983 l 818 983 l 818 885 l 665 551 l 767 551 m 410 880 l 546 551 l 681 880 "},"Ѯ":{"ha":855,"x_min":0,"x_max":0,"o":"m 352 1073 l 155 1239 l 220 1311 l 402 1194 l 586 1311 l 649 1239 l 454 1073 m 429 541 b 749 262 644 540 749 439 b 446 -34 749 77 605 -7 b 284 -110 314 -57 284 -73 b 389 -211 284 -147 322 -176 l 331 -311 b 121 -96 190 -253 121 -183 b 355 82 121 1 190 53 b 578 268 496 106 578 153 b 387 429 578 382 514 429 l 226 429 l 226 535 l 513 853 l 105 853 l 105 983 l 699 983 l 699 856 l 405 541 l 429 541 "},"Ѱ":{"ha":855,"x_min":0,"x_max":0,"o":"m 350 269 b 18 608 120 291 18 423 l 18 983 l 171 983 l 171 611 b 356 390 171 481 213 407 l 356 983 l 500 983 l 500 392 b 684 611 639 410 684 481 l 684 983 l 837 983 l 837 608 b 506 270 837 425 732 294 l 506 0 l 350 0 "},"Ѳ":{"ha":855,"x_min":0,"x_max":0,"o":"m 801 491 b 427 -19 801 188 674 -19 b 53 490 181 -19 53 181 b 427 1003 53 793 181 1003 b 801 491 674 1003 801 801 m 427 874 b 223 556 295 874 234 768 l 630 556 b 427 874 620 768 560 874 m 427 110 b 632 444 567 110 625 224 l 222 444 b 427 110 228 224 291 110 "},"Ѵ":{"ha":855,"x_min":0,"x_max":0,"o":"m 812 873 b 774 880 799 877 788 880 b 712 816 741 880 725 861 l 499 0 l 305 0 l 30 983 l 207 983 l 402 157 l 559 832 b 749 1004 588 955 647 1004 b 848 983 790 1004 822 995 l 812 873 "},"Ѷ":{"ha":855,"x_min":0,"x_max":0,"o":"m 264 1129 l 100 1371 l 222 1433 l 354 1175 m 494 1131 l 341 1375 l 465 1433 l 587 1173 m 812 873 b 774 880 799 877 788 880 b 712 816 741 880 725 861 l 499 0 l 305 0 l 30 983 l 207 983 l 402 157 l 559 832 b 749 1004 588 955 647 1004 b 848 983 790 1004 822 995 l 812 873 "},"Ѹ":{"ha":855,"x_min":0,"x_max":0,"o":"m 228 -19 b 3 490 68 -19 3 171 b 228 1003 3 803 68 1003 b 452 491 390 1003 452 811 b 228 -19 452 173 390 -19 m 228 93 b 321 491 300 93 321 212 b 228 890 321 772 300 890 b 134 490 155 890 134 771 b 228 93 134 209 159 93 m 473 -212 b 626 0 558 -182 606 -127 l 568 0 l 456 752 l 576 752 l 652 111 l 726 752 l 847 752 l 732 -3 b 496 -308 704 -189 615 -274 "},"Ғ":{"ha":855,"x_min":0,"x_max":0,"o":"m 374 846 l 374 617 l 591 617 l 591 505 l 374 505 l 374 0 l 209 0 l 209 505 l 79 505 l 79 617 l 209 617 l 209 983 l 823 983 l 807 846 "},"Ҕ":{"ha":855,"x_min":0,"x_max":0,"o":"m 503 652 b 791 333 684 652 791 535 l 791 -68 b 555 -309 791 -228 701 -309 b 382 -252 476 -309 422 -282 l 444 -152 b 543 -182 474 -170 499 -182 b 626 -80 596 -182 626 -152 l 626 1 l 627 1 l 627 332 b 465 519 627 457 575 519 b 263 428 374 519 314 484 l 263 0 l 98 0 l 98 983 l 677 983 l 657 852 l 263 852 l 263 558 b 503 652 324 617 401 652 "},"Җ":{"ha":855,"x_min":0,"x_max":0,"o":"m 871 130 l 871 -224 l 752 -224 l 731 0 l 690 0 l 557 462 l 489 462 l 489 0 l 366 0 l 366 462 l 296 462 l 162 0 l 12 0 l 178 527 l 30 983 l 177 983 l 298 568 l 366 568 l 366 983 l 489 983 l 489 568 l 557 568 l 679 983 l 825 983 l 677 527 l 802 130 "},"Ҙ":{"ha":855,"x_min":0,"x_max":0,"o":"m 782 288 b 448 -17 782 124 658 1 l 448 -76 b 586 -204 544 -85 586 -140 b 397 -353 586 -298 504 -353 b 241 -314 336 -353 279 -336 l 286 -232 b 380 -256 313 -246 348 -256 b 461 -202 428 -256 461 -241 b 335 -147 461 -157 415 -147 l 346 -18 b 35 121 219 -9 111 41 l 127 209 b 390 110 202 145 288 110 b 611 289 529 110 611 178 b 397 461 611 409 523 461 l 226 461 l 246 589 l 390 589 b 584 734 496 589 584 634 b 391 876 584 827 504 876 b 142 788 290 876 212 843 l 56 879 b 401 1003 152 961 266 1003 b 750 744 615 1003 750 897 b 539 531 750 623 662 551 b 782 288 673 518 782 437 "},"Қ":{"ha":855,"x_min":0,"x_max":0,"o":"m 848 130 l 848 -224 l 719 -224 l 696 0 l 658 0 l 381 451 l 277 451 l 277 0 l 112 0 l 112 983 l 277 983 l 277 580 l 382 580 l 651 983 l 821 983 l 520 527 l 767 130 "},"Ҝ":{"ha":855,"x_min":0,"x_max":0,"o":"m 329 455 l 267 455 l 267 0 l 112 0 l 112 983 l 267 983 l 267 575 l 329 575 l 329 813 l 407 813 l 407 575 l 438 575 l 653 983 l 818 983 l 564 527 l 845 0 l 667 0 l 439 455 l 407 455 l 407 212 l 329 212 "},"Ҟ":{"ha":855,"x_min":0,"x_max":0,"o":"m 843 0 l 653 0 l 405 451 l 301 451 l 301 0 l 135 0 l 135 754 l 38 754 l 38 864 l 135 864 l 135 983 l 301 983 l 301 864 l 447 864 l 447 754 l 301 754 l 301 580 l 405 580 l 646 983 l 816 983 l 543 527 "},"Ҡ":{"ha":855,"x_min":0,"x_max":0,"o":"m 328 452 l 328 0 l 167 0 l 167 851 l 10 851 l 10 983 l 328 983 l 328 578 l 420 578 l 663 983 l 830 983 l 555 527 l 857 0 l 670 0 l 420 452 "},"Ң":{"ha":855,"x_min":0,"x_max":0,"o":"m 833 130 l 833 -224 l 704 -224 l 680 0 l 583 0 l 583 447 l 262 447 l 262 0 l 98 0 l 98 983 l 262 983 l 262 583 l 583 583 l 583 983 l 748 983 l 748 130 "},"Ҥ":{"ha":855,"x_min":0,"x_max":0,"o":"m 850 850 l 667 850 l 667 0 l 503 0 l 503 446 l 243 446 l 243 0 l 78 0 l 78 983 l 243 983 l 243 583 l 503 583 l 503 983 l 869 983 "},"Ҧ":{"ha":855,"x_min":0,"x_max":0,"o":"m 645 647 b 840 428 766 647 840 560 l 840 -76 b 619 -309 840 -226 747 -309 b 446 -252 539 -309 486 -282 l 506 -158 b 607 -190 536 -177 563 -190 b 690 -88 660 -190 690 -160 l 690 424 b 607 521 690 489 660 521 b 507 479 571 521 539 507 l 507 0 l 358 0 l 358 855 l 187 855 l 187 0 l 37 0 l 37 983 l 507 983 l 507 595 b 645 647 543 627 586 647 "},"Ԥ":{"ha":855,"x_min":0,"x_max":0,"o":"m 833 130 l 833 -224 l 705 -224 l 682 0 l 588 0 l 588 848 l 267 848 l 267 0 l 102 0 l 102 983 l 753 983 l 753 130 "},"Ҩ":{"ha":855,"x_min":0,"x_max":0,"o":"m 829 377 b 654 39 829 247 768 114 b 769 -115 688 -8 727 -58 l 673 -185 b 541 -9 626 -123 581 -65 b 443 -21 511 -16 478 -21 b 43 491 206 -21 43 160 b 434 1004 43 825 222 1004 b 711 901 558 1004 632 966 l 629 801 b 439 875 567 850 509 875 b 218 491 323 875 218 774 b 446 108 218 215 312 108 l 462 108 b 375 373 408 197 375 281 b 600 615 375 515 466 615 b 829 377 737 615 829 526 m 511 375 b 584 143 511 291 538 219 b 684 380 650 185 684 265 b 600 500 684 461 655 500 b 511 375 541 500 511 452 "},"Ҫ":{"ha":855,"x_min":0,"x_max":0,"o":"m 568 -16 b 675 -187 635 -58 675 -114 b 482 -350 675 -286 601 -350 b 339 -315 420 -350 375 -335 l 376 -227 b 471 -251 397 -239 427 -251 b 552 -175 526 -251 552 -221 b 447 -15 552 -122 523 -64 b 74 493 230 14 74 189 b 510 1003 74 823 270 1003 b 806 902 643 1003 727 967 l 720 800 b 518 873 661 849 593 873 b 246 493 370 873 246 771 b 518 115 246 221 363 115 b 741 199 623 115 687 156 l 821 98 b 568 -16 764 42 682 -5 "},"Ҭ":{"ha":855,"x_min":0,"x_max":0,"o":"m 508 850 l 508 130 l 588 130 l 588 -224 l 460 -224 l 437 0 l 343 0 l 343 850 l 48 850 l 48 983 l 810 983 l 793 850 "},"Ү":{"ha":855,"x_min":0,"x_max":0,"o":"m 511 0 l 344 0 l 344 374 l 16 983 l 198 983 l 431 517 l 665 983 l 838 983 l 511 375 "},"Ұ":{"ha":855,"x_min":0,"x_max":0,"o":"m 546 440 l 687 440 l 687 331 l 511 331 l 511 0 l 344 0 l 344 331 l 168 331 l 168 440 l 308 440 l 16 983 l 198 983 l 431 517 l 665 983 l 838 983 "},"Ҳ":{"ha":855,"x_min":0,"x_max":0,"o":"m 830 130 l 830 -224 l 702 -224 l 679 0 l 642 0 l 642 1 l 425 418 l 206 0 l 29 0 l 327 524 l 54 983 l 237 983 l 427 629 l 620 983 l 796 983 l 524 531 l 752 130 "},"Ҵ":{"ha":855,"x_min":0,"x_max":0,"o":"m 804 130 l 804 -224 l 684 -224 l 660 0 l 162 0 l 162 863 l 0 863 l 0 983 l 484 983 l 467 863 l 319 863 l 319 132 l 577 132 l 577 983 l 734 983 l 734 130 "},"Ҷ":{"ha":855,"x_min":0,"x_max":0,"o":"m 833 130 l 833 -224 l 705 -224 l 682 0 l 588 0 l 588 380 b 352 301 514 327 447 301 b 58 608 172 301 58 415 l 58 983 l 224 983 l 224 618 b 395 434 224 489 282 434 b 588 506 486 434 546 467 l 588 983 l 753 983 l 753 130 "},"Ҹ":{"ha":855,"x_min":0,"x_max":0,"o":"m 753 983 l 753 0 l 588 0 l 588 380 b 457 314 544 348 504 326 l 457 173 l 370 173 l 370 301 l 352 301 b 58 608 172 301 58 415 l 58 983 l 224 983 l 224 618 b 370 434 224 499 274 443 l 370 776 l 457 776 l 457 439 b 588 506 514 450 556 476 l 588 983 "},"Һ":{"ha":855,"x_min":0,"x_max":0,"o":"m 507 652 b 796 333 689 652 796 535 l 796 0 l 630 0 l 630 332 b 469 519 630 457 579 519 b 267 428 377 519 318 484 l 267 0 l 102 0 l 102 983 l 267 983 l 267 558 b 507 652 328 617 405 652 "},"Ԧ":{"ha":855,"x_min":0,"x_max":0,"o":"m 858 130 l 858 -224 l 729 -224 l 705 0 l 614 0 l 614 332 b 450 519 614 457 563 519 b 267 430 370 519 313 484 l 267 0 l 102 0 l 102 983 l 267 983 l 267 563 b 491 652 323 617 397 652 b 779 333 675 652 779 535 l 779 130 "},"Ҽ":{"ha":855,"x_min":0,"x_max":0,"o":"m 813 509 b 808 427 813 486 811 454 l 348 427 b 533 103 350 191 429 103 b 704 166 611 103 657 134 l 771 77 b 530 -19 712 24 634 -19 b 194 429 328 -19 206 131 b -2 610 65 430 -2 509 b 48 756 -2 672 22 718 l 144 715 b 119 620 130 684 119 655 b 189 546 119 571 142 546 l 194 546 b 516 1003 209 835 330 1003 b 813 509 708 1003 813 828 m 665 546 b 515 882 660 796 605 882 b 348 546 418 882 358 788 "},"Ҿ":{"ha":855,"x_min":0,"x_max":0,"o":"m 813 509 b 808 427 813 486 811 454 l 348 427 b 533 103 350 191 429 103 b 704 166 611 103 657 134 l 771 77 b 641 -1 736 45 692 16 b 472 -161 502 -58 472 -108 b 553 -229 472 -204 497 -229 b 637 -219 583 -229 605 -226 l 623 -329 b 535 -340 595 -335 571 -340 b 345 -186 422 -340 345 -278 b 459 -12 345 -111 385 -56 b 194 429 299 21 204 168 b -2 610 65 430 -2 509 b 48 756 -2 672 22 718 l 144 715 b 119 620 130 684 119 655 b 189 546 119 571 142 546 l 194 546 b 516 1003 209 835 330 1003 b 813 509 708 1003 813 828 m 665 546 b 515 882 660 796 605 882 b 348 546 418 882 358 788 "},"Ӏ":{"ha":855,"x_min":0,"x_max":0,"o":"m 723 857 l 511 857 l 511 127 l 723 127 l 723 0 l 132 0 l 132 127 l 344 127 l 344 857 l 132 857 l 132 983 l 723 983 "},"Ӂ":{"ha":855,"x_min":0,"x_max":0,"o":"m 425 1082 b 202 1265 298 1082 213 1157 l 301 1284 b 425 1199 318 1225 359 1199 b 553 1284 492 1199 536 1225 l 652 1265 b 425 1082 640 1157 553 1082 m 296 462 l 162 0 l 12 0 l 178 527 l 30 983 l 177 983 l 298 568 l 366 568 l 366 983 l 489 983 l 489 568 l 557 568 l 679 983 l 825 983 l 677 527 l 843 0 l 690 0 l 557 462 l 489 462 l 489 0 l 366 0 l 366 462 "},"Ӄ":{"ha":855,"x_min":0,"x_max":0,"o":"m 541 557 b 777 260 704 533 777 433 l 777 -68 b 541 -309 777 -228 687 -309 b 368 -252 462 -309 408 -282 l 430 -152 b 529 -182 461 -170 485 -182 b 613 -80 582 -182 613 -152 l 613 258 b 429 434 613 377 563 434 l 267 434 l 267 0 l 102 0 l 102 983 l 267 983 l 267 563 l 389 563 l 623 983 l 790 983 l 541 557 "},"Ӆ":{"ha":855,"x_min":0,"x_max":0,"o":"m 843 143 l 721 -224 l 588 -224 l 640 0 l 550 0 l 550 850 l 370 850 l 343 609 b 80 -21 291 148 234 70 l 11 95 b 180 596 87 155 135 202 l 226 983 l 715 983 l 715 143 "},"Ӈ":{"ha":855,"x_min":0,"x_max":0,"o":"m 753 983 l 753 -68 b 516 -309 753 -228 662 -309 b 343 -252 437 -309 384 -282 l 405 -152 b 505 -182 436 -170 460 -182 b 588 -80 558 -182 588 -152 l 588 447 l 267 447 l 267 0 l 102 0 l 102 983 l 267 983 l 267 583 l 588 583 l 588 983 "},"Ӊ":{"ha":855,"x_min":0,"x_max":0,"o":"m 833 143 l 712 -224 l 578 -224 l 630 0 l 541 0 l 541 446 l 252 446 l 252 0 l 87 0 l 87 983 l 252 983 l 252 583 l 541 583 l 541 983 l 705 983 l 705 143 "},"Ӌ":{"ha":855,"x_min":0,"x_max":0,"o":"m 753 983 l 753 0 l 588 0 l 588 380 b 352 301 514 327 447 301 b 58 608 172 301 58 415 l 58 983 l 224 983 l 224 618 b 395 434 224 489 282 434 b 588 506 486 434 546 467 l 588 983 m 468 130 l 496 0 l 459 0 l 435 -224 l 307 -224 l 307 130 "},"Ӎ":{"ha":855,"x_min":0,"x_max":0,"o":"m 875 143 l 752 -224 l 628 -224 l 680 0 l 612 0 l 588 479 b 588 835 582 623 584 757 l 467 173 l 323 173 l 193 835 b 195 477 197 757 200 614 l 176 0 l 28 0 l 83 983 l 281 983 l 398 324 l 509 983 l 707 983 l 755 143 "},"Ӑ":{"ha":855,"x_min":0,"x_max":0,"o":"m 425 1082 b 202 1265 298 1082 213 1157 l 301 1284 b 425 1199 318 1225 359 1199 b 553 1284 492 1199 536 1225 l 652 1265 b 425 1082 640 1157 553 1082 m 249 236 l 180 0 l 12 0 l 325 983 l 530 983 l 843 0 l 668 0 l 600 236 m 565 364 l 425 855 l 283 364 "},"Ӓ":{"ha":855,"x_min":0,"x_max":0,"o":"m 274 1091 b 180 1181 221 1091 180 1130 b 274 1272 180 1233 221 1272 b 365 1181 325 1272 365 1233 b 274 1091 365 1130 325 1091 m 580 1091 b 489 1181 530 1091 489 1130 b 580 1272 489 1233 530 1272 b 674 1181 633 1272 674 1233 b 580 1091 674 1130 633 1091 m 249 236 l 180 0 l 12 0 l 325 983 l 530 983 l 843 0 l 668 0 l 600 236 m 565 364 l 425 855 l 283 364 "},"Ӕ":{"ha":855,"x_min":0,"x_max":0,"o":"m 204 238 l 146 0 l -17 0 l 256 983 l 806 983 l 788 861 l 481 861 l 543 560 l 793 560 l 793 437 l 566 437 l 631 123 l 863 123 l 863 0 l 506 0 l 461 238 m 438 363 l 345 863 l 234 363 "},"Ӗ":{"ha":855,"x_min":0,"x_max":0,"o":"m 454 1082 b 231 1265 328 1082 242 1157 l 330 1284 b 454 1199 348 1225 388 1199 b 583 1284 521 1199 565 1225 l 681 1265 b 454 1082 670 1157 582 1082 m 326 562 l 682 562 l 682 437 l 326 437 l 326 125 l 760 125 l 760 0 l 161 0 l 161 983 l 752 983 l 734 858 l 326 858 "},"Ә":{"ha":855,"x_min":0,"x_max":0,"o":"m 50 475 b 56 554 50 498 52 528 l 632 554 b 407 877 625 785 543 877 b 190 796 312 877 252 841 l 110 888 b 417 1003 192 957 286 1003 b 799 502 664 1003 799 833 b 422 -19 799 172 656 -19 b 50 475 184 -19 50 155 m 424 107 b 632 431 548 107 621 203 l 209 431 b 424 107 217 196 289 107 "},"Ӛ":{"ha":855,"x_min":0,"x_max":0,"o":"m 263 1092 b 170 1182 210 1092 170 1130 b 263 1273 170 1234 210 1273 b 355 1182 315 1273 355 1234 b 263 1092 355 1130 315 1092 m 570 1092 b 478 1182 519 1092 478 1130 b 570 1273 478 1234 519 1273 b 663 1182 623 1273 663 1234 b 570 1092 663 1130 623 1092 m 50 475 b 56 554 50 498 52 528 l 632 554 b 407 877 625 785 543 877 b 190 796 312 877 252 841 l 110 888 b 417 1003 192 957 286 1003 b 799 502 664 1003 799 833 b 422 -19 799 172 656 -19 b 50 475 184 -19 50 155 m 424 107 b 632 431 548 107 621 203 l 209 431 b 424 107 217 196 289 107 "},"Ӝ":{"ha":855,"x_min":0,"x_max":0,"o":"m 274 1091 b 180 1181 221 1091 180 1130 b 274 1272 180 1233 221 1272 b 365 1181 325 1272 365 1233 b 274 1091 365 1130 325 1091 m 580 1091 b 489 1181 530 1091 489 1130 b 580 1272 489 1233 530 1272 b 674 1181 633 1272 674 1233 b 580 1091 674 1130 633 1091 m 296 462 l 162 0 l 12 0 l 178 527 l 30 983 l 177 983 l 298 568 l 366 568 l 366 983 l 489 983 l 489 568 l 557 568 l 679 983 l 825 983 l 677 527 l 843 0 l 690 0 l 557 462 l 489 462 l 489 0 l 366 0 l 366 462 "},"Ӟ":{"ha":855,"x_min":0,"x_max":0,"o":"m 266 1091 b 172 1181 213 1091 172 1130 b 266 1272 172 1233 213 1272 b 358 1181 318 1272 358 1233 b 266 1091 358 1130 318 1091 m 573 1091 b 481 1181 522 1091 481 1130 b 573 1272 481 1233 522 1272 b 666 1181 625 1272 666 1233 b 573 1091 666 1130 625 1091 m 401 1003 b 750 744 615 1003 750 897 b 539 531 750 623 662 551 b 782 288 673 518 782 437 b 392 -19 782 110 636 -19 b 35 121 244 -19 120 31 l 127 209 b 390 110 202 145 288 110 b 611 289 529 110 611 178 b 397 461 611 409 523 461 l 226 461 l 246 589 l 390 589 b 584 734 496 589 584 634 b 391 876 584 827 504 876 b 142 788 290 876 212 843 l 56 879 b 401 1003 152 961 266 1003 "},"Ӡ":{"ha":855,"x_min":0,"x_max":0,"o":"m 449 571 b 771 296 668 571 771 465 b 401 -21 771 113 629 -21 b 84 94 248 -21 163 26 l 165 189 b 398 109 236 138 296 109 b 599 296 526 109 599 175 b 404 458 599 413 526 458 l 245 458 l 245 562 l 541 853 l 129 853 l 129 983 l 725 983 l 725 856 l 431 571 l 449 571 "},"Ӣ":{"ha":855,"x_min":0,"x_max":0,"o":"m 226 1126 l 226 1242 l 628 1242 l 628 1126 m 102 983 l 259 983 l 259 548 b 231 145 259 363 248 258 l 556 983 l 753 983 l 753 0 l 595 0 l 595 433 b 623 833 595 598 609 731 l 301 0 l 102 0 "},"Ӥ":{"ha":855,"x_min":0,"x_max":0,"o":"m 274 1091 b 180 1181 221 1091 180 1130 b 274 1272 180 1233 221 1272 b 365 1181 325 1272 365 1233 b 274 1091 365 1130 325 1091 m 580 1091 b 489 1181 530 1091 489 1130 b 580 1272 489 1233 530 1272 b 674 1181 633 1272 674 1233 b 580 1091 674 1130 633 1091 m 102 983 l 259 983 l 259 548 b 231 145 259 363 248 258 l 556 983 l 753 983 l 753 0 l 595 0 l 595 433 b 623 833 595 598 609 731 l 301 0 l 102 0 "},"Ӧ":{"ha":855,"x_min":0,"x_max":0,"o":"m 274 1091 b 180 1181 221 1091 180 1130 b 274 1272 180 1233 221 1272 b 365 1181 325 1272 365 1233 b 274 1091 365 1130 325 1091 m 580 1091 b 489 1181 530 1091 489 1130 b 580 1272 489 1233 530 1272 b 674 1181 633 1272 674 1233 b 580 1091 674 1130 633 1091 m 801 491 b 427 -19 801 188 674 -19 b 53 490 181 -19 53 181 b 427 1003 53 793 181 1003 b 801 491 674 1003 801 801 m 630 491 b 427 874 630 746 572 874 b 224 490 283 874 224 744 b 427 110 224 236 286 110 b 630 491 573 110 630 238 "},"Ө":{"ha":855,"x_min":0,"x_max":0,"o":"m 801 491 b 427 -19 801 188 674 -19 b 53 490 181 -19 53 181 b 427 1003 53 793 181 1003 b 801 491 674 1003 801 801 m 427 874 b 223 556 295 874 234 768 l 630 556 b 427 874 620 768 560 874 m 427 110 b 632 444 567 110 625 224 l 222 444 b 427 110 228 224 291 110 "},"Ӫ":{"ha":855,"x_min":0,"x_max":0,"o":"m 274 1091 b 180 1181 221 1091 180 1130 b 274 1272 180 1233 221 1272 b 365 1181 325 1272 365 1233 b 274 1091 365 1130 325 1091 m 580 1091 b 489 1181 530 1091 489 1130 b 580 1272 489 1233 530 1272 b 674 1181 633 1272 674 1233 b 580 1091 674 1130 633 1091 m 801 491 b 427 -19 801 188 674 -19 b 53 490 181 -19 53 181 b 427 1003 53 793 181 1003 b 801 491 674 1003 801 801 m 427 874 b 223 556 295 874 234 768 l 630 556 b 427 874 620 768 560 874 m 427 110 b 632 444 567 110 625 224 l 222 444 b 427 110 228 224 291 110 "},"Ӭ":{"ha":855,"x_min":0,"x_max":0,"o":"m 252 1090 b 159 1179 199 1090 159 1128 b 252 1271 159 1231 199 1271 b 344 1179 304 1271 344 1231 b 252 1090 344 1128 304 1090 m 559 1090 b 467 1179 509 1090 467 1128 b 559 1271 467 1231 509 1271 b 652 1179 612 1271 652 1231 b 559 1090 652 1128 612 1090 m 378 1003 b 779 502 627 1003 779 835 b 362 -19 779 156 615 -19 b 45 106 231 -19 121 29 l 132 198 b 356 112 198 142 266 112 b 610 441 511 112 600 211 l 203 441 l 203 568 l 610 568 b 368 876 598 793 512 876 b 140 789 264 876 197 833 l 56 881 b 378 1003 136 949 237 1003 "},"Ӯ":{"ha":855,"x_min":0,"x_max":0,"o":"m 240 1126 l 240 1242 l 642 1242 l 642 1126 m 560 286 b 165 -19 480 90 395 5 l 142 103 b 397 266 291 121 345 160 l 338 266 l 21 983 l 192 983 l 445 367 l 674 983 l 841 983 "},"Ӱ":{"ha":855,"x_min":0,"x_max":0,"o":"m 288 1091 b 194 1181 235 1091 194 1130 b 288 1272 194 1233 235 1272 b 380 1181 340 1272 380 1233 b 288 1091 380 1130 340 1091 m 595 1091 b 503 1181 544 1091 503 1130 b 595 1272 503 1233 544 1272 b 688 1181 647 1272 688 1233 b 595 1091 688 1130 647 1091 m 560 286 b 165 -19 480 90 395 5 l 142 103 b 397 266 291 121 345 160 l 338 266 l 21 983 l 192 983 l 445 367 l 674 983 l 841 983 "},"Ӳ":{"ha":855,"x_min":0,"x_max":0,"o":"m 384 1375 l 507 1318 l 355 1074 l 261 1116 m 627 1375 l 749 1313 l 585 1071 l 494 1117 m 560 286 b 165 -19 480 90 395 5 l 142 103 b 397 266 291 121 345 160 l 338 266 l 21 983 l 192 983 l 445 367 l 674 983 l 841 983 "},"Ӵ":{"ha":855,"x_min":0,"x_max":0,"o":"m 256 1091 b 163 1181 204 1091 163 1130 b 256 1272 163 1233 204 1272 b 348 1181 308 1272 348 1233 b 256 1091 348 1130 308 1091 m 563 1091 b 472 1181 513 1091 472 1130 b 563 1272 472 1233 513 1272 b 657 1181 616 1272 657 1233 b 563 1091 657 1130 616 1091 m 753 983 l 753 0 l 588 0 l 588 380 b 352 301 514 327 447 301 b 58 608 172 301 58 415 l 58 983 l 224 983 l 224 618 b 395 434 224 489 282 434 b 588 506 486 434 546 467 l 588 983 "},"Ӷ":{"ha":855,"x_min":0,"x_max":0,"o":"m 334 846 l 334 130 l 423 130 l 423 -224 l 295 -224 l 271 0 l 169 0 l 169 983 l 783 983 l 766 846 "},"Ӹ":{"ha":855,"x_min":0,"x_max":0,"o":"m 274 1091 b 180 1181 221 1091 180 1130 b 274 1272 180 1233 221 1272 b 365 1181 325 1272 365 1233 b 274 1091 365 1130 325 1091 m 580 1091 b 489 1181 530 1091 489 1130 b 580 1272 489 1233 530 1272 b 674 1181 633 1272 674 1233 b 580 1091 674 1130 633 1091 m 189 632 l 250 632 b 607 323 484 632 607 526 b 253 0 607 103 473 0 l 39 0 l 39 983 l 189 983 m 816 0 l 666 0 l 666 983 l 816 983 m 189 514 l 189 123 l 261 123 b 450 322 382 123 450 174 b 266 514 450 450 387 514 "},"Ӻ":{"ha":855,"x_min":0,"x_max":0,"o":"m 405 846 l 405 617 l 622 617 l 622 505 l 405 505 l 405 130 l 498 130 l 498 -68 b 261 -309 498 -228 407 -309 b 89 -252 182 -309 129 -282 l 150 -152 b 250 -182 182 -170 206 -182 b 333 -80 303 -182 333 -152 l 333 0 l 240 0 l 240 505 l 110 505 l 110 617 l 240 617 l 240 983 l 855 983 l 838 846 "},"Ӽ":{"ha":855,"x_min":0,"x_max":0,"o":"m 839 130 l 839 -68 b 603 -309 839 -228 749 -309 b 430 -252 524 -309 470 -282 l 491 -152 b 591 -182 522 -170 547 -182 b 674 -80 644 -182 674 -152 l 674 0 l 625 0 l 407 418 l 189 0 l 12 0 l 310 524 l 37 983 l 220 983 l 410 629 l 603 983 l 778 983 l 506 531 l 735 130 "},"Ӿ":{"ha":855,"x_min":0,"x_max":0,"o":"m 825 0 l 642 0 l 425 418 l 206 0 l 29 0 l 295 467 l 46 467 l 46 581 l 293 581 l 54 983 l 237 983 l 427 629 l 620 983 l 796 983 l 553 581 l 810 581 l 810 467 l 560 467 "},"Ԁ":{"ha":855,"x_min":0,"x_max":0,"o":"m 431 0 b 56 310 212 0 56 98 b 442 625 56 510 205 625 l 576 625 l 576 983 l 741 983 l 741 0 l 431 0 m 576 127 l 576 501 l 443 501 b 229 310 306 501 229 442 b 438 127 229 174 314 127 "},"Ԃ":{"ha":855,"x_min":0,"x_max":0,"o":"m 825 538 b 833 355 830 482 833 425 b 589 -21 833 93 734 -21 b 414 83 509 -21 449 16 b 237 -21 370 16 315 -21 b 14 281 119 -21 14 80 b 321 616 14 492 127 616 l 382 616 l 382 983 l 526 983 l 526 212 b 593 98 526 136 551 98 b 688 352 647 98 688 162 b 681 538 688 423 685 479 l 825 538 m 263 98 b 382 198 316 98 348 130 l 382 502 l 323 502 b 157 281 220 502 157 435 b 263 98 157 146 204 98 "},"Ԅ":{"ha":855,"x_min":0,"x_max":0,"o":"m 816 541 b 824 364 821 485 824 427 b 557 -19 824 95 718 -19 b 288 175 425 -19 349 46 l 181 405 l 68 405 l 68 524 l 172 524 b 370 699 298 524 370 574 b 159 861 370 813 304 861 l 31 861 l 31 983 l 160 983 b 543 699 412 983 543 887 b 339 435 543 561 469 479 l 441 212 b 556 107 476 135 506 107 b 666 363 620 107 666 167 b 659 541 666 425 663 482 l 816 541 "},"Ԇ":{"ha":855,"x_min":0,"x_max":0,"o":"m 796 130 l 796 -224 l 667 -224 l 644 0 l 584 0 l 337 405 l 137 405 l 137 526 l 351 526 b 548 699 477 526 548 575 b 347 860 548 813 482 860 l 95 860 l 95 983 l 338 983 b 722 699 590 983 722 889 b 498 428 722 553 623 465 l 692 130 "},"Ԉ":{"ha":855,"x_min":0,"x_max":0,"o":"m 834 538 b 842 355 839 482 842 425 b 598 -21 842 93 744 -21 b 390 220 482 -21 390 58 l 390 862 l 278 862 l 257 552 b 78 -21 231 140 186 70 l 2 84 b 117 588 60 140 88 197 l 145 983 l 535 983 l 535 212 b 603 98 535 136 560 98 b 697 352 656 98 697 162 b 690 538 697 423 694 479 l 834 538 "},"Ԋ":{"ha":855,"x_min":0,"x_max":0,"o":"m 834 538 b 841 355 838 482 841 425 b 595 -21 841 93 744 -21 b 384 220 479 -21 384 58 l 384 446 l 207 446 l 207 0 l 60 0 l 60 983 l 207 983 l 207 573 l 384 573 l 384 983 l 531 983 l 531 212 b 599 98 531 136 556 98 b 694 352 652 98 694 162 b 687 538 694 423 691 479 l 834 538 "},"Ԍ":{"ha":855,"x_min":0,"x_max":0,"o":"m 453 -19 b 53 493 202 -19 53 154 b 481 1003 53 830 253 1003 b 774 890 615 1003 697 961 l 682 793 b 486 874 622 848 563 874 b 226 492 348 874 226 774 b 461 110 226 217 305 110 b 623 151 521 110 575 125 l 623 422 l 457 422 l 439 548 l 783 548 l 783 71 b 453 -19 691 19 590 -19 "},"Ԏ":{"ha":855,"x_min":0,"x_max":0,"o":"m 808 540 b 815 360 812 484 815 427 b 511 -19 815 95 667 -19 b 262 254 374 -19 262 71 l 262 454 l 261 454 l 261 850 l 20 850 l 20 983 l 701 983 l 684 850 l 427 850 l 427 244 b 518 105 427 145 461 105 b 655 359 594 105 655 169 b 648 540 655 425 652 481 l 808 540 "},"Ԑ":{"ha":855,"x_min":0,"x_max":0,"o":"m 457 1003 b 798 879 595 1003 701 961 l 712 788 b 466 876 643 843 568 876 b 271 733 353 876 271 827 b 464 589 271 634 357 589 l 628 589 l 610 461 l 458 461 b 244 288 332 461 244 409 b 463 110 244 178 325 110 b 730 209 566 110 653 145 l 820 121 b 456 -19 732 31 605 -19 b 73 284 219 -19 73 106 b 316 531 73 434 182 516 b 105 736 192 551 105 619 b 457 1003 105 895 251 1003 "},"Ԓ":{"ha":855,"x_min":0,"x_max":0,"o":"m 753 983 l 753 -68 b 516 -309 753 -228 662 -309 b 343 -252 437 -309 384 -282 l 405 -152 b 505 -182 436 -170 460 -182 b 588 -80 558 -182 588 -152 l 588 850 l 365 850 l 338 609 b 75 -21 286 148 229 70 l 6 95 b 175 596 82 155 130 202 l 221 983 "},"Ԕ":{"ha":855,"x_min":0,"x_max":0,"o":"m 865 0 l 717 0 l 569 419 l 427 0 l 283 0 l 479 524 l 349 858 l 271 858 l 250 552 b 70 -21 224 140 179 70 l -6 84 b 109 588 53 140 81 197 l 138 983 l 449 983 l 575 626 l 700 983 l 843 983 l 662 528 "},"Ԗ":{"ha":855,"x_min":0,"x_max":0,"o":"m 682 0 l 480 447 b 264 350 428 387 354 350 l 212 350 l 212 0 l 60 0 l 60 983 l 258 983 b 560 678 446 983 558 868 l 697 983 l 843 983 l 618 511 l 850 0 m 255 474 b 417 673 347 474 417 526 b 261 861 417 801 357 861 l 212 861 l 212 474 l 255 474 "},"Ԙ":{"ha":855,"x_min":0,"x_max":0,"o":"m 852 124 l 852 0 l 408 0 l 408 380 l 330 380 l 181 0 l 6 0 l 187 415 b 24 682 81 467 24 554 b 370 983 24 865 160 983 l 844 983 l 825 860 l 565 860 l 565 561 l 778 561 l 778 438 l 565 438 l 565 124 m 408 863 l 360 863 b 189 681 254 863 189 801 b 343 501 189 556 253 501 l 408 501 "},"Ԛ":{"ha":855,"x_min":0,"x_max":0,"o":"m 800 491 b 595 45 800 288 748 127 b 866 -190 739 19 816 -41 l 713 -246 b 413 -16 652 -96 583 -16 b 58 490 179 -16 58 181 b 429 1003 58 793 182 1003 b 800 491 675 1003 800 801 m 628 491 b 429 873 628 745 574 873 b 229 490 283 873 229 744 b 429 110 229 236 287 110 b 628 491 574 110 628 238 "},"Ԝ":{"ha":855,"x_min":0,"x_max":0,"o":"m 716 0 l 523 0 l 426 727 l 325 0 l 128 0 l 3 983 l 162 983 l 240 160 l 344 869 l 514 869 l 613 160 l 704 983 l 852 983 "},"Ԟ":{"ha":855,"x_min":0,"x_max":0,"o":"m 843 0 l 653 0 l 377 451 l 272 451 l 272 0 l 107 0 l 107 983 l 272 983 l 272 580 l 377 580 l 489 748 l 332 838 l 387 933 l 550 839 l 646 983 l 816 983 l 674 768 l 822 683 l 767 588 l 613 677 l 515 527 "},"Ԡ":{"ha":855,"x_min":0,"x_max":0,"o":"m 649 647 b 830 439 765 647 830 560 l 830 -76 b 613 -309 830 -226 737 -309 b 442 -252 533 -309 481 -282 l 500 -160 b 601 -192 530 -178 557 -192 b 684 -89 655 -192 684 -161 l 684 424 b 610 521 684 489 658 521 b 518 481 576 521 548 507 l 518 0 l 373 0 l 373 862 l 261 862 l 240 552 b 60 -21 213 140 169 70 l -16 84 b 99 588 43 140 71 197 l 128 983 l 518 983 l 518 595 b 649 647 552 627 593 647 "},"Ԣ":{"ha":855,"x_min":0,"x_max":0,"o":"m 645 647 b 839 428 766 647 839 560 l 839 -76 b 619 -309 839 -226 746 -309 b 446 -252 539 -309 486 -282 l 506 -158 b 607 -190 536 -177 563 -190 b 690 -88 660 -190 690 -160 l 690 424 b 607 521 690 489 660 521 b 508 480 571 521 539 507 l 508 0 l 360 0 l 360 446 l 184 446 l 184 0 l 36 0 l 36 983 l 184 983 l 184 573 l 360 573 l 360 983 l 508 983 l 508 595 b 645 647 543 627 587 647 "},"Ҍ":{"ha":855,"x_min":0,"x_max":0,"o":"m 444 618 b 816 320 667 618 816 520 b 438 0 816 98 657 0 l 157 0 l 157 751 l 43 751 l 43 856 l 157 856 l 157 983 l 323 983 l 323 856 l 503 856 l 503 751 l 323 751 l 323 618 l 444 618 m 442 127 b 642 317 557 127 642 174 b 442 494 642 444 565 494 l 323 494 l 323 127 l 442 127 "},"Ҏ":{"ha":855,"x_min":0,"x_max":0,"o":"m 804 672 b 668 414 804 556 753 468 l 775 239 l 662 239 l 580 373 b 420 350 532 358 479 350 l 301 350 l 301 0 l 136 0 l 136 983 l 409 983 b 804 672 656 983 804 884 m 426 476 b 512 485 458 476 487 479 l 392 682 l 504 682 l 595 533 b 635 671 621 564 635 608 b 424 859 635 808 551 859 l 301 859 l 301 476 l 426 476 "},"Ԩ":{"ha":855,"x_min":0,"x_max":0,"o":"m 753 983 l 753 0 l 588 0 l 588 447 l 267 447 l 267 -69 b 31 -311 267 -229 177 -311 b -142 -254 -48 -311 -102 -283 l -80 -152 b 19 -183 -50 -171 -25 -183 b 102 -80 72 -183 102 -152 l 102 983 l 267 983 l 267 583 l 588 583 l 588 983 "},"Ԫ":{"ha":855,"x_min":0,"x_max":0,"o":"m 873 0 l 745 0 l 643 459 l 607 459 l 607 0 l 517 0 l 517 -224 l 418 -224 l 398 0 l 100 0 l 78 -224 l -19 -224 l -19 110 l 26 110 b 113 640 61 194 91 302 l 135 983 l 426 983 l 426 567 l 494 567 l 494 983 l 607 983 l 607 567 l 644 567 l 734 983 l 850 983 l 744 525 m 311 877 l 244 877 l 231 634 b 130 110 217 315 187 204 l 311 110 m 426 459 l 426 110 l 494 110 l 494 459 "},"Ԭ":{"ha":855,"x_min":0,"x_max":0,"o":"m 814 130 l 814 -224 l 686 -224 l 662 0 l 228 0 l 204 -224 l 76 -224 l 76 130 l 132 130 b 276 468 182 190 237 286 b 63 783 129 503 64 603 l 63 983 l 213 983 l 213 787 b 300 598 213 687 234 626 b 313 700 305 630 309 664 l 342 983 l 756 983 l 756 130 m 463 694 b 449 580 459 653 454 615 l 607 580 l 607 858 l 479 858 m 607 130 l 607 454 l 428 454 b 281 130 395 290 348 201 "},"Ԯ":{"ha":855,"x_min":0,"x_max":0,"o":"m 793 130 l 793 -224 l 665 -224 l 640 0 l 547 0 l 547 850 l 357 850 l 330 609 b 67 -21 278 148 222 70 l -1 95 b 167 596 74 155 122 202 l 213 983 l 712 983 l 712 130 "},"а":{"ha":855,"x_min":0,"x_max":0,"o":"m 702 184 b 759 90 702 125 719 103 l 723 -19 b 567 85 649 -10 594 20 b 327 -19 512 16 423 -19 b 80 214 175 -19 80 75 b 437 462 80 373 208 462 l 545 462 l 545 511 b 377 647 545 608 484 647 b 177 608 328 647 254 635 l 138 721 b 402 772 232 756 325 772 b 702 520 603 772 702 678 l 702 184 m 375 98 b 545 196 439 98 506 134 l 545 362 l 457 362 b 247 222 306 362 247 309 b 375 98 247 141 291 98 "},"б":{"ha":855,"x_min":0,"x_max":0,"o":"m 484 706 b 763 355 647 706 763 575 b 427 -19 763 112 623 -19 b 90 417 226 -19 90 113 b 376 963 90 729 149 888 b 623 1073 490 1000 544 1024 l 687 962 b 448 853 624 921 559 890 b 254 581 330 812 271 762 b 484 706 306 660 384 706 m 427 103 b 597 351 521 103 597 152 b 446 584 597 523 539 584 b 257 461 370 584 302 538 l 257 368 b 427 103 257 196 319 103 "},"в":{"ha":855,"x_min":0,"x_max":0,"o":"m 581 410 b 772 224 708 396 772 334 b 444 0 772 63 624 0 l 141 0 l 141 744 b 417 772 231 760 319 772 b 735 574 608 772 735 702 b 581 410 735 493 689 437 m 417 658 b 301 650 370 658 338 655 l 301 450 l 433 450 b 576 556 521 450 576 478 b 417 658 576 628 524 658 m 440 116 b 607 230 552 116 607 152 b 443 348 607 321 530 348 l 301 348 l 301 116 l 440 116 "},"г":{"ha":855,"x_min":0,"x_max":0,"o":"m 206 0 l 206 752 l 755 752 l 736 625 l 365 625 l 365 0 "},"ѓ":{"ha":855,"x_min":0,"x_max":0,"o":"m 666 1028 l 354 902 l 307 985 l 599 1156 m 206 0 l 206 752 l 755 752 l 736 625 l 365 625 l 365 0 "},"ґ":{"ha":855,"x_min":0,"x_max":0,"o":"m 755 952 l 755 752 l 736 625 l 365 625 l 365 0 l 206 0 l 206 752 l 601 752 l 601 952 "},"д":{"ha":855,"x_min":0,"x_max":0,"o":"m 783 124 l 783 -224 l 657 -224 l 633 0 l 179 0 l 156 -224 l 31 -224 l 31 124 l 84 124 b 193 510 145 179 174 254 l 211 752 l 721 752 l 721 124 m 566 632 l 353 632 l 346 519 b 218 124 328 257 300 184 l 566 124 "},"е":{"ha":855,"x_min":0,"x_max":0,"o":"m 259 325 b 464 105 269 170 355 105 b 662 170 538 105 598 128 l 731 75 b 457 -19 661 18 563 -19 b 94 375 222 -19 94 142 b 437 772 94 601 224 772 b 761 396 637 772 761 630 b 758 325 761 370 760 344 l 259 325 m 439 654 b 259 434 338 654 269 584 l 607 434 b 439 654 604 575 545 654 "},"ѐ":{"ha":855,"x_min":0,"x_max":0,"o":"m 264 1019 l 337 1147 l 618 970 l 570 886 m 259 325 b 464 105 269 170 355 105 b 662 170 538 105 598 128 l 731 75 b 457 -19 661 18 563 -19 b 94 375 222 -19 94 142 b 437 772 94 601 224 772 b 761 396 637 772 761 630 b 758 325 761 370 760 344 l 259 325 m 439 654 b 259 434 338 654 269 584 l 607 434 b 439 654 604 575 545 654 "},"ё":{"ha":855,"x_min":0,"x_max":0,"o":"m 286 917 b 193 1008 234 917 193 957 b 286 1098 193 1060 234 1098 b 378 1008 338 1098 378 1060 b 286 917 378 957 338 917 m 593 917 b 501 1008 542 917 501 957 b 593 1098 501 1060 542 1098 b 687 1008 646 1098 687 1060 b 593 917 687 957 646 917 m 259 325 b 464 105 269 170 355 105 b 662 170 538 105 598 128 l 731 75 b 457 -19 661 18 563 -19 b 94 375 222 -19 94 142 b 437 772 94 601 224 772 b 761 396 637 772 761 630 b 758 325 761 370 760 344 l 259 325 m 439 654 b 259 434 338 654 269 584 l 607 434 b 439 654 604 575 545 654 "},"ж":{"ha":855,"x_min":0,"x_max":0,"o":"m 365 343 l 302 343 l 164 0 l 14 0 l 188 404 l 25 752 l 175 752 l 301 449 l 365 449 l 365 752 l 489 752 l 489 449 l 554 449 l 684 752 l 830 752 l 667 404 l 840 0 l 690 0 l 551 343 l 489 343 l 489 0 l 365 0 "},"з":{"ha":855,"x_min":0,"x_max":0,"o":"m 396 449 b 543 551 489 449 543 489 b 385 653 543 620 485 653 b 160 590 309 653 226 632 l 88 680 b 393 772 168 739 281 772 b 707 566 570 772 707 702 b 543 400 707 481 642 427 b 747 222 659 388 747 333 b 391 -19 747 64 595 -19 b 62 83 242 -19 136 26 l 134 180 b 392 103 208 131 286 103 b 578 225 516 103 578 151 b 407 333 578 297 519 333 l 251 333 l 261 449 "},"и":{"ha":855,"x_min":0,"x_max":0,"o":"m 728 0 l 573 0 l 573 309 b 597 593 573 418 583 519 l 305 0 l 127 0 l 127 752 l 281 752 l 281 442 b 257 162 281 339 272 232 l 547 752 l 728 752 "},"й":{"ha":855,"x_min":0,"x_max":0,"o":"m 426 902 b 202 1085 298 902 214 978 l 301 1105 b 426 1019 318 1046 359 1019 b 553 1105 492 1019 536 1046 l 652 1085 b 426 902 640 978 553 902 m 728 0 l 573 0 l 573 309 b 597 593 573 418 583 519 l 305 0 l 127 0 l 127 752 l 281 752 l 281 442 b 257 162 281 339 272 232 l 547 752 l 728 752 "},"ѝ":{"ha":855,"x_min":0,"x_max":0,"o":"m 251 1019 l 324 1147 l 605 970 l 557 886 m 728 0 l 573 0 l 573 309 b 597 593 573 418 583 519 l 305 0 l 127 0 l 127 752 l 281 752 l 281 442 b 257 162 281 339 272 232 l 547 752 l 728 752 "},"ҋ":{"ha":855,"x_min":0,"x_max":0,"o":"m 407 902 b 184 1085 280 902 195 978 l 282 1105 b 407 1019 300 1046 340 1019 b 535 1105 474 1019 517 1046 l 633 1085 b 407 902 622 978 535 902 m 823 134 l 712 -224 l 581 -224 l 634 0 l 548 0 l 548 309 b 568 605 548 440 558 548 l 294 0 l 118 0 l 118 752 l 270 752 l 270 442 b 244 145 270 326 259 211 l 523 752 l 701 752 l 701 134 "},"к":{"ha":855,"x_min":0,"x_max":0,"o":"m 132 752 l 292 752 l 292 454 l 425 454 l 622 752 l 788 752 l 552 404 l 820 0 l 640 0 l 422 338 l 292 338 l 292 0 l 132 0 "},"ќ":{"ha":855,"x_min":0,"x_max":0,"o":"m 638 1028 l 326 902 l 279 985 l 571 1156 m 132 752 l 292 752 l 292 454 l 425 454 l 622 752 l 788 752 l 552 404 l 820 0 l 640 0 l 422 338 l 292 338 l 292 0 l 132 0 "},"л":{"ha":855,"x_min":0,"x_max":0,"o":"m 736 0 l 576 0 l 576 628 l 341 628 l 328 470 b 112 -21 306 132 261 58 l 45 81 b 177 463 115 127 154 171 l 199 752 l 736 752 "},"м":{"ha":855,"x_min":0,"x_max":0,"o":"m 806 0 l 659 0 l 637 325 b 635 601 632 412 630 500 l 629 601 l 497 124 l 361 124 l 217 601 l 211 601 b 210 324 217 513 214 414 l 193 0 l 48 0 l 100 752 l 290 752 l 431 258 l 559 752 l 753 752 "},"н":{"ha":855,"x_min":0,"x_max":0,"o":"m 568 322 l 286 322 l 286 0 l 127 0 l 127 752 l 286 752 l 286 446 l 568 446 l 568 752 l 728 752 l 728 0 l 568 0 "},"о":{"ha":855,"x_min":0,"x_max":0,"o":"m 428 772 b 767 377 648 772 767 617 b 427 -19 767 139 645 -19 b 88 376 208 -19 88 133 b 428 772 88 610 209 772 m 428 648 b 255 376 313 648 255 563 b 427 104 255 189 312 104 b 600 377 543 104 600 189 b 428 648 600 563 543 648 "},"п":{"ha":855,"x_min":0,"x_max":0,"o":"m 569 628 l 286 628 l 286 0 l 127 0 l 127 752 l 728 752 l 728 0 l 569 0 "},"р":{"ha":855,"x_min":0,"x_max":0,"o":"m 494 772 b 767 377 692 772 767 617 b 477 -19 767 147 668 -19 b 286 64 398 -19 335 9 l 286 -289 l 127 -307 l 127 752 l 266 752 l 276 655 b 494 772 333 733 410 772 m 449 649 b 286 541 378 649 324 599 l 286 189 b 435 105 323 135 373 105 b 600 377 543 105 600 188 b 449 649 600 570 550 649 "},"с":{"ha":855,"x_min":0,"x_max":0,"o":"m 489 112 b 675 177 560 112 620 139 l 749 75 b 484 -19 682 19 584 -19 b 118 373 253 -19 118 137 b 487 772 118 602 255 772 b 748 682 590 772 675 741 l 675 581 b 490 644 615 622 554 644 b 288 373 370 644 288 560 b 489 112 288 184 373 112 "},"т":{"ha":855,"x_min":0,"x_max":0,"o":"m 764 627 l 507 627 l 507 0 l 348 0 l 348 627 l 81 627 l 81 752 l 782 752 "},"у":{"ha":855,"x_min":0,"x_max":0,"o":"m 526 -3 b 157 -308 468 -174 368 -290 l 137 -188 b 377 0 289 -165 337 -109 l 323 0 l 70 752 l 239 752 l 429 111 l 621 752 l 785 752 "},"ў":{"ha":855,"x_min":0,"x_max":0,"o":"m 426 902 b 202 1085 298 902 214 978 l 301 1105 b 426 1019 318 1046 359 1019 b 553 1105 492 1019 536 1046 l 652 1085 b 426 902 640 978 553 902 m 526 -3 b 157 -308 468 -174 368 -290 l 137 -188 b 377 0 289 -165 337 -109 l 323 0 l 70 752 l 239 752 l 429 111 l 621 752 l 785 752 "},"ф":{"ha":855,"x_min":0,"x_max":0,"o":"m 491 1056 l 491 698 b 630 772 532 750 578 772 b 822 377 783 772 822 617 b 617 -19 822 137 755 -19 b 491 56 569 -19 527 6 l 491 -291 l 363 -307 l 363 55 b 235 -19 328 6 281 -19 b 33 377 98 -19 33 137 b 232 772 33 617 81 772 b 363 701 283 772 325 751 l 363 1072 m 274 655 b 186 377 212 655 186 578 b 274 98 186 176 212 98 b 363 160 310 98 330 119 l 363 598 b 274 655 333 636 313 655 m 588 655 b 491 597 549 655 524 636 l 491 160 b 579 98 521 118 543 98 b 670 377 640 98 670 173 b 588 655 670 578 649 655 "},"х":{"ha":855,"x_min":0,"x_max":0,"o":"m 61 0 l 331 397 l 91 752 l 275 752 l 429 487 l 583 752 l 758 752 l 523 403 l 793 0 l 606 0 l 422 307 l 238 0 "},"ч":{"ha":855,"x_min":0,"x_max":0,"o":"m 717 0 l 557 0 l 557 304 b 328 225 502 256 420 225 b 101 451 179 225 101 310 l 101 752 l 261 752 l 261 470 b 378 347 261 381 301 347 b 557 419 442 347 515 375 l 557 752 l 717 752 "},"ц":{"ha":855,"x_min":0,"x_max":0,"o":"m 825 124 l 825 -224 l 699 -224 l 675 0 l 113 0 l 113 752 l 272 752 l 272 125 l 556 125 l 556 752 l 714 752 l 714 124 "},"ш":{"ha":855,"x_min":0,"x_max":0,"o":"m 798 0 l 56 0 l 56 752 l 199 752 l 199 125 l 361 125 l 361 752 l 494 752 l 494 125 l 655 125 l 655 752 l 798 752 "},"щ":{"ha":855,"x_min":0,"x_max":0,"o":"m 889 124 l 889 -224 l 764 -224 l 740 0 l 56 0 l 56 752 l 199 752 l 199 125 l 361 125 l 361 752 l 494 752 l 494 125 l 655 125 l 655 752 l 798 752 l 798 124 "},"џ":{"ha":855,"x_min":0,"x_max":0,"o":"m 728 0 l 501 0 l 501 -224 l 375 -224 l 352 0 l 127 0 l 127 752 l 286 752 l 286 125 l 569 125 l 569 752 l 728 752 "},"ь":{"ha":855,"x_min":0,"x_max":0,"o":"m 318 520 l 440 520 b 772 262 677 520 772 425 b 458 0 772 72 626 0 l 159 0 l 159 752 l 318 752 m 318 406 l 318 118 l 452 118 b 605 263 544 118 605 153 b 439 406 605 359 563 406 "},"ъ":{"ha":855,"x_min":0,"x_max":0,"o":"m 363 519 l 440 519 b 791 264 662 519 791 443 b 450 0 791 73 653 0 l 204 0 l 204 634 l 36 634 l 36 752 l 363 752 m 363 405 l 363 118 l 452 118 b 623 265 552 118 623 148 b 450 405 623 366 561 405 "},"ы":{"ha":855,"x_min":0,"x_max":0,"o":"m 212 514 l 249 514 b 574 262 457 514 574 437 b 259 0 574 81 452 0 l 69 0 l 69 752 l 212 752 m 786 0 l 642 0 l 642 752 l 786 752 m 212 408 l 212 111 l 259 111 b 420 264 360 111 420 147 b 257 408 420 367 370 408 "},"љ":{"ha":855,"x_min":0,"x_max":0,"o":"m 527 512 l 544 512 b 848 261 742 512 848 434 b 551 0 848 85 732 0 l 387 0 l 387 637 l 261 637 l 253 457 b 53 -21 239 130 189 56 l -1 83 b 110 458 53 125 95 172 l 125 752 l 527 752 m 527 407 l 527 110 l 551 110 b 697 262 646 110 697 144 b 548 407 697 366 655 407 "},"њ":{"ha":855,"x_min":0,"x_max":0,"o":"m 531 476 l 548 476 b 853 239 743 476 853 405 b 548 0 853 68 734 0 l 390 0 l 390 368 l 225 368 l 225 0 l 82 0 l 82 752 l 225 752 l 225 476 l 390 476 l 390 752 l 531 752 m 531 370 l 531 112 l 550 112 b 703 240 646 112 703 132 b 555 370 703 337 656 370 "},"ѕ":{"ha":855,"x_min":0,"x_max":0,"o":"m 400 103 b 563 204 500 103 563 141 b 382 334 563 264 538 293 b 135 556 234 372 135 425 b 436 772 135 685 251 772 b 722 685 562 772 655 734 l 655 585 b 440 651 596 623 528 651 b 298 568 338 651 298 618 b 489 449 298 511 339 491 b 732 214 636 408 732 358 b 400 -19 732 52 573 -19 b 91 87 261 -19 160 26 l 176 184 b 400 103 234 136 312 103 "},"є":{"ha":855,"x_min":0,"x_max":0,"o":"m 486 772 b 749 684 588 772 675 744 l 677 589 b 490 650 614 632 556 650 b 282 441 380 650 300 582 l 608 441 l 608 329 l 281 329 b 491 105 293 170 377 105 b 678 167 560 105 617 125 l 749 70 b 486 -19 678 12 578 -19 b 118 373 251 -19 118 137 b 486 772 118 602 256 772 "},"э":{"ha":855,"x_min":0,"x_max":0,"o":"m 395 772 b 749 378 628 772 749 615 b 384 -19 749 142 620 -19 b 118 73 282 -19 189 12 l 192 168 b 381 105 251 125 310 105 b 585 329 496 105 573 170 l 259 329 l 259 441 l 583 441 b 388 650 570 585 500 650 b 198 588 318 650 257 630 l 126 684 b 395 772 200 742 291 772 "},"і":{"ha":855,"x_min":0,"x_max":0,"o":"m 427 1120 b 531 1021 489 1120 531 1077 b 427 920 531 963 489 920 b 323 1021 365 920 323 963 b 427 1120 323 1077 365 1120 m 538 117 l 742 117 l 742 0 l 153 0 l 153 117 l 378 117 l 378 635 l 160 635 l 160 752 l 538 752 "},"ї":{"ha":855,"x_min":0,"x_max":0,"o":"m 274 917 b 181 1008 222 917 181 957 b 274 1098 181 1060 222 1098 b 366 1008 325 1098 366 1060 b 274 917 366 957 325 917 m 581 917 b 489 1008 530 917 489 957 b 581 1098 489 1060 530 1098 b 675 1008 634 1098 675 1060 b 581 917 675 957 634 917 m 538 117 l 742 117 l 742 0 l 153 0 l 153 117 l 378 117 l 378 635 l 160 635 l 160 752 l 538 752 "},"ј":{"ha":855,"x_min":0,"x_max":0,"o":"m 524 1120 b 629 1021 586 1120 629 1077 b 524 920 629 963 586 920 b 420 1021 462 920 420 963 b 524 1120 420 1077 462 1120 m 649 158 b 148 -307 649 -123 469 -249 l 123 -184 b 489 147 347 -142 489 -61 l 489 635 l 192 635 l 192 752 l 649 752 "},"ћ":{"ha":855,"x_min":0,"x_max":0,"o":"m 519 772 b 729 548 661 772 729 689 l 729 0 l 570 0 l 570 524 b 462 650 570 614 538 650 b 286 538 390 650 327 596 l 286 0 l 127 0 l 127 849 l 21 849 l 21 958 l 127 958 l 127 1053 l 286 1070 l 286 958 l 511 958 l 511 849 l 286 849 l 286 660 b 519 772 347 734 432 772 "},"ю":{"ha":855,"x_min":0,"x_max":0,"o":"m 555 772 b 819 377 739 772 819 621 b 555 -19 819 137 743 -19 b 296 324 381 -19 306 121 l 211 324 l 211 0 l 66 0 l 66 752 l 211 752 l 211 443 l 296 443 b 555 772 308 643 387 772 m 555 655 b 445 376 468 655 445 568 b 555 98 445 195 466 98 b 667 377 647 98 667 195 b 555 655 667 567 641 655 "},"я":{"ha":855,"x_min":0,"x_max":0,"o":"m 713 752 l 713 0 l 553 0 l 553 281 l 385 281 l 231 0 l 57 0 l 239 316 b 107 516 152 356 107 424 b 429 752 107 665 221 752 m 553 392 l 553 639 l 426 639 b 274 519 323 639 274 601 b 425 392 274 432 319 392 "},"ђ":{"ha":855,"x_min":0,"x_max":0,"o":"m 286 958 l 511 958 l 511 849 l 286 849 l 286 662 b 519 772 347 732 432 772 b 729 548 661 772 729 689 l 729 66 b 478 -306 729 -167 642 -236 l 420 -189 b 570 45 518 -145 570 -107 l 570 534 b 462 650 570 616 535 650 b 286 538 390 650 327 596 l 286 0 l 127 0 l 127 849 l 21 849 l 21 958 l 127 958 l 127 1053 l 286 1070 "},"ѡ":{"ha":855,"x_min":0,"x_max":0,"o":"m 750 752 b 823 342 786 646 823 506 b 605 -19 823 112 749 -19 b 426 140 507 -19 446 31 b 249 -19 400 35 342 -19 b 31 342 104 -19 31 106 b 103 752 31 506 66 647 l 236 752 b 179 346 191 599 179 481 b 272 104 179 196 199 104 b 361 330 344 104 361 197 l 361 500 l 494 521 l 494 333 b 584 104 494 185 511 104 b 675 346 658 104 675 196 b 615 752 675 481 660 599 l 750 752 "},"ѣ":{"ha":855,"x_min":0,"x_max":0,"o":"m 341 769 l 531 769 l 514 660 l 341 660 l 341 514 l 430 514 b 781 260 652 514 781 437 b 444 0 781 75 647 0 l 182 0 l 182 660 l 71 660 l 71 769 l 182 769 l 182 925 l 341 943 m 341 399 l 341 118 l 442 118 b 613 261 542 118 613 147 b 439 399 613 360 551 399 "},"ѥ":{"ha":855,"x_min":0,"x_max":0,"o":"m 626 100 b 751 152 679 100 716 120 l 824 70 b 620 -19 769 13 694 -19 b 318 324 439 -19 333 114 l 236 324 l 236 0 l 90 0 l 90 752 l 236 752 l 236 443 l 321 443 b 626 772 340 636 444 772 b 827 690 705 772 769 744 l 755 607 b 627 655 717 637 679 655 b 467 441 531 655 481 580 l 720 441 l 720 329 l 467 329 b 626 100 472 165 536 100 "},"ѧ":{"ha":855,"x_min":0,"x_max":0,"o":"m 558 279 l 486 279 l 486 0 l 363 0 l 363 279 l 293 279 l 194 0 l 41 0 l 332 752 l 525 752 l 815 0 l 659 0 m 518 393 l 425 653 l 333 393 "},"ѩ":{"ha":855,"x_min":0,"x_max":0,"o":"m 652 278 l 602 278 l 602 0 l 491 0 l 491 278 l 447 278 l 371 0 l 240 0 l 321 278 l 193 278 l 193 0 l 53 0 l 53 752 l 193 752 l 193 390 l 353 390 l 459 752 l 641 752 l 861 0 l 727 0 m 621 390 l 548 655 l 476 390 "},"ѫ":{"ha":855,"x_min":0,"x_max":0,"o":"m 833 0 l 693 0 l 592 315 l 500 315 l 500 0 l 356 0 l 356 315 l 265 315 l 164 0 l 22 0 l 175 427 l 296 427 l 129 672 l 129 752 l 719 752 l 719 672 l 552 427 l 682 427 m 425 427 l 563 647 l 286 647 "},"ѭ":{"ha":855,"x_min":0,"x_max":0,"o":"m 882 0 l 747 0 l 665 316 l 616 316 l 616 0 l 485 0 l 485 316 l 434 316 l 351 0 l 216 0 l 313 316 l 170 316 l 170 0 l 31 0 l 31 752 l 170 752 l 170 429 l 426 429 l 280 672 l 280 752 l 811 752 l 811 672 l 666 429 l 754 429 m 548 429 l 667 651 l 428 651 "},"ѯ":{"ha":855,"x_min":0,"x_max":0,"o":"m 657 1067 l 462 887 l 360 887 l 163 1067 l 230 1138 l 411 1007 l 593 1138 m 307 -311 b 109 -106 179 -260 109 -194 b 357 71 109 -11 179 43 b 577 197 515 95 577 120 b 469 290 577 264 538 290 l 229 290 l 229 397 l 509 627 l 113 627 l 113 752 l 707 752 l 707 635 l 413 403 l 499 403 b 749 195 652 403 749 334 b 452 -43 749 47 630 -15 b 271 -122 301 -67 271 -83 b 359 -211 271 -155 302 -182 l 307 -311 "},"ѱ":{"ha":855,"x_min":0,"x_max":0,"o":"m 496 105 b 670 373 641 125 670 206 b 634 752 670 486 657 611 l 778 752 b 816 363 801 631 816 511 b 496 -13 816 142 723 13 l 496 -289 l 360 -307 l 360 -13 b 52 280 135 6 52 130 l 52 752 l 197 752 l 197 288 b 360 105 197 177 241 120 l 360 752 l 496 752 "},"ѳ":{"ha":855,"x_min":0,"x_max":0,"o":"m 428 772 b 767 377 648 772 767 617 b 427 -19 767 139 645 -19 b 88 376 208 -19 88 133 b 428 772 88 610 209 772 m 428 650 b 254 436 322 650 263 580 l 601 436 b 428 650 592 579 533 650 m 253 328 b 427 103 264 170 322 103 b 601 328 531 103 590 170 "},"ѵ":{"ha":855,"x_min":0,"x_max":0,"o":"m 61 752 l 234 752 l 412 134 l 558 650 b 737 819 590 771 638 819 b 842 796 776 819 809 810 l 804 686 b 763 694 792 691 778 694 b 705 634 734 694 719 678 l 506 0 l 316 0 "},"ѷ":{"ha":855,"x_min":0,"x_max":0,"o":"m 270 898 l 106 1140 l 229 1202 l 360 944 m 501 900 l 348 1144 l 472 1202 l 593 942 m 61 752 l 234 752 l 412 134 l 558 650 b 737 819 590 771 638 819 b 842 796 776 819 809 810 l 804 686 b 763 694 792 691 778 694 b 705 634 734 694 719 678 l 506 0 l 316 0 "},"ѹ":{"ha":855,"x_min":0,"x_max":0,"o":"m 222 -19 b -4 376 68 -19 -4 133 b 223 772 -4 610 69 772 b 447 377 381 772 447 617 b 222 -19 447 139 379 -19 m 411 -213 b 624 0 536 -181 597 -130 l 564 0 l 442 752 l 574 752 l 655 111 l 738 752 l 866 752 l 742 6 b 434 -308 709 -193 598 -286 m 222 85 b 317 377 293 85 317 172 b 223 669 317 583 293 669 b 127 376 151 669 127 581 b 222 85 127 172 150 85 "},"ғ":{"ha":855,"x_min":0,"x_max":0,"o":"m 406 625 l 406 435 l 580 435 l 580 323 l 406 323 l 406 0 l 246 0 l 246 323 l 123 323 l 123 435 l 246 435 l 246 752 l 796 752 l 778 625 "},"ҕ":{"ha":855,"x_min":0,"x_max":0,"o":"m 514 496 b 729 266 642 496 729 415 l 729 -68 b 496 -309 729 -226 640 -309 b 323 -252 417 -309 363 -282 l 385 -156 b 484 -185 415 -173 439 -185 b 570 -83 537 -185 570 -157 l 570 254 b 468 374 570 342 531 374 b 294 271 393 374 341 329 l 294 0 l 135 0 l 135 752 l 627 752 l 605 631 l 294 631 l 294 393 b 514 496 345 452 422 496 "},"җ":{"ha":855,"x_min":0,"x_max":0,"o":"m 865 124 l 865 -224 l 758 -224 l 734 0 l 681 0 l 551 343 l 489 343 l 489 0 l 365 0 l 365 343 l 302 343 l 173 0 l 24 0 l 188 404 l 34 752 l 184 752 l 301 449 l 365 449 l 365 752 l 489 752 l 489 449 l 554 449 l 675 752 l 821 752 l 667 404 l 781 124 "},"ҙ":{"ha":855,"x_min":0,"x_max":0,"o":"m 747 222 b 459 -16 747 82 628 1 l 459 -76 b 597 -204 555 -85 597 -140 b 408 -353 597 -298 514 -353 b 252 -314 347 -353 290 -336 l 296 -232 b 390 -256 323 -246 359 -256 b 472 -202 439 -256 472 -241 b 345 -147 472 -157 425 -147 l 357 -19 b 62 83 226 -12 130 30 l 134 180 b 392 103 208 131 286 103 b 578 225 516 103 578 151 b 407 333 578 297 519 333 l 251 333 l 261 449 l 396 449 b 543 551 489 449 543 489 b 385 653 543 620 485 653 b 160 590 309 653 226 632 l 88 680 b 393 772 168 739 281 772 b 707 566 570 772 707 702 b 543 400 707 481 642 427 b 747 222 659 388 747 333 "},"қ":{"ha":855,"x_min":0,"x_max":0,"o":"m 842 124 l 842 -224 l 717 -224 l 693 0 l 640 0 l 422 338 l 292 338 l 292 0 l 132 0 l 132 752 l 292 752 l 292 454 l 425 454 l 622 752 l 788 752 l 552 404 l 738 124 "},"ҝ":{"ha":855,"x_min":0,"x_max":0,"o":"m 132 752 l 288 752 l 288 450 l 347 450 l 347 614 l 416 614 l 416 450 l 451 450 l 628 752 l 788 752 l 578 405 l 820 0 l 650 0 l 451 343 l 416 343 l 416 170 l 347 170 l 347 343 l 288 343 l 288 0 l 132 0 "},"ҟ":{"ha":855,"x_min":0,"x_max":0,"o":"m 813 0 l 632 0 l 415 338 l 313 338 l 313 0 l 154 0 l 154 807 l 41 807 l 41 916 l 154 916 l 154 1054 l 313 1072 l 313 916 l 511 916 l 511 807 l 313 807 l 313 454 l 418 454 l 615 752 l 781 752 l 545 404 "},"ҡ":{"ha":855,"x_min":0,"x_max":0,"o":"m 843 0 l 663 0 l 449 338 l 334 338 l 334 0 l 175 0 l 175 634 l 7 634 l 7 752 l 334 752 l 334 454 l 453 454 l 645 752 l 812 752 l 580 404 "},"ң":{"ha":855,"x_min":0,"x_max":0,"o":"m 815 124 l 815 -224 l 689 -224 l 665 0 l 545 0 l 545 322 l 263 322 l 263 0 l 103 0 l 103 752 l 263 752 l 263 446 l 545 446 l 545 752 l 704 752 l 704 124 "},"ҥ":{"ha":855,"x_min":0,"x_max":0,"o":"m 841 628 l 661 628 l 661 0 l 501 0 l 501 322 l 261 322 l 261 0 l 102 0 l 102 752 l 261 752 l 261 446 l 501 446 l 501 752 l 861 752 "},"ԥ":{"ha":855,"x_min":0,"x_max":0,"o":"m 827 124 l 827 -224 l 702 -224 l 677 0 l 558 0 l 558 628 l 275 628 l 275 0 l 115 0 l 115 752 l 717 752 l 717 124 "},"ҧ":{"ha":855,"x_min":0,"x_max":0,"o":"m 668 496 b 854 289 776 496 854 415 l 854 -72 b 629 -309 854 -227 764 -309 b 457 -252 551 -309 497 -282 l 517 -160 b 618 -190 548 -177 572 -190 b 704 -90 671 -190 704 -162 l 704 283 b 625 377 704 345 676 377 b 521 336 583 377 551 363 l 521 0 l 370 0 l 370 632 l 185 632 l 185 0 l 35 0 l 35 752 l 521 752 l 521 443 b 668 496 560 476 605 496 "},"ҩ":{"ha":855,"x_min":0,"x_max":0,"o":"m 798 308 b 635 34 798 201 739 95 b 759 -117 668 -10 709 -59 l 672 -185 b 525 -9 613 -120 565 -61 b 429 -19 495 -16 463 -19 b 75 370 209 -19 75 130 b 422 772 75 609 207 772 b 600 728 488 772 548 758 l 543 616 b 429 644 508 634 472 644 b 244 373 317 644 244 560 b 437 109 244 184 317 109 l 446 109 b 384 307 403 184 384 247 b 592 514 384 425 460 514 b 798 308 714 514 798 438 m 516 308 b 566 137 516 255 530 202 b 662 313 632 172 662 236 b 591 407 662 373 636 407 b 516 308 542 407 516 368 "},"ҫ":{"ha":855,"x_min":0,"x_max":0,"o":"m 548 -14 b 659 -187 618 -57 659 -113 b 466 -350 659 -286 585 -350 b 323 -315 403 -350 358 -335 l 360 -227 b 454 -251 381 -239 411 -251 b 536 -175 509 -251 536 -221 b 432 -16 536 -122 507 -66 b 118 373 233 5 118 155 b 487 772 118 602 255 772 b 748 682 590 772 675 741 l 675 581 b 490 644 615 622 554 644 b 288 373 370 644 288 560 b 489 112 288 184 373 112 b 675 177 560 112 620 139 l 749 75 b 548 -14 697 31 625 -2 "},"ҭ":{"ha":855,"x_min":0,"x_max":0,"o":"m 507 627 l 507 124 l 617 124 l 617 -224 l 491 -224 l 468 0 l 348 0 l 348 627 l 81 627 l 81 752 l 782 752 l 764 627 "},"ү":{"ha":855,"x_min":0,"x_max":0,"o":"m 350 17 l 64 752 l 235 752 l 431 160 l 627 752 l 791 752 l 505 17 l 505 -289 l 350 -307 "},"ұ":{"ha":855,"x_min":0,"x_max":0,"o":"m 538 103 l 650 103 l 650 -5 l 505 -5 l 505 -289 l 350 -307 l 350 -5 l 205 -5 l 205 103 l 316 103 l 64 752 l 235 752 l 431 160 l 627 752 l 791 752 "},"ҳ":{"ha":855,"x_min":0,"x_max":0,"o":"m 422 307 l 312 124 l 501 124 l 501 -224 l 375 -224 l 352 0 l 299 0 l 292 91 l 238 0 l 61 0 l 331 397 l 91 752 l 275 752 l 429 487 l 583 752 l 758 752 l 523 403 l 793 0 l 606 0 "},"ҵ":{"ha":855,"x_min":0,"x_max":0,"o":"m 796 124 l 796 -224 l 674 -224 l 650 0 l 157 0 l 157 639 l 0 639 l 0 752 l 474 752 l 453 639 l 312 639 l 312 125 l 556 125 l 556 752 l 711 752 l 711 124 "},"ҷ":{"ha":855,"x_min":0,"x_max":0,"o":"m 812 124 l 812 -224 l 687 -224 l 662 0 l 543 0 l 543 304 b 314 225 488 256 406 225 b 87 451 165 225 87 310 l 87 752 l 246 752 l 246 470 b 364 347 246 381 287 347 b 543 419 427 347 501 375 l 543 752 l 702 752 l 702 124 "},"ҹ":{"ha":855,"x_min":0,"x_max":0,"o":"m 717 752 l 717 0 l 557 0 l 557 304 b 439 241 526 276 485 254 l 439 125 l 359 125 l 359 226 b 328 225 349 226 339 225 b 101 451 179 225 101 310 l 101 752 l 261 752 l 261 470 b 359 348 261 389 295 353 l 359 560 l 439 560 l 439 355 b 557 419 484 366 528 388 l 557 752 "},"һ":{"ha":855,"x_min":0,"x_max":0,"o":"m 507 689 b 727 457 644 689 727 604 l 727 0 l 568 0 l 568 440 b 462 568 568 535 528 568 b 288 459 385 568 333 524 l 288 0 l 128 0 l 128 1053 l 288 1070 l 288 581 b 507 689 340 647 414 689 "},"ԧ":{"ha":855,"x_min":0,"x_max":0,"o":"m 829 124 l 829 -224 l 704 -224 l 680 0 l 560 0 l 560 440 b 453 568 560 535 520 568 b 280 459 377 568 325 524 l 280 0 l 120 0 l 120 1053 l 280 1070 l 280 581 b 499 689 332 647 406 689 b 719 457 636 689 719 604 l 719 124 "},"ҽ":{"ha":855,"x_min":0,"x_max":0,"o":"m 801 396 b 798 325 801 370 800 344 l 359 325 b 540 103 363 169 439 103 b 702 157 610 103 655 126 l 772 67 b 536 -19 717 21 635 -19 b 209 325 335 -19 224 119 b 12 498 81 328 12 394 b 63 640 12 556 38 600 l 155 598 b 130 503 142 567 130 538 b 201 434 130 460 153 434 l 210 434 b 512 772 228 628 337 772 b 801 396 698 772 801 630 m 654 434 b 513 656 652 580 608 656 b 358 434 425 656 368 586 "},"ҿ":{"ha":855,"x_min":0,"x_max":0,"o":"m 801 396 b 798 325 801 370 800 344 l 359 325 b 540 103 363 169 439 103 b 702 157 610 103 655 126 l 772 67 b 650 -1 740 40 699 15 b 481 -161 511 -58 481 -108 b 561 -229 481 -204 506 -229 b 645 -219 591 -229 614 -226 l 631 -329 b 543 -340 604 -335 579 -340 b 354 -186 430 -340 354 -278 b 466 -13 354 -112 393 -57 b 209 325 309 16 222 145 b 12 498 81 328 12 394 b 63 640 12 556 38 600 l 155 598 b 130 503 142 567 130 538 b 201 434 130 460 153 434 l 210 434 b 512 772 228 628 337 772 b 801 396 698 772 801 630 m 654 434 b 513 656 652 580 608 656 b 358 434 425 656 368 586 "},"ӏ":{"ha":855,"x_min":0,"x_max":0,"o":"m 457 205 b 571 110 457 136 504 110 b 690 135 614 110 653 120 l 731 24 b 537 -19 686 1 621 -19 b 298 219 385 -19 298 72 l 298 937 l 71 937 l 71 1054 l 457 1054 "},"ӂ":{"ha":855,"x_min":0,"x_max":0,"o":"m 426 902 b 202 1085 298 902 214 978 l 301 1105 b 426 1019 318 1046 359 1019 b 553 1105 492 1019 536 1046 l 652 1085 b 426 902 640 978 553 902 m 365 343 l 302 343 l 164 0 l 14 0 l 188 404 l 25 752 l 175 752 l 301 449 l 365 449 l 365 752 l 489 752 l 489 449 l 554 449 l 684 752 l 830 752 l 667 404 l 840 0 l 690 0 l 551 343 l 489 343 l 489 0 l 365 0 "},"ӄ":{"ha":855,"x_min":0,"x_max":0,"o":"m 534 429 b 725 199 656 413 725 336 l 725 -68 b 491 -309 725 -226 635 -309 b 319 -252 412 -309 359 -282 l 380 -156 b 480 -185 411 -173 436 -185 b 566 -83 533 -185 566 -157 l 566 193 b 439 318 566 284 528 318 l 292 318 l 292 0 l 132 0 l 132 752 l 292 752 l 292 434 l 385 434 l 575 752 l 735 752 l 534 429 "},"ӆ":{"ha":855,"x_min":0,"x_max":0,"o":"m 812 134 l 700 -224 l 570 -224 l 622 0 l 530 0 l 530 628 l 338 628 l 325 470 b 108 -21 301 132 257 58 l 41 81 b 173 463 112 127 150 171 l 195 752 l 689 752 l 689 134 "},"ӈ":{"ha":855,"x_min":0,"x_max":0,"o":"m 728 752 l 728 -68 b 494 -309 728 -226 638 -309 b 322 -252 415 -309 362 -282 l 383 -156 b 483 -185 414 -173 439 -185 b 568 -83 536 -185 568 -157 l 568 322 l 286 322 l 286 0 l 127 0 l 127 752 l 286 752 l 286 446 l 568 446 l 568 752 "},"ӊ":{"ha":855,"x_min":0,"x_max":0,"o":"m 816 134 l 704 -224 l 574 -224 l 627 0 l 536 0 l 536 322 l 286 322 l 286 0 l 126 0 l 126 752 l 286 752 l 286 446 l 536 446 l 536 752 l 695 752 l 695 134 "},"ӌ":{"ha":855,"x_min":0,"x_max":0,"o":"m 717 752 l 717 0 l 603 0 l 579 -224 l 454 -224 l 454 124 l 557 124 l 557 326 b 328 248 502 278 420 248 b 101 474 179 248 101 333 l 101 752 l 261 752 l 261 493 b 378 370 261 404 301 370 b 557 441 442 370 516 397 l 557 752 "},"ӎ":{"ha":855,"x_min":0,"x_max":0,"o":"m 860 134 l 748 -224 l 630 -224 l 682 0 l 607 0 l 585 325 b 578 618 580 412 577 500 l 473 124 l 338 124 l 219 618 b 217 324 224 513 221 414 l 200 0 l 58 0 l 110 752 l 299 752 l 407 258 l 503 752 l 699 752 l 743 134 "},"ӑ":{"ha":855,"x_min":0,"x_max":0,"o":"m 415 902 b 191 1085 287 902 202 978 l 289 1105 b 415 1019 307 1046 348 1019 b 542 1105 481 1019 524 1046 l 640 1085 b 415 902 629 978 542 902 m 702 184 b 759 90 702 125 719 103 l 723 -19 b 567 85 649 -10 594 20 b 327 -19 512 16 423 -19 b 80 214 175 -19 80 75 b 437 462 80 373 208 462 l 545 462 l 545 511 b 377 647 545 608 484 647 b 177 608 328 647 254 635 l 138 721 b 402 772 232 756 325 772 b 702 520 603 772 702 678 l 702 184 m 375 98 b 545 196 439 98 506 134 l 545 362 l 457 362 b 247 222 306 362 247 309 b 375 98 247 141 291 98 "},"ӓ":{"ha":855,"x_min":0,"x_max":0,"o":"m 263 917 b 170 1008 210 917 170 957 b 263 1098 170 1060 210 1098 b 355 1008 314 1098 355 1060 b 263 917 355 957 314 917 m 570 917 b 478 1008 519 917 478 957 b 570 1098 478 1060 519 1098 b 663 1008 623 1098 663 1060 b 570 917 663 957 623 917 m 702 184 b 759 90 702 125 719 103 l 723 -19 b 567 85 649 -10 594 20 b 327 -19 512 16 423 -19 b 80 214 175 -19 80 75 b 437 462 80 373 208 462 l 545 462 l 545 511 b 377 647 545 608 484 647 b 177 608 328 647 254 635 l 138 721 b 402 772 232 756 325 772 b 702 520 603 772 702 678 l 702 184 m 375 98 b 545 196 439 98 506 134 l 545 362 l 457 362 b 247 222 306 362 247 309 b 375 98 247 141 291 98 "},"ӕ":{"ha":855,"x_min":0,"x_max":0,"o":"m 615 772 b 860 396 788 772 860 632 b 858 328 860 370 860 348 l 489 328 b 641 99 502 171 548 99 b 776 152 693 99 731 118 l 843 58 b 635 -19 786 12 722 -19 b 413 111 533 -19 464 25 b 207 -19 355 19 303 -19 b -9 216 74 -19 -9 75 b 291 460 -9 373 92 460 l 353 460 l 353 511 b 224 657 353 613 306 657 b 81 620 175 657 141 647 l 42 723 b 239 772 109 754 173 772 b 432 656 347 772 401 726 b 615 772 463 727 525 772 m 610 657 b 489 432 535 657 499 600 l 724 432 b 610 657 722 581 696 657 m 303 363 b 142 224 183 363 142 308 b 233 94 142 140 177 94 b 365 210 288 94 326 134 b 353 363 357 258 353 310 "},"ӗ":{"ha":855,"x_min":0,"x_max":0,"o":"m 439 902 b 215 1085 311 902 226 978 l 313 1105 b 439 1019 331 1046 372 1019 b 566 1105 505 1019 548 1046 l 665 1085 b 439 902 653 978 566 902 m 259 325 b 464 105 269 170 355 105 b 662 170 538 105 598 128 l 731 75 b 457 -19 661 18 563 -19 b 94 375 222 -19 94 142 b 437 772 94 601 224 772 b 761 396 637 772 761 630 b 758 325 761 370 760 344 l 259 325 m 439 654 b 259 434 338 654 269 584 l 607 434 b 439 654 604 575 545 654 "},"ә":{"ha":855,"x_min":0,"x_max":0,"o":"m 417 772 b 766 377 659 772 766 615 b 420 -19 766 140 640 -19 b 88 357 216 -19 88 120 b 92 428 88 381 89 407 l 603 428 b 412 650 594 583 529 650 b 212 580 336 650 275 631 l 142 679 b 417 772 212 736 302 772 m 420 102 b 603 319 534 102 598 160 l 241 319 l 241 309 b 420 102 243 177 306 102 "},"ӛ":{"ha":855,"x_min":0,"x_max":0,"o":"m 279 917 b 186 1008 226 917 186 957 b 279 1098 186 1060 226 1098 b 371 1008 330 1098 371 1060 b 279 917 371 957 330 917 m 586 917 b 494 1008 535 917 494 957 b 586 1098 494 1060 535 1098 b 679 1008 639 1098 679 1060 b 586 917 679 957 639 917 m 417 772 b 766 377 659 772 766 615 b 420 -19 766 140 640 -19 b 88 357 216 -19 88 120 b 92 428 88 381 89 407 l 603 428 b 412 650 594 583 529 650 b 212 580 336 650 275 631 l 142 679 b 417 772 212 736 302 772 m 420 102 b 603 319 534 102 598 160 l 241 319 l 241 309 b 420 102 243 177 306 102 "},"ӝ":{"ha":855,"x_min":0,"x_max":0,"o":"m 274 917 b 180 1008 221 917 180 957 b 274 1098 180 1060 221 1098 b 365 1008 325 1098 365 1060 b 274 917 365 957 325 917 m 580 917 b 489 1008 529 917 489 957 b 580 1098 489 1060 529 1098 b 674 1008 633 1098 674 1060 b 580 917 674 957 633 917 m 365 343 l 302 343 l 164 0 l 14 0 l 188 404 l 25 752 l 175 752 l 301 449 l 365 449 l 365 752 l 489 752 l 489 449 l 554 449 l 684 752 l 830 752 l 667 404 l 840 0 l 690 0 l 551 343 l 489 343 l 489 0 l 365 0 "},"ӟ":{"ha":855,"x_min":0,"x_max":0,"o":"m 261 916 b 167 1006 208 916 167 955 b 261 1097 167 1058 208 1097 b 353 1006 312 1097 353 1058 b 261 916 353 955 312 916 m 568 916 b 476 1006 516 916 476 955 b 568 1097 476 1058 516 1097 b 661 1006 620 1097 661 1058 b 568 916 661 955 620 916 m 396 449 b 543 551 489 449 543 489 b 385 653 543 620 485 653 b 160 590 309 653 226 632 l 88 680 b 393 772 168 739 281 772 b 707 566 570 772 707 702 b 543 400 707 481 642 427 b 747 222 659 388 747 333 b 391 -19 747 64 595 -19 b 62 83 242 -19 136 26 l 134 180 b 392 103 208 131 286 103 b 578 225 516 103 578 151 b 407 333 578 297 519 333 l 251 333 l 261 449 "},"ӡ":{"ha":855,"x_min":0,"x_max":0,"o":"m 423 297 b 751 14 618 297 751 203 b 392 -307 751 -175 606 -307 b 74 -181 241 -307 150 -260 l 160 -93 b 387 -182 224 -153 287 -182 b 582 13 506 -182 582 -115 b 374 187 582 140 504 187 l 240 187 l 240 295 l 534 627 l 119 627 l 119 752 l 714 752 l 714 637 l 408 297 l 423 297 "},"ӣ":{"ha":855,"x_min":0,"x_max":0,"o":"m 226 953 l 226 1069 l 628 1069 l 628 953 m 728 0 l 573 0 l 573 309 b 597 593 573 418 583 519 l 305 0 l 127 0 l 127 752 l 281 752 l 281 442 b 257 162 281 339 272 232 l 547 752 l 728 752 "},"ӥ":{"ha":855,"x_min":0,"x_max":0,"o":"m 274 917 b 180 1008 221 917 180 957 b 274 1098 180 1060 221 1098 b 365 1008 325 1098 365 1060 b 274 917 365 957 325 917 m 580 917 b 489 1008 529 917 489 957 b 580 1098 489 1060 529 1098 b 674 1008 633 1098 674 1060 b 580 917 674 957 633 917 m 728 0 l 573 0 l 573 309 b 597 593 573 418 583 519 l 305 0 l 127 0 l 127 752 l 281 752 l 281 442 b 257 162 281 339 272 232 l 547 752 l 728 752 "},"ӧ":{"ha":855,"x_min":0,"x_max":0,"o":"m 274 917 b 180 1008 221 917 180 957 b 274 1098 180 1060 221 1098 b 365 1008 325 1098 365 1060 b 274 917 365 957 325 917 m 580 917 b 489 1008 529 917 489 957 b 580 1098 489 1060 529 1098 b 674 1008 633 1098 674 1060 b 580 917 674 957 633 917 m 428 772 b 767 377 648 772 767 617 b 427 -19 767 139 645 -19 b 88 376 208 -19 88 133 b 428 772 88 610 209 772 m 428 648 b 255 376 313 648 255 563 b 427 104 255 189 312 104 b 600 377 543 104 600 189 b 428 648 600 563 543 648 "},"ө":{"ha":855,"x_min":0,"x_max":0,"o":"m 428 772 b 767 377 648 772 767 617 b 427 -19 767 139 645 -19 b 88 376 208 -19 88 133 b 428 772 88 610 209 772 m 428 650 b 254 436 322 650 263 580 l 601 436 b 428 650 592 579 533 650 m 253 328 b 427 103 264 170 322 103 b 601 328 531 103 590 170 "},"ӫ":{"ha":855,"x_min":0,"x_max":0,"o":"m 275 917 b 182 1008 222 917 182 957 b 275 1098 182 1060 222 1098 b 367 1008 326 1098 367 1060 b 275 917 367 957 326 917 m 582 917 b 490 1008 531 917 490 957 b 582 1098 490 1060 531 1098 b 675 1008 635 1098 675 1060 b 582 917 675 957 635 917 m 428 772 b 767 377 648 772 767 617 b 427 -19 767 139 645 -19 b 88 376 208 -19 88 133 b 428 772 88 610 209 772 m 428 650 b 254 436 322 650 263 580 l 601 436 b 428 650 592 579 533 650 m 253 328 b 427 103 264 170 322 103 b 601 328 531 103 590 170 "},"ӭ":{"ha":855,"x_min":0,"x_max":0,"o":"m 269 917 b 176 1008 217 917 176 957 b 269 1098 176 1060 217 1098 b 361 1008 321 1098 361 1060 b 269 917 361 957 321 917 m 576 917 b 484 1008 525 917 484 957 b 576 1098 484 1060 525 1098 b 670 1008 629 1098 670 1060 b 576 917 670 957 629 917 m 395 772 b 749 378 628 772 749 615 b 384 -19 749 142 620 -19 b 118 73 282 -19 189 12 l 192 168 b 381 105 251 125 310 105 b 585 329 496 105 573 170 l 259 329 l 259 441 l 583 441 b 388 650 570 585 500 650 b 198 588 318 650 257 630 l 126 684 b 395 772 200 742 291 772 "},"ӯ":{"ha":855,"x_min":0,"x_max":0,"o":"m 226 953 l 226 1069 l 628 1069 l 628 953 m 526 -3 b 157 -308 468 -174 368 -290 l 137 -188 b 377 0 289 -165 337 -109 l 323 0 l 70 752 l 239 752 l 429 111 l 621 752 l 785 752 "},"ӱ":{"ha":855,"x_min":0,"x_max":0,"o":"m 274 917 b 180 1008 221 917 180 957 b 274 1098 180 1060 221 1098 b 365 1008 325 1098 365 1060 b 274 917 365 957 325 917 m 580 917 b 489 1008 529 917 489 957 b 580 1098 489 1060 529 1098 b 674 1008 633 1098 674 1060 b 580 917 674 957 633 917 m 526 -3 b 157 -308 468 -174 368 -290 l 137 -188 b 377 0 289 -165 337 -109 l 323 0 l 70 752 l 239 752 l 429 111 l 621 752 l 785 752 "},"ӳ":{"ha":855,"x_min":0,"x_max":0,"o":"m 365 1202 l 489 1144 l 335 900 l 243 942 m 608 1202 l 730 1140 l 566 898 l 476 944 m 526 -3 b 157 -308 468 -174 368 -290 l 137 -188 b 377 0 289 -165 337 -109 l 323 0 l 70 752 l 239 752 l 429 111 l 621 752 l 785 752 "},"ӵ":{"ha":855,"x_min":0,"x_max":0,"o":"m 255 917 b 162 1008 202 917 162 957 b 255 1098 162 1060 202 1098 b 347 1008 306 1098 347 1060 b 255 917 347 957 306 917 m 562 917 b 470 1008 511 917 470 957 b 562 1098 470 1060 511 1098 b 655 1008 615 1098 655 1060 b 562 917 655 957 615 917 m 717 0 l 557 0 l 557 304 b 328 225 502 256 420 225 b 101 451 179 225 101 310 l 101 752 l 261 752 l 261 470 b 378 347 261 381 301 347 b 557 419 442 347 515 375 l 557 752 l 717 752 "},"ӷ":{"ha":855,"x_min":0,"x_max":0,"o":"m 365 625 l 365 124 l 475 124 l 475 -224 l 350 -224 l 326 0 l 206 0 l 206 752 l 755 752 l 736 625 "},"ӹ":{"ha":855,"x_min":0,"x_max":0,"o":"m 274 917 b 180 1008 221 917 180 957 b 274 1098 180 1060 221 1098 b 365 1008 325 1098 365 1060 b 274 917 365 957 325 917 m 580 917 b 489 1008 529 917 489 957 b 580 1098 489 1060 529 1098 b 674 1008 633 1098 674 1060 b 580 917 674 957 633 917 m 212 514 l 249 514 b 574 262 457 514 574 437 b 259 0 574 81 452 0 l 69 0 l 69 752 l 212 752 m 786 0 l 642 0 l 642 752 l 786 752 m 212 408 l 212 111 l 259 111 b 420 264 360 111 420 147 b 257 408 420 367 370 408 "},"ӻ":{"ha":855,"x_min":0,"x_max":0,"o":"m 406 625 l 406 435 l 580 435 l 580 323 l 406 323 l 406 124 l 494 124 l 494 -68 b 260 -309 494 -226 404 -309 b 88 -252 181 -309 127 -282 l 149 -156 b 249 -185 179 -173 204 -185 b 334 -83 301 -185 334 -157 l 334 0 l 246 0 l 246 323 l 123 323 l 123 435 l 246 435 l 246 752 l 796 752 l 778 625 "},"ӽ":{"ha":855,"x_min":0,"x_max":0,"o":"m 802 124 l 802 -68 b 568 -309 802 -226 712 -309 b 395 -252 489 -309 436 -282 l 457 -156 b 557 -185 488 -173 512 -185 b 642 -83 610 -185 642 -157 l 642 0 l 592 0 l 407 307 l 224 0 l 47 0 l 317 397 l 77 752 l 261 752 l 415 487 l 568 752 l 744 752 l 509 403 l 696 124 "},"ӿ":{"ha":855,"x_min":0,"x_max":0,"o":"m 793 0 l 606 0 l 427 321 l 238 0 l 61 0 l 301 353 l 95 353 l 95 454 l 292 454 l 91 752 l 274 752 l 427 472 l 583 752 l 758 752 l 557 454 l 759 454 l 759 353 l 556 353 "},"ԁ":{"ha":855,"x_min":0,"x_max":0,"o":"m 728 1054 l 728 0 l 588 0 l 576 93 b 365 -19 526 21 453 -19 b 82 376 172 -19 82 140 b 379 772 82 605 193 772 b 568 690 458 772 520 744 l 568 1072 m 421 650 b 251 376 313 650 251 563 b 407 103 251 184 308 103 b 568 210 479 103 531 151 l 568 566 b 421 650 531 619 481 650 "},"ԃ":{"ha":855,"x_min":0,"x_max":0,"o":"m 839 538 b 847 362 844 482 847 425 b 596 -21 847 93 745 -21 b 406 101 516 -21 444 17 b 242 -19 360 16 308 -19 b 8 375 92 -19 8 135 b 246 772 8 605 105 772 b 377 707 305 772 345 746 l 377 1071 l 526 1054 l 526 219 b 600 98 526 139 555 98 b 697 359 658 98 697 162 b 689 538 697 423 694 479 l 839 538 m 264 99 b 377 200 306 99 340 129 l 377 584 b 276 654 349 626 320 654 b 165 376 208 654 165 568 b 264 99 165 177 202 99 "},"ԅ":{"ha":855,"x_min":0,"x_max":0,"o":"m 817 538 b 825 362 822 482 825 425 b 547 -21 825 93 709 -21 b 268 169 420 -21 340 35 l 210 274 l 69 274 l 69 392 l 194 392 b 342 516 288 392 342 429 b 182 636 342 600 287 636 l 11 636 l 11 752 l 183 752 b 507 518 395 752 507 669 b 355 309 507 412 452 348 l 418 196 b 548 100 459 122 499 100 b 667 359 619 100 667 165 b 660 538 667 423 664 479 l 817 538 "},"ԇ":{"ha":855,"x_min":0,"x_max":0,"o":"m 763 124 l 763 -224 l 637 -224 l 614 0 l 550 0 l 380 274 l 165 274 l 165 392 l 357 392 b 504 516 452 392 504 429 b 345 636 504 600 449 636 l 107 636 l 108 752 l 345 752 b 670 518 558 752 670 670 b 524 309 670 418 623 351 l 646 124 "},"ԉ":{"ha":855,"x_min":0,"x_max":0,"o":"m 835 538 b 843 362 840 482 843 425 b 591 -21 843 93 734 -21 b 375 219 473 -21 375 57 l 375 630 l 256 630 l 241 444 b 63 -21 217 119 171 54 l -4 75 b 98 442 50 122 78 179 l 121 752 l 524 752 l 524 194 b 593 98 524 139 547 98 b 692 359 650 98 692 162 b 685 538 692 423 689 479 l 835 538 "},"ԋ":{"ha":855,"x_min":0,"x_max":0,"o":"m 840 538 b 847 362 844 482 847 425 b 594 -21 847 93 736 -21 b 377 219 476 -21 377 57 l 377 323 l 202 323 l 202 0 l 53 0 l 53 752 l 202 752 l 202 443 l 377 443 l 377 752 l 526 752 l 526 194 b 595 98 526 139 549 98 b 697 359 652 98 697 162 b 689 538 697 423 694 479 l 840 538 "},"ԍ":{"ha":855,"x_min":0,"x_max":0,"o":"m 454 772 b 718 677 573 772 647 734 l 637 581 b 459 646 578 625 529 646 b 261 376 350 646 261 565 b 437 103 261 180 325 103 b 572 131 491 103 533 113 l 572 313 l 454 313 l 436 429 l 725 429 l 725 60 b 436 -19 654 19 558 -19 b 93 376 224 -19 93 114 b 454 772 93 625 261 772 "},"ԏ":{"ha":855,"x_min":0,"x_max":0,"o":"m 778 523 b 784 339 782 469 784 414 b 477 -21 784 93 639 -21 b 222 236 330 -21 222 70 l 222 629 l 3 629 l 3 752 l 618 752 l 598 629 l 382 629 l 382 227 b 481 100 382 141 422 100 b 627 340 557 100 627 162 b 620 523 627 412 625 467 l 778 523 "},"ԑ":{"ha":855,"x_min":0,"x_max":0,"o":"m 596 333 l 448 333 b 277 225 335 333 277 297 b 463 103 277 151 339 103 b 720 180 567 103 647 131 l 793 83 b 462 -19 719 26 609 -19 b 108 221 258 -19 108 63 b 311 400 108 335 207 394 b 148 562 212 425 148 476 b 463 772 148 693 286 772 b 766 680 575 772 687 739 l 694 590 b 471 653 628 632 546 653 b 311 551 370 653 311 620 b 459 449 311 489 365 449 l 605 449 "},"ԓ":{"ha":855,"x_min":0,"x_max":0,"o":"m 736 752 l 736 -68 b 502 -309 736 -226 646 -309 b 330 -252 423 -309 370 -282 l 392 -156 b 491 -185 422 -173 447 -185 b 576 -83 543 -185 576 -157 l 576 628 l 341 628 l 328 470 b 112 -21 306 132 261 58 l 45 81 b 177 463 115 127 154 171 l 199 752 "},"ԕ":{"ha":855,"x_min":0,"x_max":0,"o":"m 857 0 l 704 0 l 574 307 l 446 0 l 301 0 l 491 397 l 378 635 l 275 635 l 260 444 b 81 -21 234 119 189 54 l 14 75 b 116 442 63 119 95 171 l 140 752 l 474 752 l 581 487 l 690 752 l 831 752 l 666 403 "},"ԗ":{"ha":855,"x_min":0,"x_max":0,"o":"m 696 0 l 558 313 b 336 -19 542 107 450 -19 b 194 56 272 -19 232 8 l 194 -291 l 48 -307 l 48 752 l 174 752 l 184 670 b 353 772 228 734 278 772 b 558 443 484 772 548 647 l 687 752 l 838 752 l 669 387 l 854 0 m 303 103 b 412 377 365 103 412 176 b 318 651 412 582 386 651 b 194 564 269 651 230 617 l 194 179 b 303 103 229 132 262 103 "},"ԙ":{"ha":855,"x_min":0,"x_max":0,"o":"m 849 396 b 845 325 849 370 848 344 l 479 325 b 620 100 484 166 539 100 b 776 157 682 100 719 117 l 843 73 b 611 -19 792 28 712 -19 b 337 281 459 -19 361 102 l 280 281 l 154 0 l 5 0 l 151 311 b 20 513 66 350 20 414 b 311 752 20 651 129 752 l 504 752 b 600 772 533 765 566 772 b 849 396 763 772 849 630 m 709 432 b 601 658 707 582 672 658 b 479 432 530 658 489 588 m 165 513 b 301 388 165 430 214 388 l 330 388 b 393 647 333 490 354 580 l 311 647 b 165 513 218 647 165 603 "},"ԛ":{"ha":855,"x_min":0,"x_max":0,"o":"m 380 772 b 580 679 464 772 531 739 l 590 752 l 728 752 l 728 -307 l 568 -289 l 568 83 b 364 -19 518 16 449 -19 b 88 376 165 -19 88 137 b 380 772 88 605 191 772 m 421 650 b 255 376 312 650 255 563 b 407 105 255 184 308 105 b 568 210 478 105 531 151 l 568 566 b 421 650 533 619 482 650 "},"ԝ":{"ha":855,"x_min":0,"x_max":0,"o":"m 516 0 l 431 534 l 340 0 l 145 0 l 17 752 l 171 752 l 249 99 l 354 657 l 514 657 l 611 99 l 689 752 l 838 752 l 715 0 "},"ԟ":{"ha":855,"x_min":0,"x_max":0,"o":"m 818 0 l 638 0 l 420 338 l 291 338 l 291 0 l 131 0 l 131 752 l 291 752 l 291 454 l 424 454 l 489 553 l 370 620 l 422 709 l 546 638 l 620 752 l 786 752 l 664 571 l 779 504 l 728 416 l 606 486 l 551 404 "},"ԡ":{"ha":855,"x_min":0,"x_max":0,"o":"m 669 496 b 854 289 777 496 854 415 l 854 -72 b 629 -309 854 -227 764 -309 b 458 -252 551 -309 497 -282 l 517 -160 b 618 -190 548 -177 573 -190 b 704 -90 672 -190 704 -162 l 704 283 b 625 377 704 345 677 377 b 522 336 583 377 552 363 l 522 0 l 370 0 l 370 630 l 239 630 l 225 444 b 46 -21 202 119 155 54 l -21 75 b 81 442 28 119 61 171 l 105 752 l 522 752 l 522 443 b 669 496 560 476 606 496 "},"ԣ":{"ha":855,"x_min":0,"x_max":0,"o":"m 668 496 b 854 289 776 496 854 415 l 854 -72 b 629 -309 854 -227 764 -309 b 457 -252 551 -309 497 -282 l 517 -160 b 618 -190 548 -177 572 -190 b 704 -90 671 -190 704 -162 l 704 283 b 625 377 704 345 676 377 b 521 336 583 377 551 363 l 521 0 l 373 0 l 373 323 l 184 323 l 184 0 l 35 0 l 35 752 l 184 752 l 184 443 l 373 443 l 373 752 l 521 752 l 521 443 b 668 496 560 476 605 496 "},"ҍ":{"ha":855,"x_min":0,"x_max":0,"o":"m 449 486 b 771 249 660 486 771 400 b 423 0 771 75 634 0 l 192 0 l 192 571 l 81 571 l 81 675 l 192 675 l 192 752 l 351 752 l 351 675 l 554 675 l 538 571 l 351 571 l 351 486 l 449 486 m 434 118 b 603 251 532 118 603 147 b 449 373 603 332 551 373 l 351 373 l 351 118 l 434 118 "},"ҏ":{"ha":855,"x_min":0,"x_max":0,"o":"m 759 377 b 631 34 759 225 716 101 l 732 -131 l 620 -131 l 546 -9 b 469 -19 522 -16 496 -19 b 278 64 390 -19 326 9 l 278 -289 l 118 -307 l 118 752 l 257 752 l 267 655 b 486 772 324 733 402 772 b 759 377 684 772 759 617 m 431 105 b 474 108 447 105 460 106 l 349 312 l 462 312 l 556 157 b 595 377 583 198 595 266 b 442 649 595 570 546 649 b 278 541 370 649 316 599 l 278 189 b 431 105 314 135 365 105 "},"ԩ":{"ha":855,"x_min":0,"x_max":0,"o":"m 728 752 l 728 0 l 568 0 l 568 322 l 286 322 l 286 0 l 286 0 l 286 -69 b 52 -311 286 -228 196 -311 b -121 -254 -27 -311 -80 -283 l -59 -157 b 41 -187 -28 -175 -4 -187 b 126 -84 93 -187 126 -158 l 126 0 l 127 0 l 127 752 l 286 752 l 286 446 l 568 446 l 568 752 "},"ԫ":{"ha":855,"x_min":0,"x_max":0,"o":"m 872 0 l 744 0 l 630 342 l 598 342 l 598 0 l 507 0 l 507 -224 l 405 -224 l 386 0 l 105 0 l 85 -224 l -18 -224 l -18 115 l 19 115 b 95 484 59 167 78 229 l 113 752 l 413 752 l 413 451 l 481 451 l 481 752 l 598 752 l 598 451 l 632 451 l 734 752 l 853 752 l 730 404 m 295 645 l 228 645 l 219 499 b 130 115 205 236 185 178 l 295 115 m 413 342 l 413 115 l 481 115 l 481 342 "},"ԭ":{"ha":855,"x_min":0,"x_max":0,"o":"m 805 120 l 805 -224 l 683 -224 l 660 0 l 231 0 l 208 -224 l 86 -224 l 86 120 l 145 120 b 258 351 188 155 232 205 b 58 606 119 376 58 469 l 58 752 l 198 752 l 198 607 b 272 467 198 525 222 484 b 274 484 273 473 273 479 l 293 752 l 721 752 l 721 120 m 417 499 b 414 457 416 484 415 470 l 575 457 l 575 641 l 426 641 m 575 345 l 399 345 b 284 120 376 220 335 164 l 575 120 "},"ԯ":{"ha":855,"x_min":0,"x_max":0,"o":"m 812 124 l 812 -224 l 687 -224 l 663 0 l 543 0 l 543 628 l 336 628 l 323 470 b 107 -21 300 132 256 58 l 40 81 b 172 463 110 127 149 171 l 194 752 l 702 752 l 702 124 "},"Ϳ":{"ha":855,"x_min":0,"x_max":0,"o":"m 724 337 b 365 -19 724 148 622 -19 b 85 72 257 -19 166 14 l 153 177 b 359 112 231 127 295 112 b 559 340 482 112 559 194 l 559 856 l 264 856 l 264 983 l 724 983 "},"Α":{"ha":855,"x_min":0,"x_max":0,"o":"m 249 236 l 180 0 l 12 0 l 325 983 l 530 983 l 843 0 l 668 0 l 600 236 m 565 364 l 425 855 l 283 364 "},"Β":{"ha":855,"x_min":0,"x_max":0,"o":"m 786 283 b 403 0 786 64 596 0 l 115 0 l 115 983 l 384 983 b 743 734 568 983 743 927 b 561 521 743 611 656 543 b 786 283 668 503 786 447 m 575 721 b 399 859 575 820 511 859 l 281 859 l 281 575 l 409 575 b 575 721 519 575 575 618 m 613 284 b 421 452 613 416 529 452 l 281 452 l 281 128 l 414 128 b 613 284 508 128 613 153 "},"Γ":{"ha":855,"x_min":0,"x_max":0,"o":"m 766 846 l 334 846 l 334 0 l 169 0 l 169 983 l 783 983 "},"Δ":{"ha":855,"x_min":0,"x_max":0,"o":"m 843 0 l 12 0 l 325 983 l 530 983 m 218 135 l 630 135 l 425 853 "},"Ε":{"ha":855,"x_min":0,"x_max":0,"o":"m 326 562 l 682 562 l 682 437 l 326 437 l 326 125 l 760 125 l 760 0 l 161 0 l 161 983 l 752 983 l 734 858 l 326 858 "},"Ζ":{"ha":855,"x_min":0,"x_max":0,"o":"m 770 137 l 751 0 l 84 0 l 84 128 l 584 849 l 135 849 l 135 983 l 766 983 l 766 853 l 273 137 "},"Η":{"ha":855,"x_min":0,"x_max":0,"o":"m 588 447 l 267 447 l 267 0 l 102 0 l 102 983 l 267 983 l 267 583 l 588 583 l 588 983 l 753 983 l 753 0 l 588 0 "},"Θ":{"ha":855,"x_min":0,"x_max":0,"o":"m 801 491 b 427 -19 801 188 674 -19 b 53 490 181 -19 53 181 b 427 1003 53 793 181 1003 b 801 491 674 1003 801 801 m 633 491 b 427 874 633 746 572 874 b 222 490 283 874 222 746 b 427 110 222 235 286 110 b 633 491 573 110 633 236 m 296 445 l 296 558 l 558 558 l 558 445 "},"Ι":{"ha":855,"x_min":0,"x_max":0,"o":"m 723 857 l 511 857 l 511 127 l 723 127 l 723 0 l 132 0 l 132 127 l 344 127 l 344 857 l 132 857 l 132 983 l 723 983 "},"Κ":{"ha":855,"x_min":0,"x_max":0,"o":"m 125 0 l 125 983 l 290 983 l 290 0 m 639 983 l 821 983 l 476 536 l 848 0 l 650 0 l 297 525 "},"Λ":{"ha":855,"x_min":0,"x_max":0,"o":"m 836 0 l 661 0 l 425 846 l 187 0 l 18 0 l 325 983 l 530 983 "},"Μ":{"ha":855,"x_min":0,"x_max":0,"o":"m 818 0 l 667 0 l 644 479 b 643 838 637 623 639 753 l 499 173 l 355 173 l 199 838 b 204 477 205 756 208 614 l 184 0 l 36 0 l 92 983 l 290 983 l 430 324 l 564 983 l 763 983 "},"Ν":{"ha":855,"x_min":0,"x_max":0,"o":"m 225 836 b 249 447 231 778 249 606 l 249 0 l 102 0 l 102 983 l 316 983 l 630 146 b 606 535 623 205 606 358 l 606 983 l 753 983 l 753 0 l 538 0 "},"Ξ":{"ha":855,"x_min":0,"x_max":0,"o":"m 729 843 l 96 843 l 96 983 l 749 983 m 672 430 l 172 430 l 172 568 l 672 568 m 759 0 l 96 0 l 96 145 l 759 145 "},"Ο":{"ha":855,"x_min":0,"x_max":0,"o":"m 801 491 b 427 -19 801 188 674 -19 b 53 490 181 -19 53 181 b 427 1003 53 793 181 1003 b 801 491 674 1003 801 801 m 630 491 b 427 874 630 746 572 874 b 224 490 283 874 224 744 b 427 110 224 236 286 110 b 630 491 573 110 630 238 "},"Π":{"ha":855,"x_min":0,"x_max":0,"o":"m 588 848 l 267 848 l 267 0 l 102 0 l 102 983 l 753 983 l 753 0 l 588 0 "},"Ρ":{"ha":855,"x_min":0,"x_max":0,"o":"m 804 675 b 420 350 804 445 646 350 l 301 350 l 301 0 l 136 0 l 136 983 l 409 983 b 804 675 656 983 804 884 m 630 673 b 420 859 630 808 547 859 l 301 859 l 301 476 l 422 476 b 630 673 546 476 630 525 "},"Σ":{"ha":855,"x_min":0,"x_max":0,"o":"m 281 130 l 761 130 l 761 0 l 94 0 l 94 129 l 434 489 l 94 853 l 94 983 l 761 983 l 761 855 l 281 855 l 585 536 l 585 447 "},"Τ":{"ha":855,"x_min":0,"x_max":0,"o":"m 508 0 l 343 0 l 343 850 l 48 850 l 48 983 l 810 983 l 793 850 l 508 850 "},"Υ":{"ha":855,"x_min":0,"x_max":0,"o":"m 511 0 l 344 0 l 344 374 l 16 983 l 198 983 l 431 517 l 665 983 l 838 983 l 511 375 "},"Φ":{"ha":855,"x_min":0,"x_max":0,"o":"m 496 870 b 843 496 729 860 843 739 b 496 115 843 248 721 122 l 496 0 l 359 0 l 359 115 b 11 496 131 122 11 248 b 359 870 11 739 122 860 l 359 983 l 496 983 m 365 766 b 168 496 227 764 168 688 b 365 221 168 313 222 227 l 365 766 m 489 221 b 687 496 633 227 687 314 b 489 766 687 689 626 764 "},"Χ":{"ha":855,"x_min":0,"x_max":0,"o":"m 237 983 l 427 629 l 620 983 l 796 983 l 524 531 l 825 0 l 642 0 l 425 418 l 206 0 l 29 0 l 327 524 l 54 983 "},"Ψ":{"ha":855,"x_min":0,"x_max":0,"o":"m 350 269 b 18 608 120 291 18 423 l 18 983 l 171 983 l 171 611 b 356 390 171 481 213 407 l 356 983 l 500 983 l 500 392 b 684 611 639 410 684 481 l 684 983 l 837 983 l 837 608 b 506 270 837 425 732 294 l 506 0 l 350 0 "},"Ω":{"ha":855,"x_min":0,"x_max":0,"o":"m 427 873 b 224 512 292 873 224 767 b 383 119 224 290 278 174 l 383 0 l 69 0 l 69 125 l 237 125 b 53 512 115 188 53 314 b 427 1003 53 815 194 1003 b 801 512 660 1003 801 815 b 616 125 801 314 737 191 l 786 125 l 786 0 l 473 0 l 473 119 b 630 512 578 174 630 290 b 427 873 630 767 561 873 "},"Ά":{"ha":855,"x_min":0,"x_max":0,"o":"m 256 983 l 145 688 l 33 707 l 86 1015 m 249 236 l 180 0 l 12 0 l 325 983 l 530 983 l 843 0 l 668 0 l 600 236 m 565 364 l 425 855 l 283 364 "},"Έ":{"ha":855,"x_min":0,"x_max":0,"o":"m 130 983 l 19 688 l -93 707 l -40 1015 m 326 562 l 682 562 l 682 437 l 326 437 l 326 125 l 760 125 l 760 0 l 161 0 l 161 983 l 752 983 l 734 858 l 326 858 "},"Ή":{"ha":855,"x_min":0,"x_max":0,"o":"m 71 983 l -39 688 l -151 707 l -98 1015 m 588 447 l 267 447 l 267 0 l 102 0 l 102 983 l 267 983 l 267 583 l 588 583 l 588 983 l 753 983 l 753 0 l 588 0 "},"Ί":{"ha":855,"x_min":0,"x_max":0,"o":"m 100 983 l -10 688 l -122 707 l -69 1015 m 723 857 l 511 857 l 511 127 l 723 127 l 723 0 l 132 0 l 132 127 l 344 127 l 344 857 l 132 857 l 132 983 l 723 983 "},"Ό":{"ha":855,"x_min":0,"x_max":0,"o":"m 127 983 l 17 688 l -95 707 l -42 1015 m 801 491 b 427 -19 801 188 674 -19 b 53 490 181 -19 53 181 b 427 1003 53 793 181 1003 b 801 491 674 1003 801 801 m 630 491 b 427 874 630 746 572 874 b 224 490 283 874 224 744 b 427 110 224 236 286 110 b 630 491 573 110 630 238 "},"Ύ":{"ha":855,"x_min":0,"x_max":0,"o":"m 0 983 l -110 688 l -222 707 l -170 1015 m 511 0 l 344 0 l 344 374 l 16 983 l 198 983 l 431 517 l 665 983 l 838 983 l 511 375 "},"Ώ":{"ha":855,"x_min":0,"x_max":0,"o":"m 128 983 l 18 688 l -94 707 l -41 1015 m 427 873 b 224 512 292 873 224 767 b 383 119 224 290 278 174 l 383 0 l 69 0 l 69 125 l 237 125 b 53 512 115 188 53 314 b 427 1003 53 815 194 1003 b 801 512 660 1003 801 815 b 616 125 801 314 737 191 l 786 125 l 786 0 l 473 0 l 473 119 b 630 512 578 174 630 290 b 427 873 630 767 561 873 "},"Ϊ":{"ha":855,"x_min":0,"x_max":0,"o":"m 274 1091 b 180 1181 221 1091 180 1130 b 274 1272 180 1233 221 1272 b 365 1181 325 1272 365 1233 b 274 1091 365 1130 325 1091 m 580 1091 b 489 1181 530 1091 489 1130 b 580 1272 489 1233 530 1272 b 674 1181 633 1272 674 1233 b 580 1091 674 1130 633 1091 m 723 857 l 511 857 l 511 127 l 723 127 l 723 0 l 132 0 l 132 127 l 344 127 l 344 857 l 132 857 l 132 983 l 723 983 "},"Ϋ":{"ha":855,"x_min":0,"x_max":0,"o":"m 276 1091 b 183 1181 224 1091 183 1130 b 276 1272 183 1233 224 1272 b 368 1181 328 1272 368 1233 b 276 1091 368 1130 328 1091 m 583 1091 b 491 1181 533 1091 491 1130 b 583 1272 491 1233 533 1272 b 677 1181 636 1272 677 1233 b 583 1091 677 1130 636 1091 m 511 0 l 344 0 l 344 374 l 16 983 l 198 983 l 431 517 l 665 983 l 838 983 l 511 375 "},"Ͱ":{"ha":855,"x_min":0,"x_max":0,"o":"m 318 447 l 318 0 l 153 0 l 153 983 l 318 983 l 318 582 l 702 582 l 702 447 "},"Ͳ":{"ha":855,"x_min":0,"x_max":0,"o":"m 816 983 l 816 590 l 682 590 l 682 849 l 511 849 l 511 0 l 345 0 l 345 849 l 174 849 l 174 590 l 41 590 l 41 983 "},"Ͷ":{"ha":855,"x_min":0,"x_max":0,"o":"m 102 983 l 259 983 l 259 548 b 231 145 259 363 248 258 l 556 983 l 753 983 l 753 0 l 595 0 l 595 433 b 623 833 595 598 609 731 l 301 0 l 102 0 "},"Ϙ":{"ha":855,"x_min":0,"x_max":0,"o":"m 801 491 b 508 -11 801 223 702 30 l 508 -291 l 348 -291 l 348 -11 b 53 490 154 28 53 216 b 427 1003 53 793 181 1003 b 801 491 674 1003 801 801 m 427 110 b 630 491 573 110 630 238 b 427 874 630 746 572 874 b 224 490 283 874 224 744 b 427 110 224 236 286 110 "},"Ϛ":{"ha":855,"x_min":0,"x_max":0,"o":"m 457 -207 b 586 -73 531 -172 586 -136 b 395 64 586 -19 542 4 b 89 509 195 146 89 262 b 575 983 89 765 234 983 l 803 983 l 781 848 l 581 848 b 261 514 358 848 261 712 b 506 175 261 325 318 250 b 751 -61 667 110 751 56 b 519 -310 751 -167 680 -239 "},"Ϝ":{"ha":855,"x_min":0,"x_max":0,"o":"m 323 846 l 323 553 l 525 553 b 682 519 597 553 637 542 l 641 404 b 513 425 607 416 574 425 l 323 425 l 323 0 l 158 0 l 158 983 l 773 983 l 756 846 "},"Ϟ":{"ha":855,"x_min":0,"x_max":0,"o":"m 769 427 l 769 427 l 452 0 l 271 0 l 588 427 l 116 427 l 87 563 l 402 983 l 583 983 l 267 563 l 739 563 "},"Ϡ":{"ha":855,"x_min":0,"x_max":0,"o":"m 675 0 l 542 381 l 426 0 l 298 2 l 483 553 l 432 702 l 184 0 l 25 0 l 367 869 l 320 983 l 461 983 l 830 0 "},"Ϗ":{"ha":855,"x_min":0,"x_max":0,"o":"m 116 983 l 281 983 l 281 0 l 116 0 m 822 132 l 822 -68 b 585 -309 822 -228 732 -309 b 413 -252 506 -309 453 -282 l 475 -152 b 574 -182 506 -170 530 -182 b 657 -80 627 -182 657 -152 l 657 0 l 612 0 l 288 525 l 600 983 l 781 983 l 468 536 l 724 132 "},"ϒ":{"ha":855,"x_min":0,"x_max":0,"o":"m 821 871 b 783 876 810 874 798 876 b 701 801 748 876 726 858 l 506 375 l 506 0 l 339 0 l 339 374 l 40 983 l 222 983 l 426 516 l 561 838 b 766 1003 612 962 662 1003 b 850 987 800 1003 828 997 l 821 871 "},"ϓ":{"ha":855,"x_min":0,"x_max":0,"o":"m 19 983 l -93 688 l -204 707 l -152 1015 m 821 871 b 783 876 810 874 798 876 b 701 801 748 876 726 858 l 506 375 l 506 0 l 339 0 l 339 374 l 40 983 l 222 983 l 426 516 l 561 838 b 766 1003 612 962 662 1003 b 850 987 800 1003 828 997 l 821 871 "},"ϔ":{"ha":855,"x_min":0,"x_max":0,"o":"m 278 1091 b 184 1181 225 1091 184 1130 b 278 1272 184 1233 225 1272 b 370 1181 330 1272 370 1233 b 278 1091 370 1130 330 1091 m 585 1091 b 493 1181 534 1091 493 1130 b 585 1272 493 1233 534 1272 b 678 1181 637 1272 678 1233 b 585 1091 678 1130 637 1091 m 821 871 b 783 876 810 874 798 876 b 701 801 748 876 726 858 l 506 375 l 506 0 l 339 0 l 339 374 l 40 983 l 222 983 l 426 516 l 561 838 b 766 1003 612 962 662 1003 b 850 987 800 1003 828 997 l 821 871 "},"ϴ":{"ha":855,"x_min":0,"x_max":0,"o":"m 801 491 b 427 -19 801 188 674 -19 b 53 490 181 -19 53 181 b 427 1003 53 793 181 1003 b 801 491 674 1003 801 801 m 633 491 b 427 874 633 746 572 874 b 222 490 283 874 222 746 b 427 110 222 235 286 110 b 633 491 573 110 633 236 m 296 445 l 296 558 l 558 558 l 558 445 "},"Ϸ":{"ha":855,"x_min":0,"x_max":0,"o":"m 292 820 l 410 820 b 803 505 657 820 803 719 b 421 177 803 275 650 177 l 292 177 l 292 0 l 127 0 l 127 983 l 292 983 m 292 696 l 292 302 l 425 302 b 630 503 548 302 630 349 b 421 696 630 640 549 696 "},"Ϲ":{"ha":855,"x_min":0,"x_max":0,"o":"m 510 1003 b 806 902 643 1003 727 967 l 720 800 b 518 873 661 849 593 873 b 246 493 370 873 246 771 b 518 115 246 221 363 115 b 741 199 623 115 687 156 l 821 98 b 512 -19 755 33 657 -19 b 74 493 262 -19 74 160 b 510 1003 74 823 270 1003 "},"Ϻ":{"ha":855,"x_min":0,"x_max":0,"o":"m 818 0 l 667 0 l 644 479 b 643 838 637 623 639 753 l 499 173 l 355 173 l 199 838 b 204 477 205 756 208 614 l 184 0 l 36 0 l 92 983 l 290 983 l 430 324 l 564 983 l 763 983 "},"Ͻ":{"ha":855,"x_min":0,"x_max":0,"o":"m 359 1003 b 781 493 618 1003 781 823 b 343 -19 781 160 593 -19 b 34 98 198 -19 100 33 l 114 198 b 337 115 167 156 231 115 b 609 493 491 115 609 221 b 348 873 609 771 513 873 b 121 801 270 873 196 850 l 48 902 b 359 1003 138 968 228 1003 "},"Ͼ":{"ha":855,"x_min":0,"x_max":0,"o":"m 510 1003 b 806 902 643 1003 727 967 l 720 800 b 518 873 661 849 593 873 b 246 493 370 873 246 771 b 518 115 246 221 363 115 b 741 199 623 115 687 156 l 821 98 b 512 -19 755 33 657 -19 b 74 493 262 -19 74 160 b 510 1003 74 823 270 1003 m 520 594 b 623 496 581 594 623 551 b 520 397 623 440 581 397 b 418 496 459 397 418 440 b 520 594 418 551 459 594 "},"Ͽ":{"ha":855,"x_min":0,"x_max":0,"o":"m 359 1003 b 781 493 618 1003 781 823 b 343 -19 781 160 593 -19 b 34 98 198 -19 100 33 l 114 198 b 337 115 167 156 231 115 b 609 493 491 115 609 221 b 348 873 609 771 513 873 b 121 801 270 873 196 850 l 48 902 b 359 1003 138 968 228 1003 m 332 594 b 435 496 393 594 435 551 b 332 397 435 440 393 397 b 230 496 271 397 230 440 b 332 594 230 551 271 594 "},"Ἀ":{"ha":855,"x_min":0,"x_max":0,"o":"m 143 1007 b 234 918 194 1007 234 969 b 207 825 234 890 224 862 l 137 678 l 48 678 l 89 843 b 52 918 67 861 52 887 b 143 1007 52 968 92 1007 m 249 236 l 180 0 l 12 0 l 325 983 l 530 983 l 843 0 l 668 0 l 600 236 m 565 364 l 425 855 l 283 364 "},"Ἁ":{"ha":855,"x_min":0,"x_max":0,"o":"m 109 1008 b 200 918 160 1008 200 969 b 163 844 200 887 185 861 l 204 678 l 115 678 l 45 825 b 19 918 28 863 19 890 b 109 1008 19 970 58 1008 m 249 236 l 180 0 l 12 0 l 325 983 l 530 983 l 843 0 l 668 0 l 600 236 m 565 364 l 425 855 l 283 364 "},"Ἂ":{"ha":855,"x_min":0,"x_max":0,"o":"m -134 989 b -43 900 -83 989 -43 952 b -70 807 -43 872 -52 844 l -140 660 l -228 660 l -187 825 b -225 900 -209 843 -225 869 b -134 989 -225 950 -185 989 m 199 677 l 102 654 l -5 948 l 135 984 m 249 236 l 180 0 l 12 0 l 325 983 l 530 983 l 843 0 l 668 0 l 600 236 m 565 364 l 425 855 l 283 364 "},"Ἃ":{"ha":855,"x_min":0,"x_max":0,"o":"m -146 989 b -55 900 -94 989 -55 951 b -92 826 -55 869 -70 843 l -51 660 l -139 660 l -209 808 b -236 900 -227 844 -236 873 b -146 989 -236 952 -197 989 m 193 677 l 95 654 l -11 948 l 128 984 m 249 236 l 180 0 l 12 0 l 325 983 l 530 983 l 843 0 l 668 0 l 600 236 m 565 364 l 425 855 l 283 364 "},"Ἄ":{"ha":855,"x_min":0,"x_max":0,"o":"m -98 989 b -7 900 -47 989 -7 952 b -33 807 -7 872 -16 844 l -104 660 l -192 660 l -152 825 b -189 900 -174 843 -189 869 b -98 989 -189 950 -149 989 m 229 948 l 123 654 l 25 677 l 90 984 m 249 236 l 180 0 l 12 0 l 325 983 l 530 983 l 843 0 l 668 0 l 600 236 m 565 364 l 425 855 l 283 364 "},"Ἅ":{"ha":855,"x_min":0,"x_max":0,"o":"m -98 990 b -7 901 -46 990 -7 952 b -44 827 -7 870 -22 844 l -4 661 l -92 661 l -162 808 b -189 901 -179 845 -189 873 b -98 990 -189 952 -149 990 m 236 948 l 129 654 l 32 677 l 96 984 m 249 236 l 180 0 l 12 0 l 325 983 l 530 983 l 843 0 l 668 0 l 600 236 m 565 364 l 425 855 l 283 364 "},"Ἆ":{"ha":855,"x_min":0,"x_max":0,"o":"m 115 813 b -50 880 37 813 1 880 b -125 816 -83 880 -103 858 l -215 860 b -51 999 -182 936 -127 999 b 115 932 31 999 63 932 b 189 994 144 932 165 952 l 279 949 b 115 813 242 863 185 813 m 249 236 l 180 0 l 12 0 l 325 983 l 530 983 l 843 0 l 668 0 l 600 236 m 565 364 l 425 855 l 283 364 m -8 637 b -58 716 -42 657 -58 681 b 33 806 -58 766 -19 806 b 124 716 86 806 124 766 b 83 603 124 688 115 662 l 52 548 l -33 548 "},"Ἇ":{"ha":855,"x_min":0,"x_max":0,"o":"m 114 814 b -51 881 36 814 -1 881 b -126 817 -84 881 -103 859 l -216 862 b -52 1000 -182 937 -127 1000 b 113 933 30 1000 62 933 b 189 995 143 933 163 953 l 278 950 b 114 814 241 865 184 814 m 249 236 l 180 0 l 12 0 l 325 983 l 530 983 l 843 0 l 668 0 l 600 236 m 565 364 l 425 855 l 283 364 m 9 550 l -21 604 b -63 717 -54 664 -63 689 b 28 806 -63 768 -24 806 b 120 717 80 806 120 767 b 70 638 120 682 104 657 l 94 550 "},"Ὰ":{"ha":855,"x_min":0,"x_max":0,"o":"m 195 707 l 83 688 l -28 983 l 142 1015 m 249 236 l 180 0 l 12 0 l 325 983 l 530 983 l 843 0 l 668 0 l 600 236 m 565 364 l 425 855 l 283 364 "},"Ά":{"ha":855,"x_min":0,"x_max":0,"o":"m 228 983 l 117 688 l 5 707 l 58 1015 m 249 236 l 180 0 l 12 0 l 325 983 l 530 983 l 843 0 l 668 0 l 600 236 m 565 364 l 425 855 l 283 364 "},"Ᾰ":{"ha":855,"x_min":0,"x_max":0,"o":"m 426 1077 b 202 1266 298 1077 214 1155 l 301 1285 b 426 1194 320 1227 359 1194 b 553 1285 492 1194 534 1227 l 652 1266 b 426 1077 640 1155 553 1077 m 249 236 l 180 0 l 12 0 l 325 983 l 530 983 l 843 0 l 668 0 l 600 236 m 565 364 l 425 855 l 283 364 "},"Ᾱ":{"ha":855,"x_min":0,"x_max":0,"o":"m 226 1126 l 226 1242 l 628 1242 l 628 1126 m 249 236 l 180 0 l 12 0 l 325 983 l 530 983 l 843 0 l 668 0 l 600 236 m 565 364 l 425 855 l 283 364 "},"ᾼ":{"ha":855,"x_min":0,"x_max":0,"o":"m 249 236 l 180 0 l 12 0 l 325 983 l 530 983 l 843 0 l 668 0 l 600 236 m 565 364 l 425 855 l 283 364 m 529 -276 b 361 -118 422 -276 361 -212 l 361 -57 l 489 -57 l 489 -114 b 547 -173 489 -153 507 -173 b 625 -150 579 -173 599 -165 l 676 -226 b 529 -276 644 -250 598 -276 "},"ᾈ":{"ha":855,"x_min":0,"x_max":0,"o":"m 143 1007 b 234 918 194 1007 234 969 b 207 825 234 890 224 862 l 137 678 l 48 678 l 89 843 b 52 918 67 861 52 887 b 143 1007 52 968 92 1007 m 249 236 l 180 0 l 12 0 l 325 983 l 530 983 l 843 0 l 668 0 l 600 236 m 565 364 l 425 855 l 283 364 m 529 -276 b 361 -118 422 -276 361 -212 l 361 -57 l 489 -57 l 489 -114 b 547 -173 489 -153 507 -173 b 625 -150 579 -173 599 -165 l 676 -226 b 529 -276 644 -250 598 -276 "},"ᾉ":{"ha":855,"x_min":0,"x_max":0,"o":"m 109 1008 b 200 918 160 1008 200 969 b 163 844 200 887 185 861 l 204 678 l 115 678 l 45 825 b 19 918 28 863 19 890 b 109 1008 19 970 58 1008 m 249 236 l 180 0 l 12 0 l 325 983 l 530 983 l 843 0 l 668 0 l 600 236 m 565 364 l 425 855 l 283 364 m 529 -276 b 361 -118 422 -276 361 -212 l 361 -57 l 489 -57 l 489 -114 b 547 -173 489 -153 507 -173 b 625 -150 579 -173 599 -165 l 676 -226 b 529 -276 644 -250 598 -276 "},"ᾊ":{"ha":855,"x_min":0,"x_max":0,"o":"m -134 989 b -43 900 -83 989 -43 952 b -70 807 -43 872 -52 844 l -140 660 l -228 660 l -187 825 b -225 900 -209 843 -225 869 b -134 989 -225 950 -185 989 m 199 677 l 102 654 l -5 948 l 135 984 m 249 236 l 180 0 l 12 0 l 325 983 l 530 983 l 843 0 l 668 0 l 600 236 m 565 364 l 425 855 l 283 364 m 529 -276 b 361 -118 422 -276 361 -212 l 361 -57 l 489 -57 l 489 -114 b 547 -173 489 -153 507 -173 b 625 -150 579 -173 599 -165 l 676 -226 b 529 -276 644 -250 598 -276 "},"ᾋ":{"ha":855,"x_min":0,"x_max":0,"o":"m -146 989 b -55 900 -94 989 -55 951 b -92 826 -55 869 -70 843 l -51 660 l -139 660 l -209 808 b -236 900 -227 844 -236 873 b -146 989 -236 952 -197 989 m 193 677 l 95 654 l -11 948 l 128 984 m 249 236 l 180 0 l 12 0 l 325 983 l 530 983 l 843 0 l 668 0 l 600 236 m 565 364 l 425 855 l 283 364 m 529 -276 b 361 -118 422 -276 361 -212 l 361 -57 l 489 -57 l 489 -114 b 547 -173 489 -153 507 -173 b 625 -150 579 -173 599 -165 l 676 -226 b 529 -276 644 -250 598 -276 "},"ᾌ":{"ha":855,"x_min":0,"x_max":0,"o":"m -98 989 b -7 900 -47 989 -7 952 b -33 807 -7 872 -16 844 l -104 660 l -192 660 l -152 825 b -189 900 -174 843 -189 869 b -98 989 -189 950 -149 989 m 229 948 l 123 654 l 25 677 l 90 984 m 249 236 l 180 0 l 12 0 l 325 983 l 530 983 l 843 0 l 668 0 l 600 236 m 565 364 l 425 855 l 283 364 m 529 -276 b 361 -118 422 -276 361 -212 l 361 -57 l 489 -57 l 489 -114 b 547 -173 489 -153 507 -173 b 625 -150 579 -173 599 -165 l 676 -226 b 529 -276 644 -250 598 -276 "},"ᾍ":{"ha":855,"x_min":0,"x_max":0,"o":"m -98 990 b -7 901 -46 990 -7 952 b -44 827 -7 870 -22 844 l -4 661 l -92 661 l -162 808 b -189 901 -179 845 -189 873 b -98 990 -189 952 -149 990 m 236 948 l 129 654 l 32 677 l 96 984 m 249 236 l 180 0 l 12 0 l 325 983 l 530 983 l 843 0 l 668 0 l 600 236 m 565 364 l 425 855 l 283 364 m 529 -276 b 361 -118 422 -276 361 -212 l 361 -57 l 489 -57 l 489 -114 b 547 -173 489 -153 507 -173 b 625 -150 579 -173 599 -165 l 676 -226 b 529 -276 644 -250 598 -276 "},"ᾎ":{"ha":855,"x_min":0,"x_max":0,"o":"m 115 813 b -50 880 37 813 1 880 b -125 816 -83 880 -103 858 l -215 860 b -51 999 -182 936 -127 999 b 115 932 31 999 63 932 b 189 994 144 932 165 952 l 279 949 b 115 813 242 863 185 813 m 249 236 l 180 0 l 12 0 l 325 983 l 530 983 l 843 0 l 668 0 l 600 236 m 565 364 l 425 855 l 283 364 m -8 637 b -58 716 -42 657 -58 681 b 33 806 -58 766 -19 806 b 124 716 86 806 124 766 b 83 603 124 688 115 662 l 52 548 l -33 548 m 529 -276 b 361 -118 422 -276 361 -212 l 361 -57 l 489 -57 l 489 -114 b 547 -173 489 -153 507 -173 b 625 -150 579 -173 599 -165 l 676 -226 b 529 -276 644 -250 598 -276 "},"ᾏ":{"ha":855,"x_min":0,"x_max":0,"o":"m 114 814 b -51 881 36 814 -1 881 b -126 817 -84 881 -103 859 l -216 862 b -52 1000 -182 937 -127 1000 b 113 933 30 1000 62 933 b 189 995 143 933 163 953 l 278 950 b 114 814 241 865 184 814 m 249 236 l 180 0 l 12 0 l 325 983 l 530 983 l 843 0 l 668 0 l 600 236 m 565 364 l 425 855 l 283 364 m 9 550 l -21 604 b -63 717 -54 664 -63 689 b 28 806 -63 768 -24 806 b 120 717 80 806 120 767 b 70 638 120 682 104 657 l 94 550 m 529 -276 b 361 -118 422 -276 361 -212 l 361 -57 l 489 -57 l 489 -114 b 547 -173 489 -153 507 -173 b 625 -150 579 -173 599 -165 l 676 -226 b 529 -276 644 -250 598 -276 "},"Ἐ":{"ha":855,"x_min":0,"x_max":0,"o":"m 17 1007 b 108 918 68 1007 108 969 b 81 825 108 890 98 862 l 11 678 l -78 678 l -37 843 b -74 918 -59 861 -74 887 b 17 1007 -74 968 -34 1007 m 326 562 l 682 562 l 682 437 l 326 437 l 326 125 l 760 125 l 760 0 l 161 0 l 161 983 l 752 983 l 734 858 l 326 858 "},"Ἑ":{"ha":855,"x_min":0,"x_max":0,"o":"m -13 1007 b 78 918 38 1007 78 969 b 41 844 78 887 63 861 l 82 678 l -6 678 l -77 825 b -103 918 -94 862 -103 890 b -13 1007 -103 969 -63 1007 m 326 562 l 682 562 l 682 437 l 326 437 l 326 125 l 760 125 l 760 0 l 161 0 l 161 983 l 752 983 l 734 858 l 326 858 "},"Ἒ":{"ha":855,"x_min":0,"x_max":0,"o":"m -230 990 b -140 900 -179 990 -140 952 b -166 807 -140 872 -148 844 l -236 660 l -324 660 l -283 826 b -321 900 -306 843 -321 870 b -230 990 -321 950 -281 990 m 103 677 l 6 654 l -101 948 l 38 984 m 326 562 l 682 562 l 682 437 l 326 437 l 326 125 l 760 125 l 760 0 l 161 0 l 161 983 l 752 983 l 734 858 l 326 858 "},"Ἓ":{"ha":855,"x_min":0,"x_max":0,"o":"m -236 990 b -145 900 -184 990 -145 951 b -182 826 -145 870 -160 843 l -141 660 l -229 660 l -300 808 b -326 900 -318 845 -326 873 b -236 990 -326 952 -286 990 m 103 677 l 6 654 l -101 948 l 38 984 m 326 562 l 682 562 l 682 437 l 326 437 l 326 125 l 760 125 l 760 0 l 161 0 l 161 983 l 752 983 l 734 858 l 326 858 "},"Ἔ":{"ha":855,"x_min":0,"x_max":0,"o":"m -215 990 b -125 900 -164 990 -125 952 b -151 807 -125 872 -133 844 l -222 660 l -309 660 l -269 826 b -306 900 -291 843 -306 870 b -215 990 -306 950 -266 990 m 112 948 l 5 654 l -92 677 l -28 984 m 326 562 l 682 562 l 682 437 l 326 437 l 326 125 l 760 125 l 760 0 l 161 0 l 161 983 l 752 983 l 734 858 l 326 858 "},"Ἕ":{"ha":855,"x_min":0,"x_max":0,"o":"m -215 991 b -125 901 -164 991 -125 952 b -162 827 -125 870 -140 844 l -121 661 l -209 661 l -279 808 b -306 901 -297 845 -306 873 b -215 991 -306 953 -266 991 m 118 948 l 11 654 l -85 677 l -21 984 m 326 562 l 682 562 l 682 437 l 326 437 l 326 125 l 760 125 l 760 0 l 161 0 l 161 983 l 752 983 l 734 858 l 326 858 "},"Ὲ":{"ha":855,"x_min":0,"x_max":0,"o":"m 116 707 l 4 688 l -106 983 l 63 1015 m 326 562 l 682 562 l 682 437 l 326 437 l 326 125 l 760 125 l 760 0 l 161 0 l 161 983 l 752 983 l 734 858 l 326 858 "},"Έ":{"ha":855,"x_min":0,"x_max":0,"o":"m 130 983 l 19 688 l -93 707 l -40 1015 m 326 562 l 682 562 l 682 437 l 326 437 l 326 125 l 760 125 l 760 0 l 161 0 l 161 983 l 752 983 l 734 858 l 326 858 "},"Ἠ":{"ha":855,"x_min":0,"x_max":0,"o":"m -42 1007 b 48 918 9 1007 48 969 b 22 825 48 890 39 862 l -48 678 l -137 678 l -96 843 b -133 918 -118 861 -133 887 b -42 1007 -133 968 -93 1007 m 588 447 l 267 447 l 267 0 l 102 0 l 102 983 l 267 983 l 267 583 l 588 583 l 588 983 l 753 983 l 753 0 l 588 0 "},"Ἡ":{"ha":855,"x_min":0,"x_max":0,"o":"m -72 1007 b 19 918 -21 1007 19 969 b -18 844 19 887 4 861 l 23 678 l -66 678 l -136 825 b -162 918 -153 862 -162 890 b -72 1007 -162 969 -123 1007 m 588 447 l 267 447 l 267 0 l 102 0 l 102 983 l 267 983 l 267 583 l 588 583 l 588 983 l 753 983 l 753 0 l 588 0 "},"Ἢ":{"ha":855,"x_min":0,"x_max":0,"o":"m -289 990 b -199 900 -238 990 -199 952 b -225 807 -199 872 -207 844 l -296 660 l -383 660 l -343 826 b -380 900 -365 843 -380 870 b -289 990 -380 950 -340 990 m 44 677 l -53 654 l -160 948 l -21 984 m 588 447 l 267 447 l 267 0 l 102 0 l 102 983 l 267 983 l 267 583 l 588 583 l 588 983 l 753 983 l 753 0 l 588 0 "},"Ἣ":{"ha":855,"x_min":0,"x_max":0,"o":"m -295 990 b -204 900 -244 990 -204 951 b -241 826 -204 870 -219 843 l -200 660 l -288 660 l -359 808 b -385 900 -377 845 -385 873 b -295 990 -385 952 -345 990 m 44 677 l -53 654 l -160 948 l -21 984 m 588 447 l 267 447 l 267 0 l 102 0 l 102 983 l 267 983 l 267 583 l 588 583 l 588 983 l 753 983 l 753 0 l 588 0 "}}}
